<?xml version="1.0" encoding="utf-8" ?>
<svg baseProfile="full" height="200mm" version="1.1" viewBox="0,0,200,200" width="200mm" xmlns="http://www.w3.org/2000/svg" xmlns:ev="http://www.w3.org/2001/xml-events" xmlns:xlink="http://www.w3.org/1999/xlink"><defs /><rect fill="#1a1a1a" height="200" width="200" x="0" y="0" /><rect fill="#1a1a1a" height="200" width="180" x="10" y="0" /><text alignment-baseline="middle" fill="#e1ed5e" style="dominant-baseline: central; font-size:9.0px; font-family:Arial;" text-anchor="middle" x="100.0" y="100.0">2024</text><line stroke="#e1ed5e" stroke-width="0.3" x1="100.0" x2="100.0" y1="15.0" y2="10.0" /><path d="M 100.0 14.0 a86.0,86.0 0 0,1 42.35913384403234,11.155469271406648" fill="none" id="id85" stroke="none" /><text fill="#e1ed5e" style="font-size:6.75px; font-family:Arial;" text-anchor="middle"><textPath startOffset="22.145653131862478" xlink:href="#id85">January</textPath></text><path d="M 100.0 79.0 l 0.0 -15.27377891126963 a36.27377891126963,36.27377891126963 0 0,0 0.6226876502402046,0.00534502456992209 l -0.2621947253913498 15.271528284894144" fill="#ffbe11" stroke="none" /><path d="M 100.36049292484886 79.00309439819443 l 0.26026046668256375 -15.158867412188028 a36.16110143527884,36.16110143527884 0 0,0 0.6205704526577094,0.01598369354552133 l -0.5204442334110145 15.152166001292462" fill="#ffbd11" stroke="none" /><path d="M 101.08105385017728 79.02784411241856 l 1.27403374714662 -24.715914333792778 a45.74872892381045,45.74872892381045 0 0,0 0.7839494517140079,0.047160452296895944 l -1.6981275509930904 24.69040190367119" fill="#cbff1d" stroke="none" /><path d="M 101.44090949804482 79.04949213459386 l 1.0286121362871912 -14.955794712283009 a35.99112532143167,35.99112532143167 0 0,0 0.6160155406406063,0.04768349880014745 l -1.285196671703031 14.935933446487807" fill="#ffbb11" stroke="none" /><path d="M 102.15924093988457 79.11130261209362 l 6.477722819653705 -62.666092163719114 a84.0,84.0 0 0,0 1.4330563935968135,0.16057695797211657 l -7.552515114851315 62.54565944524002" fill="#4dd2ff" stroke="none" /><path d="M 102.87502721639298 79.19773525538626 l 2.070673037117555 -14.982358591962978 a36.12477291746268,36.12477291746268 0 0,0 0.61356188406107,0.09017246779309494 l -2.327560026786307 14.944605050871" fill="#ffbd11" stroke="none" /><path d="M 103.94208987418118 79.37332000966035 l 3.332036988495832 -17.434625508621746 a38.750172875738095,38.750172875738095 0 0,0 0.6523010618026858,0.13047848111723576 l -3.6308345358294747 17.37485763084165" fill="#ffde14" stroke="none" /><path d="M 104.29559338865022 79.4440306129975 l 3.0629313670585154 -14.657235385011312 a35.97384712393374,35.97384712393374 0 0,0 0.6033971893260539,0.1315076090011861 l -3.3140909730037036 14.602496317876406" fill="#ffbb11" stroke="none" /><path d="M 104.64783097203109 79.52079915486377 l 6.929599624742665 -30.53309454355447 a52.30957063526853,52.30957063526853 0 0,0 0.8739879232184774,0.20625877013382346 l -7.452719701701028 30.409639629774418" fill="#81ff25" stroke="none" /><path d="M 105.3480935250658 79.69241777938227 l 3.8348059662640415 -14.561382873173343 a36.05787528099633,36.05787528099633 0 0,0 0.5972190316908434,0.16277470280240985 l -4.084206398889578 14.493407676226791" fill="#ffbc11" stroke="none" /><path d="M 105.69591212413111 79.78721728523813 l 4.737463125800675 -16.811585342990703 a38.4663378706866,38.4663378706866 0 0,0 0.6340351292516418,0.18455838559817178 l -5.025358267433922 16.727783263090014" fill="#ffda14" stroke="none" /><path d="M 106.04205211174951 79.88797359093562 l 4.316299820379309 -14.367558301606968 a36.001905735255164,36.001905735255164 0 0,0 0.5903615940194141,0.18289553091907035 l -4.562302047270354 14.29134618288125" fill="#ffbb11" stroke="none" /><path d="M 106.72888874123014 80.10723608172694 l 6.811302868689195 -20.136406642075002 a42.25720393711308,42.25720393711308 0 0,0 0.6851587633382634,0.23833378426573354 l -7.155967404072476 20.01651442524068" fill="#f5ff19" stroke="none" /><path d="M 107.06938296918511 80.22567764915836 l 5.091015630723407 -14.240476801711932 a36.12314847154407,36.12314847154407 0 0,0 0.5821173961513922,0.2137615710328889 l -5.334722178528924 14.150984381670321" fill="#ffbd11" stroke="none" /><path d="M 109.3889696526874 81.21577127319529 l 4.2575175520859325 -8.517887102114228 a30.522649651787244,30.522649651787244 0 0,0 0.46666628211249506,0.23828312877554586 l -4.403111055912007 8.443546021665849" fill="#ff720a" stroke="none" /><line stroke="#e1ed5e" stroke-width="0.3" x1="143.13028292997686" x2="145.6673583964461" y1="26.7553504044142" y2="22.446841604673864" /><path d="M 143.63769802327073 25.89364864446614 a86.0,86.0 0 0,1 29.32050498858742,28.57503671076993" fill="none" id="id86" stroke="none" /><text fill="#e1ed5e" style="font-size:6.75px; font-family:Arial;" text-anchor="middle"><textPath startOffset="20.669276256404974" xlink:href="#id86">February</textPath></text><path d="M 110.96478420261332 82.08984904055464 l 1.242423831700196 -2.0294059573064422 a23.3795179169587,23.3795179169587 0 0,0 0.3404902490766471,0.2124910979737684 l -1.2770782095665558 2.0077790624911285" fill="#ff0d01" stroke="none" /><path d="M 111.27062007382361 82.28071324371311 l 25.63278972470236 -40.29900294044051 a68.76033445302116,68.76033445302116 0 0,0 0.9905232906120196,0.6420452298118214 l -26.320798647571387 39.85304386892479" fill="#3aff92" stroke="none" /><path d="M 113.59037401385872 83.9905735841838 l 0.9688955766255573 -1.1413565530116327 a22.497148429350666,22.497148429350666 0 0,0 0.2922706542070286,0.2524564300089806 l -0.9883457105954461 1.124555990537932" fill="#ff0000" stroke="none" /><path d="M 114.39649973595853 84.71141617570332 l 7.111470703382768 -7.55213544658594 a31.373416282433247,31.373416282433247 0 0,0 0.3889220700342185,0.3725785453196311 l -7.240065259282298 7.428944770960729" fill="#ff7e0b" stroke="none" /><path d="M 114.65682725009322 84.96080404539774 l 10.99460453950376 -11.281432829325665 a36.75284278035757,36.75284278035757 0 0,0 0.4480487957126053,0.4442193418370498 l -11.186645255346328 11.091033477259955" fill="#ffc512" stroke="none" /><path d="M 115.16444852881244 85.47280134310134 l 11.350008909373924 -10.873051787591587 a36.71769567775493,36.71769567775493 0 0,0 0.43212210882878443,0.4588987048469472 l -11.534986851938969 10.676611622800145" fill="#ffc412" stroke="none" /><path d="M 115.41159269507618 85.73525988315684 l 11.693977256341693 -10.823770767526389 a36.934337692536694,36.934337692536694 0 0,0 0.42668358295675746,0.46900000163159533 l -11.878058540140328 10.621433190337122" fill="#ffc712" stroke="none" /><path d="M 115.8921839302757 86.27271002978787 l 11.576181975797974 -9.999230277406246 a36.29681650793353,36.29681650793353 0 0,0 0.4032497437469375,0.4750271841768375 l -11.746126283052023 9.799036310779858" fill="#ffbf11" stroke="none" /><path d="M 116.1254893667686 86.54754324733833 l 14.011482227140634 -11.688876809514683 a39.24695797302904,39.24695797302904 0 0,0 0.4271436704735092,0.5210458253883594 l -14.210072716852771 11.446628702427828" fill="#ffe415" stroke="none" /><path d="M 116.57777611688842 87.10902102172516 l 12.311536395625726 -9.573525166900723 a36.595714556957574,36.595714556957574 0 0,0 0.3813761794331608,0.4992336612178366 l -12.474064552413193 9.360770592442003" fill="#ffc312" stroke="none" /><path d="M 117.21940702142032 87.97951657250589 l 25.797445264546255 -18.008620325218768 a52.46138249020762,52.46138249020762 0 0,0 0.5091508653505293,0.7428663287043855 l -26.10278586671211 17.56311926144433" fill="#80ff26" stroke="none" /><path d="M 117.62189284568427 88.57770195909679 l 13.719694866405682 -8.892940455753317 a37.349752816995505,37.349752816995505 0 0,0 0.3441198282016529,0.5410135267172278 l -13.870332386233224 8.656113254357416" fill="#ffcc13" stroke="none" /><line stroke="#e1ed5e" stroke-width="0.3" x1="172.87174338648825" x2="177.1583165268699" y1="56.24261187166439" y2="53.66864786411523" /><path d="M 173.72905801456457 55.72781907015455 a86.0,86.0 0 0,1 12.242430191666344,42.057860355516425" fill="none" id="id87" stroke="none" /><text fill="#e1ed5e" style="font-size:6.75px; font-family:Arial;" text-anchor="middle"><textPath startOffset="22.145653131862474" xlink:href="#id87">March</textPath></text><path d="M 118.18653347947321 89.5 l 13.123376502934907 -7.57678495664628 a36.15356991329256,36.15356991329256 0 0,0 0.3056984643794182,0.5401398950973216 l -13.251508332335701 7.350388291449841" fill="#ffbd11" stroke="none" /><path d="M 119.4528033332814 92.08871423366111 l 15.367325674807253 -6.249757569377988 a37.58958010534286,37.58958010534286 0 0,0 0.23796231365101372,0.5998204788890283 l -15.472346663424391 5.985036073275395" fill="#ffcf13" stroke="none" /><path d="M 119.71291397450082 92.76114493625339 l 14.215938429311416 -5.220289502508053 a36.14411859158429,36.14411859158429 0 0,0 0.20887828981839138,0.5842697521078798 l -14.30345688917375 4.975484794019256" fill="#ffbd11" stroke="none" /><path d="M 119.94978838288452 93.4421083053983 l 18.32600700560075 -6.024122503492181 a40.29073831418613,40.29073831418613 0 0,0 0.2103469784104738,0.6589089139299237 l -18.42671869978848 5.70864455587087" fill="#fff116" stroke="none" /><path d="M 120.05942366710727 93.78553927170692 l 12.056192907453395 -3.735039380964385 a33.62150175688632,33.62150175688632 0 0,0 0.16606408996327418,0.5527733460695843 l -12.118533317420297 3.527528431304077" fill="#ff9c0e" stroke="none" /><path d="M 120.16314734710363 94.1308016681162 l 14.530556323523664 -4.22963317518082 a36.13363353156418,36.13363353156418 0 0,0 0.16824767493051385,0.5970516436211978 l -14.60102249052876 3.9795736076566084" fill="#ffbd11" stroke="none" /><path d="M 120.26092885502905 94.47779374421319 l 35.664918770264805 -9.720632205684845 a57.96589132386482,57.96589132386482 0 0,0 0.2534227894314576,0.9622876093765201 l -35.82653104050099 9.106964091935525" fill="#47ff2c" stroke="none" /><path d="M 120.43855184770803 95.1765574152323 l 14.750729389661407 -3.481131971806311 a36.15593274371963,36.15593274371963 0 0,0 0.13737384396192134,0.605294503671503 l -14.808314095180995 3.227403134195782" fill="#ffbd11" stroke="none" /><path d="M 120.51834098615036 95.52812308129327 l 16.914944636155205 -3.6865334556376577 a38.31201550841875,38.31201550841875 0 0,0 0.13453408221538854,0.6437942852866395 l -16.97573642919496 3.395622719065614" fill="#ffd914" stroke="none" /><path d="M 120.592083275326 95.88100663000786 l 21.887345572030224 -4.378082105269264 a43.32092065999855,43.32092065999855 0 0,0 0.139604158229172,0.7304679469571799 l -21.95927602254155 4.001711593278769" fill="#e8ff1a" stroke="none" /><path d="M 120.7213421655516 96.59031103205396 l 7.931830594182498 -1.3051797058571968 a29.038496789785448,29.038496789785448 0 0,0 0.07671487964024157,0.49256455883178485 l -7.953066965961004 1.1688269650939707" fill="#ff5e08" stroke="none" /><path d="M 120.77682067341334 96.94652285012252 l 61.78781894138017 -9.080681603980757 a83.45152798711696,83.45152798711696 0 0,0 0.19613288133382709,1.4191198258460591 l -61.93459633926921 8.018673469934612" fill="#4cd7ff" stroke="none" /><path d="M 120.96210409425399 98.7389718711861 l 15.085391598751848 -0.9074996982489767 a36.112663411523954,36.112663411523954 0 0,0 0.03191398254322231,0.6191227354495583 l -15.098747170751643 0.6484051694226878" fill="#ffbc11" stroke="none" /><path d="M 120.98066250479742 99.09900007780936 l 15.093730779610645 -0.6481897440028906 a36.10764239686644,36.10764239686644 0 0,0 0.021278256022242804,0.6194932074738078 l -15.102633722629736 0.38899027196496294" fill="#ffbc11" stroke="none" /><line stroke="#e1ed5e" stroke-width="0.3" x1="184.99686870605535" x2="189.99668451229388" y1="99.2704041080226" y2="99.22748670261217" /><path d="M 185.99683186730306 99.26182062694052 a86.0,86.0 0 0,1 -10.086455211305974,41.156179273409016" fill="none" id="id88" stroke="none" /><text fill="#e1ed5e" style="font-size:6.75px; font-family:Arial;" text-anchor="middle"><textPath startOffset="21.40746469413373" xlink:href="#id88">April</textPath></text><path d="M 120.99922638620191 99.81974689727618 l 22.383006427712964 -0.1921311901058267 a43.38383102011922,43.38383102011922 0 0,0 0.0,0.7447685856593044 l -22.383006427712964 -0.19213119010582397" fill="#e7ff1a" stroke="none" /><path d="M 120.99922638620191 100.18025310272382 l 16.343834339888954 0.1402921610533689 a37.3444364485346,37.3444364485346 0 0,0 -0.011005171398616134,0.6409960613938728 l -16.33901773689167 -0.42083513841631276" fill="#ffcc13" stroke="none" /><path d="M 120.96210409425399 101.26102812881392 l 24.904693752207706 1.4982045323226274 a45.94971718701287,45.94971718701287 0 0,0 -0.05412447565677051,0.7869579973598744 l -24.87530531538587 -1.9255059538368453" fill="#c9ff1d" stroke="none" /><path d="M 120.93736805541906 101.62068470465957 l 15.71410558512198 1.2163711552379728 a36.76111268685231,36.76111268685231 0 0,0 -0.05410251517860595,0.6287532358175737 l -15.690909447245634 -1.4859454384312039" fill="#ffc512" stroke="none" /><path d="M 120.9064616781168 101.97986365728391 l 31.044410017811238 2.9399379054381223 a52.18330688432211,52.18330688432211 0 0,0 -0.09211001612365834,0.8910808505257086 l -30.989367609205914 -3.4724232782467626" fill="#83ff25" stroke="none" /><path d="M 120.86939407059847 102.33845913500097 l 17.854633064827883 2.0006488761146866 a38.96637185981477,38.96637185981477 0 0,0 -0.08019263322911163,0.6641100417134032 l -17.817658345339108 -2.3068525947514984" fill="#ffe115" stroke="none" /><path d="M 120.77682067341334 103.0534771498775 l 17.361656374464275 2.551565605573575 a38.548150874223815,38.548150874223815 0 0,0 -0.1018378043490893,0.6538717574327623 l -17.31529707797692 -2.849225544937788" fill="#ffdc14" stroke="none" /><path d="M 120.7213421655516 103.40968896794604 l 17.569719509543113 2.891090659232915 a38.80599474457756,38.80599474457756 0 0,0 -0.11380353660667643,0.6563885570343332 l -17.5175011554442 -3.192272249187836" fill="#ffdf14" stroke="none" /><path d="M 120.65975698304385 103.76489593502545 l 14.690124689654729 2.6770300722554583 a35.93205456075498,35.93205456075498 0 0,0 -0.11579311228790663,0.6058784930022062 l -14.642005285084663 -2.9288111302909794" fill="#ffba11" stroke="none" /><path d="M 120.592083275326 104.11899336999214 l 15.616999811846554 3.1238373419576213 a36.926363139845336,36.926363139845336 0 0,0 -0.1296683118506192,0.6205098126624898 l -15.561073789171571 -3.3914636059055203" fill="#ffc712" stroke="none" /><path d="M 120.43855184770803 104.8234425847677 l 14.584435321670506 3.4418870245557316 a35.98507056846231,35.98507056846231 0 0,0 -0.14704609114120926,0.5999982314577895 l -14.523201704013001 -3.691741080621621" fill="#ffbb11" stroke="none" /><path d="M 120.35273937422433 105.17358676015961 l 17.62286446126435 4.47966323237799 a39.18330922839991,39.18330922839991 0 0,0 -0.17130666495467614,0.6504793095337743 l -17.543368315504942 -4.781523046284567" fill="#ffe315" stroke="none" /><path d="M 120.26092885502905 105.52220625578681 l 10.099522611864407 2.7526697984458193 a31.467929499515947,31.467929499515947 0 0,0 -0.14652293322635646,0.5199581994052762 l -10.05078118656347 -2.925635921754104" fill="#ff7f0b" stroke="none" /><path d="M 120.05942366710727 106.21446072829308 l 17.05220521867617 5.282816765868679 a38.851774584101996,38.851774584101996 0 0,0 -0.202834540432669,0.6353763089629855 l -16.959005962466247 -5.574762108523048" fill="#ffdf14" stroke="none" /><path d="M 119.94978838288452 106.5578916946017 l 14.288275373575495 4.696839916504641 a36.04044940659671,36.04044940659671 0 0,0 -0.19824749140692988,0.5860834820738815 l -14.205542460596199 -4.941425073052683" fill="#ffbb11" stroke="none" /><path d="M 119.83427380445688 106.89939002012753 l 29.76766003849343 10.354737391291872 a52.517204359047085,52.517204359047085 0 0,0 -0.30349899956102083,0.8489407175474276 l -29.585520868888466 -10.864213065220222" fill="#7fff26" stroke="none" /><line stroke="#e1ed5e" stroke-width="0.3" x1="174.33088141563837" x2="178.70328620479359" y1="141.23008692659167" y2="143.65538615756765" /><path d="M 175.20536237346943 141.71514677278685 a86.0,86.0 0 0,1 -30.301960400862466,31.631185727798858" fill="none" id="id89" stroke="none" /><text fill="#e1ed5e" style="font-size:6.75px; font-family:Arial;" text-anchor="middle"><textPath startOffset="22.145653131862474" xlink:href="#id89">May</textPath></text><path d="M 118.18653347947321 110.5 l 12.963255783516573 7.484339216187262 a35.96867843237453,35.96867843237453 0 0,0 -0.313315090341419,0.5320775206210548 l -12.832866983045388 -7.705767905101867" fill="#ffbb11" stroke="none" /><path d="M 118.00360718960297 110.81064883170644 l 18.155871486110275 10.902079166850495 a42.177606087101246,42.177606087101246 0 0,0 -0.37805603086538964,0.617526114404885 l -17.96604749078948 -11.212142397379937" fill="#f6ff19" stroke="none" /><path d="M 117.81537515405839 111.11811171558189 l 17.022424397448056 10.623251797072653 a41.0653036635592,41.0653036635592 0 0,0 -0.3783528450909158,0.5948335152201211 l -16.83755386073125 -10.913898986971446" fill="#fffb17" stroke="none" /><path d="M 117.62189284568427 111.42229804090321 l 12.575281996270682 8.151145859735847 a35.98595662987246,35.98595662987246 0 0,0 -0.34045381544830033,0.5154904691182622 l -12.433503741901655 -8.36581620719317" fill="#ffbb11" stroke="none" /><path d="M 117.21940702142032 112.02048342749411 l 12.374035808401405 8.638038010314656 a36.09080723007358,36.09080723007358 0 0,0 -0.35899165296324304,0.5049667176491859 l -12.223929056908203 -8.849181954673346" fill="#ffbc11" stroke="none" /><path d="M 117.01052211995028 112.31430620078461 l 14.777857946454825 10.698029517325283 a39.243709081191824,39.243709081191824 0 0,0 -0.39972143411936745,0.5422988941071205 l -14.59203449275163 -10.95013472070128" fill="#ffe415" stroke="none" /><path d="M 116.79662413953412 112.60449989151573 l 12.016476266825604 9.017387812180084 a36.02361423980385,36.02361423980385 0 0,0 -0.3754141307110664,0.4914291480562826 l -11.859910158760233 -9.222337873477246" fill="#ffbb11" stroke="none" /><path d="M 116.57777611688842 112.89097897827486 l 11.839625449102362 9.206564360556314 a35.99791845890949,35.99791845890949 0 0,0 -0.3835210850612302,0.484566362329486 l -11.67983793339957 -9.408450666800483" fill="#ffbb11" stroke="none" /><path d="M 116.35404254752997 113.17365903436017 l 11.958151108980534 9.632640060292516 a36.355296561003456,36.355296561003456 0 0,0 -0.39567231745430115,0.482655891875352 l -11.791031972287605 -9.836498233866362" fill="#ffc011" stroke="none" /><path d="M 115.89218393027572 113.72728997021213 l 13.566695642818031 11.718588574336078 a38.927089803964776,38.927089803964776 0 0,0 -0.44115317550638905,0.5019513323548027 l -13.363531403353058 -11.949752184502174" fill="#ffe015" stroke="none" /><path d="M 115.6541949942343 113.99807769240083 l 11.153375876843354 9.973417484201914 a35.9621806487001,35.9621806487001 0 0,0 -0.4154527480054429,0.45665534666739754 l -10.98052542799603 -10.163410406426983" fill="#ffba11" stroke="none" /><path d="M 115.41159269507618 114.26474011684316 l 11.954192635326647 11.064622237524823 a37.288909933498516,37.288909933498516 0 0,0 -0.43884459792372305,0.4660377553051028 l -11.762492203666664 -11.268201452774422" fill="#ffcc13" stroke="none" /><path d="M 115.16444852881244 114.52719865689866 l 10.81371664282839 10.359295927662828 a35.975028539147274,35.975028539147274 0 0,0 -0.43103771473456437,0.44228266766777924 l -10.63429212694302 -10.543401287398343" fill="#ffbb11" stroke="none" /><path d="M 114.39649973595853 115.28858382429668 l 12.200478986608971 12.956485889236347 a38.79669109977098,38.79669109977098 0 0,0 -0.48878330650132285,0.45241053138656034 l -11.97626590879368 -13.164014166755289" fill="#ffdf14" stroke="none" /><path d="M 113.86319453409587 115.77377054828091 l 11.944184234635326 13.590289095356713 a39.09307864146626,39.09307864146626 0 0,0 -0.5078759072684011,0.4386911124704642 l -11.70912884760407 -13.793324340291894" fill="#ffe215" stroke="none" /><path d="M 113.59037401385872 116.0094264158162 l 10.03539948940291 11.821675364863538 a36.50681306213916,36.50681306213916 0 0,0 -0.4812391825501857,0.4014668419480013 l -9.83098597269083 -11.992204390723408" fill="#ffc112" stroke="none" /><path d="M 113.03279911837588 116.46651593811092 l 9.432677274838646 11.917879595503456 a36.19905439901361,36.19905439901361 0 0,0 -0.49056623312226577,0.38146727003921016 l -9.226701097081149 -12.078047917163458" fill="#ffbe11" stroke="none" /><path d="M 112.45986205192187 116.90419585922612 l 8.959037065155334 12.154654411771148 a36.09966784417508,36.09966784417508 0 0,0 -0.5019899299853032,0.3634019969498451 l -8.749066124796062 -12.306657180094069" fill="#ffbc11" stroke="none" /><path d="M 112.16784306229584 117.11559508785304 l 10.63333951042839 14.957123671006865 a39.35166089632847,39.35166089632847 0 0,0 -0.5539306729247787,0.3866866301255351 l -10.375013746329854 -15.137455116937522" fill="#ffe615" stroke="none" /><path d="M 111.8722381534696 117.32195027204791 l 8.476488670956744 12.367450293858886 a35.993488151858735,35.993488151858735 0 0,0 -0.5126564719313085,0.34493815344679607 l -8.262935910928432 -12.511138121362803" fill="#ffbb11" stroke="none" /><path d="M 111.27062007382361 117.71928675628689 l 14.422273354446558 22.674209189122013 a47.87232277013739,47.87232277013739 0 0,0 -0.6971939781554732,0.43510060661269073 l -14.03091524750137 -22.91844559257625" fill="#b3ff20" stroke="none" /><path d="M 110.96478420261333 117.91015095944535 l 10.031224997519828 16.385252157623125 a40.212026525584434,40.212026525584434 0 0,0 -0.5918200091191249,0.3553709111060261 l -9.748472231843266 -16.555037069265072" fill="#fff016" stroke="none" /><line stroke="#e1ed5e" stroke-width="0.3" x1="143.1302829299769" x2="145.66735839644613" y1="173.24464959558577" y2="177.55315839532614" /><path d="M 143.63769802327073 174.10635135553383 a86.0,86.0 0 0,1 -40.68552437913181,11.842963189579606" fill="none" id="id90" stroke="none" /><text fill="#e1ed5e" style="font-size:6.75px; font-family:Arial;" text-anchor="middle"><textPath startOffset="21.407464694133747" xlink:href="#id90">June</textPath></text><path d="M 110.65571695917076 118.09573695890943 l 7.629278233697608 12.956182360353235 a36.035576068840875,36.035576068840875 0 0,0 -0.535741822556271,0.309310685469005 l -7.405743943280939 -13.085239943098411" fill="#ffbb11" stroke="none" /><path d="M 110.34350942703117 118.27599006163325 l 15.41084878086556 27.22949315677976 a52.288009807621535,52.288009807621535 0 0,0 -0.7849570943620868,0.4354024682315222 l -14.941147498347378 -27.490028540444428" fill="#82ff25" stroke="none" /><path d="M 109.71004243097381 118.62028667847754 l 6.921535167137389 13.272956321606603 a35.96926913998129,35.96926913998129 0 0,0 -0.5499406274145571,0.2808036028399796 l -6.692667318009249 -13.38981787611942" fill="#ffbb11" stroke="none" /><path d="M 109.3889696526874 118.78422872680471 l 6.739017167141029 13.48254862291601 a36.07293832496889,36.07293832496889 0 0,0 -0.5562786359782222,0.2721037563348793 l -6.506578281900738 -13.596246129348113" fill="#ffbc11" stroke="none" /><path d="M 108.4095320186766 119.2426549942271 l 6.060854894538356 13.86842210085643 a36.13496262367941,36.13496262367941 0 0,0 -0.5705279126685496,0.2435244402314559 l -5.821891906699375 -13.97042119074729" fill="#ffbd11" stroke="none" /><path d="M 108.07796709384702 119.3841803445677 l 12.124193424910029 29.09365056214334 a52.51882880496569,52.51882880496569 0 0,0 -0.8351632658533935,0.339653629583092 l -11.622975697866195 -29.29749144830572" fill="#7fff26" stroke="none" /><path d="M 107.74402155503746 119.51999308798841 l 6.410169311956241 16.157814098648366 a38.38290042123079,38.38290042123079 0 0,0 -0.6145426555984088,0.23771830106532027 l -6.131854393864303 -16.265472287851725" fill="#ffd914" stroke="none" /><path d="M 107.407793817531 119.65005319985036 l 6.386590803025847 16.941190877658745 a39.1050404705033,39.1050404705033 0 0,0 -0.6301699962010817,0.23140715136900072 l -6.094831655170638 -17.048328878036468" fill="#ffe315" stroke="none" /><path d="M 107.06938296918513 119.77432235084164 l 9.092011939337576 25.431975561353138 a48.00833319659546,48.00833319659546 0 0,0 -0.7784076355800058,0.27077058255114944 l -8.654098531712549 -25.584304576472878" fill="#b1ff20" stroke="none" /><path d="M 106.72888874123015 119.89276391827305 l 4.818600245403485 14.24533541638263 a36.03823425307133,36.03823425307133 0 0,0 -0.5877274193810248,0.19319767650042668 l -4.573350088374726 -14.325954014285077" fill="#ffbb11" stroke="none" /><path d="M 106.0420521117495 120.11202640906438 l 4.42460458916779 14.728069652686806 a36.37833415766736,36.37833415766736 0 0,0 -0.5996188635672739,0.17454031224547972 l -4.171125713218909 -14.801853659234803" fill="#ffc011" stroke="none" /><path d="M 105.69591212413111 120.21278271476187 l 6.249658920213251 22.17783474230018 a44.04158394025415,44.04158394025415 0 0,0 -0.7294515250817252,0.19881525688787535 l -5.868025994196831 -22.281850493332197" fill="#dfff1b" stroke="none" /><path d="M 105.3480935250658 120.30758222061773 l 3.8468784687420574 14.607224131470687 a36.10527956643937,36.10527956643937 0 0,0 -0.6007139793871971,0.1526991444864798 l -3.595559196129463 -14.671108507792438" fill="#ffbc11" stroke="none" /><path d="M 104.9986988182912 120.39639698878246 l 3.5863142156963432 14.633385832768 a36.06644054129445,36.06644054129445 0 0,0 -0.6025978245234614,0.1422114457987289 l -3.3345842374330026 -14.692793422212954" fill="#ffbc11" stroke="none" /><path d="M 104.64783097203109 120.47920084513623 l 1.162069415501338 5.120292260895676 a26.250504562747448,26.250504562747448 0 0,0 -0.44030544236716707,0.09596252183506115 l -1.074001556515035 -5.139486240864455" fill="#ff3605" stroke="none" /><path d="M 104.29559338865022 120.5559693870025 l 4.062229490787883 19.439238657049263 a40.85914670879757,40.85914670879757 0 0,0 -0.6878024742745763,0.137579757886654 l -3.727930530982348 -19.506107811598778" fill="#fff817" stroke="none" /><path d="M 103.94208987418118 120.62667999033965 l 2.3272086687347056 12.176939139599375 a33.39732822011828,33.39732822011828 0 0,0 -0.5640415386605261,0.10278715755618315 l -2.1178323965231223 -12.215094471086921" fill="#ff990e" stroke="none" /><path d="M 103.58742460773223 120.69131181640829 l 5.12317201421247 29.54909474799449 a50.989929841751305,50.989929841751305 0 0,0 -0.8637269124979257,0.14212593476489127 l -4.615167598661471 -29.632686681255056" fill="#90ff24" stroke="none" /><path d="M 103.2317021107853 120.74984581791261 l 2.3464908543977967 15.066154544196154 a36.24778777657188,36.24778777657188 0 0,0 -0.6156512322458955,0.09047953002560893 l -2.0875145165442155 -15.104215147520645" fill="#ffbe11" stroke="none" /><path d="M 102.875027216393 120.80226474461374 l 2.435120225766835 17.61931689986515 a38.78679674735764,38.78679674735764 0 0,0 -0.660340002618814,0.0854942338064242 l -2.132302401257246 -17.65852272987197" fill="#ffdf14" stroke="none" /><path d="M 102.51750503828377 120.84855314841334 l 2.169710283541598 17.968313657840312 a39.098838040632245,39.098838040632245 0 0,0 -0.667033807575404,0.07474252943820472 l -1.8609405743653948 -18.00291194778549" fill="#ffe215" stroke="none" /><path d="M 102.15924093988457 120.88869738790638 l 1.6852583820352336 16.303346103028534 a37.39021628805904,37.39021628805904 0 0,0 -0.6390173786149096,0.06051561013869587 l -1.4051414400353086 -16.329873468672414" fill="#ffcd13" stroke="none" /><path d="M 101.80034050326958 120.92268563240118 l 1.4049515338156564 16.327666470537228 a37.38800113453366,37.38800113453366 0 0,0 -0.639924134815717,0.04953417519781876 l -1.1244584042247037 -16.349378412730097" fill="#ffcd13" stroke="none" /><path d="M 101.44090949804482 120.95050786540614 l 1.0384105654124252 15.098261721304299 a36.13392888536757,36.13392888536757 0 0,0 -0.619190399478256,0.03724895684721184 l -0.7790758138017039 -15.113862655976202" fill="#ffbd11" stroke="none" /><path d="M 100.72087961077811 120.9876233191556 l 0.5712496969351808 16.631311638175436 a37.64111934403327,37.64111934403327 0 0,0 -0.6459694407173222,0.016637881381523893 l -0.28566694214711474 -16.638667236907008" fill="#ffd013" stroke="none" /><line stroke="#e1ed5e" stroke-width="0.3" x1="101.45913802915013" x2="101.54496967792366" y1="184.9874750549273" y2="189.98673829345242" /><path d="M 101.47630435890484 185.9873277026323 a86.0,86.0 0 0,1 -42.54439059252881,-10.42667462771756" fill="none" id="id91" stroke="none" /><text fill="#e1ed5e" style="font-size:6.75px; font-family:Arial;" text-anchor="middle"><textPath startOffset="22.145653131862474" xlink:href="#id91">July</textPath></text><path d="M 100.36049292484886 120.99690560180557 l 0.30945857777222047 18.0244107367062 a39.02706706641007,39.02706706641007 0 0,0 -0.6699515026210705,0.0057507278983042615 l -2.207678998089376e-15 -18.02706706641007" fill="#ffe215" stroke="none" /><path d="M 100.0 121.0 l 1.8438589392337594e-15 15.05625083507772 a36.05625083507772,36.05625083507772 0 0,0 -0.6189534915533826,-0.00531297130867413 l 0.25846056670452866 -15.05403226196348" fill="#ffbc11" stroke="none" /><path d="M 99.63950707515114 120.99690560180557 l -0.25387715943652756 14.787071766743777 a35.78925099681909,35.78925099681909 0 0,0 -0.614189026601617,-0.01581933064678912 l 0.5076795001088885 -14.78053471874694" fill="#ffb811" stroke="none" /><path d="M 99.27912038922189 120.98762331915562 l -0.5183353656375053 15.09076861704348 a36.09966784417508,36.09966784417508 0 0,0 -0.6191509718256247,-0.026589006772861617 l 0.7773120980639687 -15.079647041844789" fill="#ffbc11" stroke="none" /><path d="M 98.55909050195518 120.95050786540614 l -1.622688766259534 23.593538530182595 a44.649274390715576,44.649274390715576 0 0,0 -0.7642063608005336,-0.059154405504774896 l 2.027464121835304 -23.562206357682765" fill="#d8ff1c" stroke="none" /><path d="M 98.19965949673042 120.92268563240118 l -1.7847006710466793 20.740927074867724 a41.81756980077683,41.81756980077683 0 0,0 -0.7146830504607812,-0.06768122793180235 l 2.1404832848924755 -20.70723409143074" fill="#faff18" stroke="none" /><path d="M 97.84075906011543 120.88869738790638 l -1.8569774756447268 17.964572562696333 a39.06029436929071,39.06029436929071 0 0,0 -0.6663762450200625,-0.07466884818233448 l 2.1650896222655884 -17.930047954007026" fill="#ffe215" stroke="none" /><path d="M 97.48249496171623 120.84855314841334 l -1.824276019872748 15.107622419544827 a36.21736633482339,36.21736633482339 0 0,0 -0.616595795114528,-0.07983067035545008 l 2.08334963687807 -15.074080152988978" fill="#ffbe11" stroke="none" /><path d="M 96.76829788921471 120.74984581791261 l -2.6439980143761046 16.976363928493367 a38.1810260966182,38.1810260966182 0 0,0 -0.6467547590040557,-0.10642324947506547 l 2.9350302764332237 -16.928474680522633" fill="#ffd714" stroke="none" /><path d="M 96.41257539226777 120.69131181640829 l -2.5654710586144627 14.796955318684464 a36.017707163736176,36.017707163736176 0 0,0 -0.6082966527669756,-0.11085191356179006 l 2.8191024449324953 -14.750735231191308" fill="#ffbb11" stroke="none" /><path d="M 96.05791012581884 120.62667999033965 l -2.4035264981909994 12.576266272159828 a33.80388273047559,33.80388273047559 0 0,0 -0.5690376832344035,-0.11382347347665746 l 2.619060666956361 -12.533153402020309" fill="#ff9e0e" stroke="none" /><path d="M 95.70440661134978 120.55596938700252 l -5.008966363790568 23.969717316973117 a45.48748848471779,45.48748848471779 0 0,0 -0.762971572281993,-0.16628610305385919 l 5.419700352691698 -23.88019975578554" fill="#ceff1d" stroke="none" /><path d="M 95.35216902796893 120.47920084513623 l -4.032564559422959 17.768223506913053 a39.22008077692115,39.22008077692115 0 0,0 -0.6552888224926642,-0.15464637784931115 l 4.336985535655511 -17.696380985417512" fill="#ffe415" stroke="none" /><path d="M 95.00130118170881 120.39639698878247 l -3.631238493238259 14.816692215586363 a36.255171621656466,36.255171621656466 0 0,0 -0.6032078598958206,-0.15333307915953193 l 3.885051646359458 -14.752173904591567" fill="#ffbe11" stroke="none" /><path d="M 94.30408787586889 120.21278271476187 l -4.916869397174448 17.448234908839964 a39.12778271336382,39.12778271336382 0 0,0 -0.6449376297113778,-0.18773194458725798 l 5.215667039267433 -17.361259269950192" fill="#ffe315" stroke="none" /><path d="M 93.95794788825049 120.11202640906438 l -4.371110786145158 14.550006180340981 a36.19240893843749,36.19240893843749 0 0,0 -0.5934854779472077,-0.18386331814522128 l 4.620236896963999 -14.47282627438911" fill="#ffbd11" stroke="none" /><path d="M 93.61358852112213 120.00534299687104 l -4.498798266288324 14.092421493430008 a35.79309059626307,35.79309059626307 0 0,0 -0.5837295085016415,-0.19188348378577444 l 4.740050512437709 -14.013117088242213" fill="#ffb811" stroke="none" /><path d="M 93.27111125876986 119.89276391827306 l -7.108608876052988 21.01533902503058 a43.18505791044217,43.18505791044217 0 0,0 -0.7002029977336681,-0.2435669499299506 l 7.468317645831678 -20.89021364253204" fill="#e9ff1a" stroke="none" /><path d="M 92.93061703081489 119.77432235084164 l -5.048808825812757 14.122416856545547 a35.99777078200779,35.99777078200779 0 0,0 -0.5800969594714205,-0.2130196386980395 l 5.2904949369382965 -14.033666368838787" fill="#ffbb11" stroke="none" /><path d="M 92.25597844496254 119.51999308798841 l -5.850724670155469 14.747648145021925 a36.865815610151735,36.865815610151735 0 0,0 -0.5862464122659989,-0.2384213122122236 l 6.10302554361191 -14.645039576230412" fill="#ffc612" stroke="none" /><path d="M 91.26138138417905 119.09545874513695 l -6.810725805189107 14.882665024649356 a37.367031014493435,37.367031014493435 0 0,0 -0.5809884454926751,-0.27193192831694746 l 7.065202964553272 -14.763556864761881" fill="#ffcd13" stroke="none" /><path d="M 90.93487009805054 118.94263497670748 l -8.551872623818337 17.87012466809232 a40.811004038846065,40.811004038846065 0 0,0 -0.6293440654906947,-0.3078437192647984 l 8.8573769385711 -17.7206871987303" fill="#fff817" stroke="none" /><path d="M 90.6110303473126 118.78422872680471 l -7.936652371416371 15.878621295484745 a38.75164964475501,38.75164964475501 0 0,0 -0.5924809435534935,-0.3025249913722735 l 8.208060536683446 -15.740038352439635" fill="#ffde14" stroke="none" /><path d="M 90.28995756902619 118.62028667847754 l -6.844306771990819 13.124860690967457 a35.80224656416796,35.80224656416796 0 0,0 -0.5425083465088277,-0.2888551376118138 l 7.068603934286209 -13.00543508563307" fill="#ffb811" stroke="none" /><path d="M 89.97174638481275 118.45085714620012 l -3.6582073995566655 6.730689582697786 a28.660591598356334,28.660591598356334 0 0,0 -0.43025800344124815,-0.23865686165551306 l 3.7732095911540164 -6.666899805609125" fill="#ff5808" stroke="none" /><line stroke="#e1ed5e" stroke-width="0.3" x1="58.13341422392154" x2="55.67067388415222" y1="173.97424548756322" y2="178.32567169271397" /><path d="M 57.64086615596768 174.84453072859336 a86.0,86.0 0 0,1 -31.369924170532247,-30.572349798747897" fill="none" id="id92" stroke="none" /><text fill="#e1ed5e" style="font-size:6.75px; font-family:Arial;" text-anchor="middle"><textPath startOffset="22.145653131862474" xlink:href="#id92">August</textPath></text><path d="M 88.72937992617639 117.7192867562869 l -8.142057183054842 12.800666251514373 a36.170700433888804,36.170700433888804 0 0,0 -0.5210550748847133,-0.33774160433145356 l 8.360597890196566 -12.659010805479024" fill="#ffbd11" stroke="none" /><path d="M 88.4268655584334 117.5232005979908 l -8.378421201412998 12.685997570330231 a36.20304167535929,36.20304167535929 0 0,0 -0.5156411498704172,-0.3469463779661754 l 8.594958639380419 -12.540301518306935" fill="#ffbe11" stroke="none" /><path d="M 88.1277618465304 117.32195027204791 l -8.600552358819735 12.548462922139226 a36.212936027772635,36.212936027772635 0 0,0 -0.5097486501342855,-0.3558441468689572 l 8.814696100127787 -12.39897395946514" fill="#ffbe11" stroke="none" /><path d="M 86.96720088162412 116.46651593811092 l -7.350304772029614 9.286869963946884 a32.843687515676024,32.843687515676024 0 0,0 -0.43908761755802606,-0.35369790332315204 l 7.508643159942902 -9.15932376683032" fill="#ff910d" stroke="none" /><path d="M 86.68645165197938 116.24036423190432 l -9.427934740726307 11.500547422940311 a35.8710640003563,35.8710640003563 0 0,0 -0.47285862743904733,-0.39447548480951505 l 9.623967702327247 -11.337009754218926" fill="#ffb911" stroke="none" /><path d="M 86.40962598614128 116.0094264158162 l -9.745246898099378 11.479876341886296 a36.058465988603096,36.058465988603096 0 0,0 -0.4684518785697058,-0.4046375754540746 l 9.940878256431947 -11.310894633967498" fill="#ffbc11" stroke="none" /><path d="M 86.13680546590413 115.77377054828092 l -12.049375102827522 13.70997699373811 a39.25242201839164,39.25242201839164 0 0,0 -0.5023094561062001,-0.44916821304397436 l 12.282949585757093 -13.501113250810752" fill="#ffe415" stroke="none" /><path d="M 85.86807049272751 115.53346607816431 l -12.17969477682482 13.387618128213981 a39.098985717533935,39.098985717533935 0 0,0 -0.4925917901276134,-0.45593560697370006 l 12.4077163382664 -13.176564775107904" fill="#ffe215" stroke="none" /><path d="M 85.34317274990678 115.03919595460226 l -10.60994643991316 10.886739732616686 a36.20171258324406,36.20171258324406 0 0,0 -0.44133004411634696,-0.4375580151230485 l 10.79526840415947 -10.703001707264978" fill="#ffbe11" stroke="none" /><path d="M 85.08716467003676 114.78537596483092 l -11.936259867426601 11.83424116534251 a37.808437273649986,37.808437273649986 0 0,0 -0.4530048498053353,-0.46482288344937 l 12.137651518382746 -11.627595589825404" fill="#ffd213" stroke="none" /><path d="M 84.58840730492382 114.26474011684316 l -11.027236310271123 10.206645301707823 a36.02582939332922,36.02582939332922 0 0,0 -0.41618804951904065,-0.4574635718367036 l 11.200822060632044 -10.015844154313445" fill="#ffbb11" stroke="none" /><path d="M 84.3458050057657 113.99807769240083 l -11.320923653470727 10.123239739212968 a36.186944893074894,36.186944893074894 0 0,0 -0.4100996435091399,-0.46661811336017883 l 11.49303436093846 -9.927409348041488" fill="#ffbd11" stroke="none" /><path d="M 84.1078160697243 113.72728997021213 l -14.788987932762344 12.77437554269954 a40.542232077767125,40.542232077767125 0 0,0 -0.4504153881571151,-0.5305881946956966 l 15.006097884426572 -12.518620565554288" fill="#fff417" stroke="none" /><path d="M 82.98947788004972 112.3143062007846 l -33.734111026954785 24.420894883054874 a62.64577233847546,62.64577233847546 0 0,0 -0.623131237258903,-0.8765121220674238 l 34.148357362743646 -23.838205534277947" fill="#32ff4c" stroke="none" /><path d="M 82.78059297857968 112.02048342749411 l -12.275710006189582 8.569398964004172 a35.9708935858999,35.9708935858999 0 0,0 -0.3491065375585808,-0.5093568714732442 l 12.421006280563487 -8.357407357460877" fill="#ffbb11" stroke="none" /><path d="M 82.576782715395 111.72311816256416 l -13.114492860700697 8.824016077899923 a36.806744849475045,36.806744849475045 0 0,0 -0.34821908021290987,-0.5272480696934392 l 13.264036379834332 -8.597588129867423" fill="#ffc512" stroke="none" /><path d="M 82.18462484594161 111.11811171558189 l -12.788648665055607 7.981062611360463 a36.07471044778919,36.07471044778919 0 0,0 -0.3233531513937733,-0.5281730718689922 l 12.923769780904786 -7.760352423366914" fill="#ffbc11" stroke="none" /><path d="M 81.99639281039703 110.81064883170644 l -26.968631866886142 16.193888564334056 a52.457099860058555,52.457099860058555 0 0,0 -0.45694203117869864,-0.7759874660112053 l 27.24264760819461 -15.728549930029292" fill="#80ff26" stroke="none" /><line stroke="#e1ed5e" stroke-width="0.3" x1="26.387840678322732" x2="22.057713659400548" y1="142.50000000000003" y2="145.00000000000006" /><path d="M 25.521815274538298 143.00000000000003 a86.0,86.0 0 0,1 -11.493303480769221,-40.785679425670985" fill="none" id="id93" stroke="none" /><text fill="#e1ed5e" style="font-size:6.75px; font-family:Arial;" text-anchor="middle"><textPath startOffset="21.40746469413373" xlink:href="#id93">September</textPath></text><path d="M 81.63589988554817 110.18625677009913 l -13.34397302945938 7.401676900268207 a36.25930657490383,36.25930657490383 0 0,0 -0.2972480117425309,-0.5469028618649484 l 13.46906639081724 -7.171519204928671" fill="#ffbe11" stroke="none" /><path d="M 81.4637452351635 109.86951160357371 l -16.013132129860303 8.526090915896484 a39.141516665221154,39.141516665221154 0 0,0 -0.31069404743690093,-0.5957968025059834 l 16.157134246272154 -8.249947870285997" fill="#ffe315" stroke="none" /><path d="M 81.29705330413844 109.54985784667822 l -14.240310951210288 7.271204237920696 a36.98927349996602,36.98927349996602 0 0,0 -0.2839016339504438,-0.567993446065968 l 14.363032498372469 -7.025678935690975" fill="#ffc812" stroke="none" /><path d="M 80.9802524753101 108.90220220490708 l -13.586858721028301 6.359335922156051 a36.001462704550086,36.001462704550086 0 0,0 -0.2571799377916105,-0.5619845776637373 l 13.694023123674969 -6.125162362277625" fill="#ffbb11" stroke="none" /><path d="M 80.83023694016515 108.57439118712176 l -28.530529201910696 12.761342818333764 a52.25448715093751,52.25448715093751 0 0,0 -0.3592274979607178,-0.8219828157316748 l 28.74539058188838 -12.26969793282624" fill="#82ff25" stroke="none" /><path d="M 80.68587082218212 108.24405325689762 l -13.838169917150735 5.906691869184146 a36.04606112886099,36.04606112886099 0 0,0 -0.23803128975385784,-0.5711884431608213 l 13.937527051441078 -5.668270916582044" fill="#ffbc11" stroke="none" /><path d="M 80.5471966667186 107.91128576633889 l -16.879202290329914 6.864624627041683 a39.22170522283976,39.22170522283976 0 0,0 -0.2482945458291617,-0.6258644534915713 l 16.9945555111252 -6.573859156336546" fill="#ffe415" stroke="none" /><path d="M 80.41425534168474 107.57618678355246 l -19.44603897839146 7.522145625338109 a41.850206396050694,41.850206396050694 0 0,0 -0.2534315299814517,-0.6722572427528465 l 19.57230119218735 -7.187220102391119" fill="#faff18" stroke="none" /><path d="M 80.28708602549918 107.23885506374661 l -17.16728197395876 6.30406373247028 a39.28815982860103,39.28815982860103 0 0,0 -0.2270478283850191,-0.6350931852347322 l 17.272969972387724 -6.008435590854626" fill="#ffe515" stroke="none" /><path d="M 80.16572619554312 106.89939002012753 l -14.381844223732996 5.002751978040934 a36.22711301033504,36.22711301033504 0 0,0 -0.19927427081138377,-0.5891189729364157 l 14.465603916116747 -4.755131330630357" fill="#ffbe11" stroke="none" /><path d="M 79.94057633289273 106.21446072829308 l -29.780843299001315 9.226181380303974 a52.177252131352745,52.177252131352745 0 0,0 -0.25771507634106494,-0.8578496718534229 l 29.934834695346012 -8.713594104859828" fill="#83ff25" stroke="none" /><path d="M 79.83685265289637 105.86919833188381 l -14.85341661303618 4.323613100041642 a36.46989383671623,36.46989383671623 0 0,0 -0.16981339110639404,-0.6026078179733099 l 14.925448496217147 -4.067997358165337" fill="#ffc111" stroke="none" /><path d="M 79.64726062577567 105.17358676015961 l -15.769536066581438 4.008554401833901 a37.27104102839381,37.27104102839381 0 0,0 -0.15230096285519903,-0.6214399012802209 l 15.83602455595293 -3.737258675945581" fill="#ffcb12" stroke="none" /><path d="M 79.56144815229197 104.8234425847677 l -19.270277330866158 4.547732979839607 a40.79963291741579,40.79963291741579 0 0,0 -0.15501750282114665,-0.6830357200787862 l 19.345505695244974 -4.216262925821795" fill="#fff817" stroke="none" /><path d="M 79.48165901384964 104.47187691870673 l -19.920644690883552 4.341611793031886 a41.388273047559,41.388273047559 0 0,0 -0.14533647616919812,-0.6954876508662416 l 19.992238877877117 -3.9990076908802354" fill="#ffff18" stroke="none" /><path d="M 79.407916724674 104.11899336999214 l -17.907288455135742 3.581959213889843 a39.2620210170016,39.2620210170016 0 0,0 -0.12652412070077995,-0.6620276635108744 l 17.96613886811868 -3.274028985345654" fill="#ffe415" stroke="none" /><path d="M 79.34024301695615 103.76489593502545 l -31.16433976520406 5.679180843998599 a52.677581474284295,52.677581474284295 0 0,0 -0.15448373662673784,-0.8910211404075666 l 31.257238319323033 -5.1433666706704395" fill="#7dff26" stroke="none" /><path d="M 79.2786578344484 103.40968896794605 l -16.662483507864344 2.7418053204004704 a37.886558354644905,37.886558354644905 0 0,0 -0.10008998693010254,-0.6426495158032511 l 16.707094986932717 -2.455367622665769" fill="#ffd313" stroke="none" /><path d="M 79.22317932658666 103.0534771498775 l -16.187390778126968 2.3789890009686503 a37.36127161532745,37.36127161532745 0 0,0 -0.08780874393745247,-0.6353403292545574 l 16.225844038619634 -2.1007603635140075" fill="#ffcc13" stroke="none" /><path d="M 79.17382384314188 102.69636545807758 l -20.77398952534088 2.6896088538149128 a41.947377797363856,41.947377797363856 0 0,0 -0.08632753120380328,-0.7149157976266446 l 20.817099142804345 -2.332599379264869" fill="#f8ff18" stroke="none" /><path d="M 79.13060592940153 102.33845913500099 l -15.367224090507909 1.7219295123035094 a36.46339605304179,36.46339605304179 0 0,0 -0.06436242160379618,-0.6226480441346283 l 15.394518904593372 -1.4578769458859497" fill="#ffc111" stroke="none" /><path d="M 79.06263194458094 101.62068470465958 l -27.01023397434066 2.0907629342724547 a48.09103226154282,48.09103226154282 0 0,0 -0.05664674483969443,-0.8236312377175952 l 27.04214468034542 -1.626788272400516" fill="#b0ff20" stroke="none" /><path d="M 79.03789590574601 101.26102812881392 l -17.758974183830045 1.0683357874760553 a38.7910793775067,38.7910793775067 0 0,0 -0.03428098935764032,-0.6650420352983152 l 17.774696762644258 -0.7633219588010094" fill="#ffdf14" stroke="none" /><path d="M 79.01933749520258 100.90099992219065 l -31.482428178179294 1.351990926522276 a52.5114449598811,52.5114449598811 0 0,0 -0.030945027029824292,-0.9009306979871992 l 31.500997892205966 -0.811353963970957" fill="#7fff26" stroke="none" /><path d="M 79.00696218219943 100.54070618675478 l -9.4098050231708 0.24236319852052812 a30.412925713830294,30.412925713830294 0 0,0 -0.008962498622129885,-0.5220206127597257 l 9.412578953391597 -0.0807956697917501" fill="#ff710a" stroke="none" /><line stroke="#e1ed5e" stroke-width="0.3" x1="15.003131293944662" x2="10.003315487706104" y1="100.72959589197737" y2="100.7725132973878" /><path d="M 14.003168132696942 100.73817937305945 a86.0,86.0 0 0,1 10.791469493833604,-42.45332614584628" fill="none" id="id94" stroke="none" /><text fill="#e1ed5e" style="font-size:6.75px; font-family:Arial;" text-anchor="middle"><textPath startOffset="22.145653131862435" xlink:href="#id94">October</textPath></text><path d="M 79.00077361379809 100.18025310272382 l -33.3225082925898 0.2860336566601472 a54.32373589744191,54.32373589744191 0 0,0 0.0,-0.9325735187679172 l 33.3225082925898 0.2860336566601349" fill="#6cff28" stroke="none" /><path d="M 79.00077361379809 99.81974689727619 l -18.20493776865573 -0.1562674956373788 a39.20560844055536,39.20560844055536 0 0,0 0.01155364712144254,-0.6729420225575204 l 18.199572689935618 0.46875643416395163" fill="#ffe415" stroke="none" /><path d="M 79.01933749520258 99.09900007780938 l -31.241051239747573 -1.341625162204934 a52.269845548713455,52.269845548713455 0 0,0 0.046192631082603984,-0.8961247025418837 l 31.2134170192084 1.8777216581235299" fill="#82ff25" stroke="none" /><path d="M 79.03789590574601 98.7389718711861 l -15.792666740352184 -0.9500476144485408 a36.82121718584084,36.82121718584084 0 0,0 0.04337195515517052,-0.6306187091204494 l 15.77403082403195 1.2210097477233153" fill="#ffc612" stroke="none" /><path d="M 79.06263194458094 98.37931529534042 l -33.11981085043234 -2.5636828241466354 a54.21888529724079,54.21888529724079 0 0,0 0.07979568218591959,-0.9273467825486216 l 33.07092154554868 3.131850654070938" fill="#6dff28" stroke="none" /><path d="M 79.0935383218832 98.0201363427161 l -22.18739025018106 -2.101168924834805 a43.28665961880607,43.28665961880607 0 0,0 0.07640632902522469,-0.739161923084891 l 22.148051528674173 2.481735370202609" fill="#e8ff1a" stroke="none" /><path d="M 79.13060592940154 97.66154086499901 l -17.718441222939337 -1.9853882961620868 a38.82932769504485,38.82932769504485 0 0,0 0.07991059690092954,-0.6617743763270708 l 17.681748539778738 2.289256349412594" fill="#ffdf14" stroke="none" /><path d="M 79.17382384314186 97.30363454192245 l -22.15388412446783 -2.8682638361241777 a43.33878956510324,43.33878956510324 0 0,0 0.10185747194751346,-0.7369899267693001 l 22.101382135965107 3.248142071093545" fill="#e8ff1a" stroke="none" /><path d="M 79.22317932658666 96.9465228501225 l -17.7926733595576 -2.6149102594972478 a38.98379773421439,38.98379773421439 0 0,0 0.10298871090846674,-0.6612614031486251 l 17.745163156510866 2.919959844577323" fill="#ffe115" stroke="none" /><path d="M 79.2786578344484 96.59031103205396 l -17.572050986579235 -2.89147430289198 a38.808357575004635,38.808357575004635 0 0,0 0.11381046590872815,-0.6564285234071685 l 17.519825703178274 3.192695859219741" fill="#ffdf14" stroke="none" /><path d="M 79.34024301695615 96.23510406497455 l -15.37964366127165 -2.8026833979695045 a36.63292913618389,36.63292913618389 0 0,0 0.11805172091478483,-0.6176964877351939 l 15.329265648074706 3.066282450738013" fill="#ffc312" stroke="none" /><path d="M 79.407916724674 95.88100663000787 l -14.697177261127479 -2.939847070680847 a35.98831946029952,35.98831946029952 0 0,0 0.12637433621840355,-0.6047469468297555 l 14.644545214084708 3.1917104687960114" fill="#ffbb11" stroke="none" /><path d="M 79.48165901384962 95.52812308129327 l -19.107571875925355 -4.164406357324689 a40.55611370652615,40.55611370652615 0 0,0 0.15409225577205843,-0.6789589108609612 l 19.033268758595636 4.491799602124658" fill="#fff517" stroke="none" /><path d="M 79.56144815229197 95.17655741523228 l -21.625846458180668 -5.103640880003643 a43.21990965924141,43.21990965924141 0 0,0 0.1766098738857924,-0.720628553721273 l 21.53504905777858 5.474125258333033" fill="#e9ff1a" stroke="none" /><path d="M 79.64726062577567 94.8264132398404 l -17.454119834086104 -4.436769008020001 a39.00919816130537,39.00919816130537 0 0,0 0.17054546364670423,-0.6475889041817322 l 17.375384889634674 4.7357384165745176" fill="#ffe115" stroke="none" /><path d="M 79.73907114497095 94.47779374421319 l -14.421070779863664 -3.930526968705124 a35.94711760472754,35.94711760472754 0 0,0 0.16737920785536176,-0.5939697603508073 l 14.35147307993372 4.177504652958945" fill="#ffba11" stroke="none" /><path d="M 79.83685265289637 94.1308016681162 l -14.383376270597008 -4.186791206798945 a35.98034490760817,35.98034490760817 0 0,0 0.177714941969323,-0.5915552431634813 l 14.309385008624055 4.4330840535531495" fill="#ffbb11" stroke="none" /><path d="M 79.94057633289273 93.78553927170692 l -15.027252322394641 -4.655481182383316 a36.73187266031734,36.73187266031734 0 0,0 0.19176710948321374,-0.6007077391455969 l 14.945120497134171 4.912757955220305" fill="#ffc412" stroke="none" /><path d="M 80.05021161711548 93.44210830539832 l -35.23408712871378 -11.582144277104119 a58.088906182974036,58.088906182974036 0 0,0 0.31952930995469936,-0.9446316282434835 l 35.030072397186714 12.185277579821763" fill="#45ff2d" stroke="none" /><path d="M 80.28708602549916 92.7611449362534 l -22.281465442682563 -8.182062741007918 a44.736256085812,44.736256085812 0 0,0 0.2709085283397614,-0.7186170572905768 l 22.137726230528365 8.56334807849264" fill="#d7ff1c" stroke="none" /><path d="M 80.41425534168474 92.42381321644754 l -13.853450283052021 -5.358812175492128 a35.85378580285837,35.85378580285837 0 0,0 0.22697379962440462,-0.5721222453133298 l 13.759417808461485 5.59583543801904" fill="#ffb911" stroke="none" /><path d="M 80.5471966667186 92.08871423366112 l -13.825764185454654 -5.622817931953793 a35.925409100178854,35.925409100178854 0 0,0 0.23723456031661005,-0.5692765825505953 l 13.727203780601565 5.859327023945652" fill="#ffba11" stroke="none" /><path d="M 80.9802524753101 91.09779779509293 l -25.054829283028727 -11.72692519695185 a48.66342793249994,48.66342793249994 0 0,0 0.3606208935747775,-0.7535589700145525 l 24.849829131494044 12.15529666903149" fill="#aaff21" stroke="none" /><path d="M 81.1358732173502 90.77261029715801 l -19.990340007063164 -9.778277026166926 a43.25372766972882,43.25372766972882 0 0,0 0.331982837129642,-0.6641880607454868 l 19.81953725672178 10.119996943076183" fill="#e9ff1a" stroke="none" /><path d="M 81.46374523516351 90.13048839642627 l -8.436855607615044 -4.492150403273078 a30.558239785094948,30.558239785094948 0 0,0 0.2505115755511097,-0.4609130833072573 l 8.358498682448584 4.636318320054955" fill="#ff730a" stroke="none" /><line stroke="#e1ed5e" stroke-width="0.3" x1="26.387840678322718" x2="22.05771365940052" y1="57.49999999999999" y2="54.99999999999999" /><path d="M 25.521815274538284 56.99999999999999 a86.0,86.0 0 0,1 29.574782752854787,-30.34633250058573" fill="none" id="id95" stroke="none" /><text fill="#e1ed5e" style="font-size:6.75px; font-family:Arial;" text-anchor="middle"><textPath startOffset="21.40746469413373" xlink:href="#id95">November</textPath></text><path d="M 81.81346652052679 89.5 l -16.170146390078052 -9.33583837114722 a39.67167674229444,39.67167674229444 0 0,0 0.34557107806660203,-0.5868552396108956 l 16.00750160188167 9.61204477905169" fill="#ffea16" stroke="none" /><path d="M 82.18462484594161 88.88188828441811 l -52.90290324593399 -33.01532430726977 a83.3596729542647,83.3596729542647 0 0,0 0.7680296165953335,-1.2074701236164511 l 52.328355937712765 33.91860810556489" fill="#4cd8ff" stroke="none" /><path d="M 82.576782715395 88.27688183743585 l -13.578246695651108 -9.13605035473062 a37.36570192237821,37.36570192237821 0 0,0 0.3626435020419264,-0.529107707211529 l 13.419413456793869 9.367792797012184" fill="#ffcd13" stroke="none" /><path d="M 82.78059297857968 87.97951657250589 l -13.748659585136178 -9.59763216513805 a37.767235418078,37.767235418078 0 0,0 0.3756669166238364,-0.5284225642882908 l 13.58187756998237 9.83223195613586" fill="#ffd213" stroke="none" /><path d="M 83.2033758604659 87.39550010848427 l -14.466357173220082 -10.855824117139415 a39.08658085779183,39.08658085779183 0 0,0 0.40733433012898795,-0.5332137137465017 l 14.277870865736787 11.1025587441268" fill="#ffe215" stroke="none" /><path d="M 83.42222388311158 87.10902102172516 l -5.856335572776979 -4.553921963120417 a28.418549156483603,28.418549156483603 0 0,0 0.3027706399413483,-0.3825408128294346 l 5.7772985021940695 4.653782719864535" fill="#ff5507" stroke="none" /><path d="M 83.64595745247003 86.82634096563983 l -16.14066911291791 -13.001780499349614 a41.72601012172797,41.72601012172797 0 0,0 0.45412439684771666,-0.5539579245601595 l 15.915097896831561 13.276940705608267" fill="#fbff18" stroke="none" /><path d="M 84.10781606972428 86.27271002978789 l -23.68701205574643 -20.460276853308493 a52.30011931356026,52.30011931356026 0 0,0 0.5927071309653749,-0.6743919132912481 l 23.332293860822464 20.86388104441104" fill="#82ff25" stroke="none" /><path d="M 84.34580500576568 86.00192230759919 l -16.569946705472322 -14.816948519395117 a43.228474919539536,43.228474919539536 0 0,0 0.4993965430752395,-0.5489242822375904 l 16.313152461555216 15.099210377190365" fill="#e9ff1a" stroke="none" /><path d="M 84.83555147118756 85.47280134310135 l -12.315313661167579 -11.797791903732994 a38.054466991868395,38.054466991868395 0 0,0 0.45595267477739077,-0.4678476115599047 l 12.110974185239385 12.00746220736063" fill="#ffd513" stroke="none" /><path d="M 85.08716467003674 85.21462403516908 l -23.580560154546625 -23.379018116412237 a54.205742052990225,54.205742052990225 0 0,0 0.6608146638531339,-0.6551667092112926 l 23.17575357056351 23.780364835852204" fill="#6dff28" stroke="none" /><path d="M 85.34317274990677 84.96080404539775 l -10.357733586296302 -10.627947126066069 a35.840347204804424,35.840347204804424 0 0,0 0.44429659493101253,-0.42562608754833087 l 10.173764505499989 10.804185343919967" fill="#ffb911" stroke="none" /><path d="M 85.60350026404147 84.71141617570332 l -12.255654539444004 -13.015080414297413 a38.877175011192975,38.877175011192975 0 0,0 0.48979728968470415,-0.45334905908321 l 12.030427478445345 13.223547219512989" fill="#ffe015" stroke="none" /><path d="M 86.13680546590413 84.22622945171909 l -20.63954021857099 -23.484008020593425 a52.26482453405593,52.26482453405593 0 0,0 0.6789960294992654,-0.5865005984358392 l 20.233364709308876 23.834852751493976" fill="#82ff25" stroke="none" /><path d="M 86.68645165197937 83.75963576809568 l -14.98751389438879 -18.282330015482923 a44.64041377661408,44.64041377661408 0 0,0 0.5967981799432137,-0.4807383686357112 l 14.67146494409033 18.536916677912036" fill="#d8ff1c" stroke="none" /><path d="M 87.25179093698888 83.31218511350988 l -26.909485801804887 -35.225380720661484 a65.3277325500988,65.3277325500988 0 0,0 0.8970026867647021,-0.6731275388489318 l 26.300830126129433 35.68212728677442" fill="#36ff6b" stroke="none" /><path d="M 87.83215693770416 82.88440491214696 l -10.38433921288559 -14.606873569351345 a38.92192111240556,38.92192111240556 0 0,0 0.5478814734178353,-0.3824638190651799 l 10.13206264829399 14.782982204221652" fill="#ffe015" stroke="none" /><path d="M 88.12776184653039 82.6780497279521 l -9.626457201659884 -14.045288747380654 a38.0275897957605,38.0275897957605 0 0,0 0.5416282506017627,-0.3644316591056827 l 9.383932662961131 14.208470080543446" fill="#ffd513" stroke="none" /><path d="M 88.4268655584334 82.4767994020092 l -9.385397592650156 -14.210688170805193 a38.03024797999095,38.03024797999095 0 0,0 0.5478426867988323,-0.3551050107354382 l 9.140069273594296 14.369707023244537" fill="#ffd513" stroke="none" /><line stroke="#e1ed5e" stroke-width="0.3" x1="56.869717070023135" x2="54.33264160355391" y1="26.7553504044142" y2="22.446841604673864" /><path d="M 56.362301976729285 25.89364864446614 a86.0,86.0 0 0,1 42.16139366436587,-11.88097634709845" fill="none" id="id96" stroke="none" /><text fill="#e1ed5e" style="font-size:6.75px; font-family:Arial;" text-anchor="middle"><textPath startOffset="22.145653131862474" xlink:href="#id96">December</textPath></text><path d="M 89.34428304082924 81.90426304109057 l -31.62425523253809 -53.70489910741389 a83.32423049785868,83.32423049785868 0 0,0 1.2387834462460798,-0.7152119561578226 l 30.69767931843161 54.239857960847885" fill="#4cd8ff" stroke="none" /><path d="M 90.28995756902619 81.37971332152246 l -7.197194788009828 -13.801569991712912 a36.56544079211078,36.56544079211078 0 0,0 0.559055603066215,-0.2854577743544931 l 6.959211963230031 13.92308571774024" fill="#ffc212" stroke="none" /><path d="M 90.61103034731259 81.2157712731953 l -6.678801978525392 -13.362077909128983 a35.93825699062603,35.93825699062603 0 0,0 0.5542017231333625,-0.2710878341870308 l 6.448440006129976 13.474759493413227" fill="#ffba11" stroke="none" /><path d="M 91.5904679813234 80.7573450057729 l -24.964959779040008 -57.12471358762029 a83.34165637225831,83.34165637225831 0 0,0 1.3158652395352184,-0.5616646245737824 l 23.98065946433436 57.54485286185348" fill="#4cd8ff" stroke="none" /><path d="M 92.25597844496254 80.48000691201159 l -2.8268482343264876 -7.125504184444162 a28.665760289915543,28.665760289915543 0 0,0 0.4589630345800539,-0.17753676142450142 l 2.704112937252904 7.172980834006704" fill="#ff5808" stroke="none" /><path d="M 92.592206182469 80.34994680014964 l -2.6669182959152056 -7.074317628869235 a28.560318982107653,28.560318982107653 0 0,0 0.46024389408399,-0.1690079329498382 l 2.545085250177088 7.1190564108277945" fill="#ff5708" stroke="none" /><path d="M 94.30408787586887 79.78721728523814 l -4.166919939944925 -14.78692885360538 a36.36282808298973,36.36282808298973 0 0,0 0.6022699010418404,-0.1641513397042393 l 3.912468637968406 14.856280687453758" fill="#ffc011" stroke="none" /><path d="M 94.6519064749342 79.69241777938228 l -0.7782062968070966 -2.9549760644505736 a24.05573044980509,24.05573044980509 0 0,0 0.4002354707980473,-0.10173829156823064 l 0.7273655327836712 2.9678995878540673" fill="#ff1702" stroke="none" /><path d="M 95.00130118170881 79.60360301121753 l -3.5302819008279207 -14.404754867030551 a35.831043559997845,35.831043559997845 0 0,0 0.5986648134832407,-0.14128326590226956 l 3.2824849336047737 14.463234276579053" fill="#ffb911" stroke="none" /><path d="M 96.05791012581881 79.37332000966035 l -2.8383690237454853 -14.851546112822078 a36.120342610411925,36.120342610411925 0 0,0 0.6100300445785487,-0.11116779529218014 l 2.583004245615898 14.898082082045619" fill="#ffbc11" stroke="none" /><path d="M 96.41257539226777 79.30868818359171 l -5.349413195548978 -30.8539937606892 a52.31429629612266,52.31429629612266 0 0,0 0.8861605764037208,-0.14581738562358545 l 4.818975116092184 30.941277144808453" fill="#81ff25" stroke="none" /><path d="M 96.76829788921471 79.25015418208739 l -0.47699776799212856 -3.0626678456202185 a24.099590489607532,24.099590489607532 0 0,0 0.40931994727518134,-0.060155936542934836 l 0.4243527151092623 3.070404855462038" fill="#ff1702" stroke="none" /><path d="M 97.48249496171623 79.15144685158666 l -2.045642872728194 -16.940857518132706 a38.063918313576664,38.063918313576664 0 0,0 0.6493778750549699,-0.07276414537253903 l 1.7545290960724247 16.973477424012216" fill="#ffd513" stroke="none" /><path d="M 98.5590905019552 79.04949213459386 l -1.14198816884378 -16.60425734303705 a37.64348217446034,37.64348217446034 0 0,0 0.6450580793276058,-0.038805092231830984 l 0.8567857373836905 16.621414413093575" fill="#ffd013" stroke="none" /><path d="M 99.27912038922189 79.0123766808444 l -0.40687460665668046 -11.845710233672314 a32.852695806679215,32.852695806679215 0 0,0 0.5637940078862425,-0.014521333728123071 l 0.20346728469969413 11.850949284750483" fill="#ff920d" stroke="none" /></svg>