<?xml version="1.0" encoding="utf-8" ?>
<svg baseProfile="full" height="200mm" version="1.1" viewBox="0,0,200,200" width="200mm" xmlns="http://www.w3.org/2000/svg" xmlns:ev="http://www.w3.org/2001/xml-events" xmlns:xlink="http://www.w3.org/1999/xlink"><defs /><rect fill="#1a1a1a" height="200" width="200" x="0" y="0" /><rect fill="#1a1a1a" height="200" width="180" x="10" y="0" /><text alignment-baseline="middle" fill="#e1ed5e" style="dominant-baseline: central; font-size:9.0px; font-family:Arial;" text-anchor="middle" x="100.0" y="100.0">2018</text><line stroke="#e1ed5e" stroke-width="0.3" x1="100.0" x2="100.0" y1="15.0" y2="10.0" /><path d="M 100.0 14.0 a86.0,86.0 0 0,1 42.46469731375804,11.215312516191453" fill="none" id="id13" stroke="none" /><text fill="#e1ed5e" style="font-size:6.75px; font-family:Arial;" text-anchor="middle"><textPath startOffset="22.20632615414155" xlink:href="#id13">January</textPath></text><path d="M 100.0 79.0 l 0.0 -22.16753438136638 a43.16753438136638,43.16753438136638 0 0,0 0.7430581436756983,0.006395736034444957 l -0.38157766440317 22.164250021940493" fill="#ffca12" stroke="none" /><line stroke="#e1ed5e" stroke-width="0.3" x1="143.23703022742887" x2="145.7803849466894" y1="26.81831364943548" y2="22.513508569990506" /><path d="M 143.74570117128098 25.957352633546492 a86.0,86.0 0 0,1 28.547481713284135,27.462654790039103" fill="none" id="id14" stroke="none" /><text fill="#e1ed5e" style="font-size:6.75px; font-family:Arial;" text-anchor="middle"><textPath startOffset="19.985693538727396" xlink:href="#id14">February</textPath></text><path d="M 117.45458315368197 88.32363383020206 l 16.994651513083998 -11.36869166382929 a41.44664594006532,41.44664594006532 0 0,0 0.39157876226846483,0.5964013196095628 l -17.18782691071039 11.074472280242054" fill="#ffb010" stroke="none" /><line stroke="#e1ed5e" stroke-width="0.3" x1="172.23445277983987" x2="176.4835382374775" y1="55.19839476539836" y2="52.563006222186495" /><path d="M 173.08426987136738 54.67131705675599 a86.0,86.0 0 0,1 12.851231095245387,41.99856678651699" fill="none" id="id15" stroke="none" /><text fill="#e1ed5e" style="font-size:6.75px; font-family:Arial;" text-anchor="middle"><textPath startOffset="22.20632615414155" xlink:href="#id15">March</textPath></text><path d="M 119.61058180528143 92.48833698450437 l 17.95345416861193 -6.876914668714124 a40.22546415422069,40.22546415422069 0 0,0 0.2421101949755165,0.6487349529185936 l -18.069168952089072 6.566856578766197" fill="#ff9e0e" stroke="none" /><path d="M 119.7369772167798 92.82701384747503 l 40.4639534570678 -14.705766472547896 a64.05335175013512,64.05335175013512 0 0,0 0.36768734368020867,1.0395016338941434 l -40.711093881557815 14.007067212227138" fill="#30ff39" stroke="none" /><path d="M 120.37134235888165 94.90015583598534 l 16.997214382426165 -4.255151331985206 a38.52174676281592,38.52174676281592 0 0,0 0.15549431438789285,0.6446243197490467 l -17.067941497074877 3.9619417805767534" fill="#ff840c" stroke="none" /><path d="M 120.45610955862082 95.25157060432595 l 24.854472203140126 -5.7694111426782575 a46.51530704165492,46.51530704165492 0 0,0 0.17433408354770896,0.7815055130658164 l -24.95010067368987 5.340727460062477" fill="#fffa17" stroke="none" /><path d="M 120.6074358757038 95.95851677861258 l 14.79007084194604 -2.900594887757473 a36.071816287782546,36.071816287782546 0 0,0 0.11425194036373347,0.6103384339424827 l -14.837808506219634 2.645578376352428" fill="#ff5d08" stroke="none" /><path d="M 120.78858239683441 97.02765380044208 l 12.31676617964329 -1.7610480813968783 a33.44202634095413,33.44202634095413 0 0,0 0.07657268695649072,0.5705554591502006 l -12.345254865657617 1.5487742801820135" fill="#ff3304" stroke="none" /><path d="M 120.83666639777658 97.38593545837742 l 21.436636562822564 -2.6893338147653054 a42.60467318646087,42.60467318646087 0 0,0 0.08502603874485885,0.7284511754391441 l -21.479752954571012 2.3199389010013087" fill="#ffc112" stroke="none" /><path d="M 120.91429891909075 98.10471618934814 l 24.470915209689277 -2.2175894878514475 a45.57119033210299,45.57119033210299 0 0,0 0.0640720436912091,0.7818412215682183 l -24.50546173719998 1.7960343490754604" fill="#ffec16" stroke="none" /><line stroke="#e1ed5e" stroke-width="0.3" x1="184.98032266829074" x2="189.97916517819016" y1="98.17113171792111" y2="98.06355123074" /><path d="M 185.9800911702706 98.14961562048488 a86.0,86.0 0 0,1 -9.607161424134198,41.387399972396054" fill="none" id="id16" stroke="none" /><text fill="#e1ed5e" style="font-size:6.75px; font-family:Arial;" text-anchor="middle"><textPath startOffset="21.466115282336823" xlink:href="#id16">April</textPath></text><path d="M 120.32669344350535 105.2749913415812 l 10.528669242954129 2.7323007182312145 a31.877423557183707,31.877423557183707 0 0,0 -0.14240392500796906,0.5299379805150571 l -10.480077241604382 -2.91312963192182" fill="#ff1902" stroke="none" /><path d="M 119.67450827220406 107.3425965602758 l 13.449474913748448 5.019391939707261 a35.35557978278645,35.35557978278645 0 0,0 -0.21769898639059285,0.5683433578866315 l -13.361081647764347 -5.2501588644270365" fill="#ff5207" stroke="none" /><line stroke="#e1ed5e" stroke-width="0.3" x1="174.80103733775053" x2="179.2010983576182" y1="140.37084112569926" y2="142.7455964860345" /><path d="M 175.68104954172406 140.8457921977663 a86.0,86.0 0 0,1 -30.038265399797805,32.042727171017184" fill="none" id="id17" stroke="none" /><text fill="#e1ed5e" style="font-size:6.75px; font-family:Arial;" text-anchor="middle"><textPath startOffset="22.206326154141568" xlink:href="#id17">May</textPath></text><line stroke="#e1ed5e" stroke-width="0.3" x1="143.8653032363475" x2="146.44561519142675" y1="172.8068346515853" y2="177.08958963109032" /><path d="M 144.38136562736335 173.6633856474863 a86.0,86.0 0 0,1 -40.68145358897372,12.25698825130547" fill="none" id="id18" stroke="none" /><text fill="#e1ed5e" style="font-size:6.75px; font-family:Arial;" text-anchor="middle"><textPath startOffset="21.466115282336833" xlink:href="#id18">June</textPath></text><path d="M 107.2578585660854 119.70592522655815 l 6.470242992604155 17.567457873278563 a39.721100942860176,39.721100942860176 0 0,0 -0.6436339848146245,0.2307842475542061 l -6.166889447159796 -17.67622966187273" fill="#ff960d" stroke="none" /><path d="M 106.91757812671514 119.82793768551818 l 5.448157205370208 15.61611876153601 a37.539213467055326,37.539213467055326 0 0,0 -0.6119432843573093,0.20760438696464573 l -5.178544188075672 -15.707586135398778" fill="#ff740a" stroke="none" /><path d="M 103.41894727170886 120.7198165907248 l 4.163831718111502 25.23403336103262 a46.57526019891994,46.57526019891994 0 0,0 -0.7921434564836117,0.12371651664974903 l -3.728852398019373 -25.301968185029473" fill="#fffb17" stroke="none" /><path d="M 102.70371172650421 120.8252237178851 l 2.1504893089661263 16.56405175267859 a37.70306602793009,37.70306602793009 0 0,0 -0.6443141173479634,0.07801746665128027 l -1.8650477685667826 -16.598614748055223" fill="#ff770a" stroke="none" /><path d="M 102.34483914955558 120.86867818915974 l 2.732675841694824 24.320360203141767 a45.47340265811733,45.47340265811733 0 0,0 -0.7786073008231968,0.08070583026350606 l -2.3136359442660246 -24.36379540186103" fill="#ffeb16" stroke="none" /><line stroke="#e1ed5e" stroke-width="0.3" x1="102.19456741930631" x2="102.32365962044197" y1="184.97166512339345" y2="189.96999836594603" /><path d="M 102.22038585953345 185.97133177190398 a86.0,86.0 0 0,1 -42.740103519485714,-10.115201625700543" fill="none" id="id19" stroke="none" /><text fill="#e1ed5e" style="font-size:6.75px; font-family:Arial;" text-anchor="middle"><textPath startOffset="22.20632615414155" xlink:href="#id19">July</textPath></text><line stroke="#e1ed5e" stroke-width="0.3" x1="58.666819895761336" x2="56.23545636021788" y1="174.27360380694188" y2="178.64263932499728" /><path d="M 58.180547188652646 175.14741091055294 a86.0,86.0 0 0,1 -31.652253787137756,-30.449443065178592" fill="none" id="id20" stroke="none" /><text fill="#e1ed5e" style="font-size:6.75px; font-family:Arial;" text-anchor="middle"><textPath startOffset="22.20632615414155" xlink:href="#id20">August</textPath></text><line stroke="#e1ed5e" stroke-width="0.3" x1="26.63291911575756" x2="22.317208475507996" y1="142.92168965132927" y2="145.44649492493687" /><path d="M 25.769776987707644 143.4266507060508 a86.0,86.0 0 0,1 -11.730757126820373,-40.83630448921669" fill="none" id="id21" stroke="none" /><text fill="#e1ed5e" style="font-size:6.75px; font-family:Arial;" text-anchor="middle"><textPath startOffset="21.46611528233685" xlink:href="#id21">September</textPath></text><path d="M 79.0095281055655 100.63252640178507 l -14.821783259866296 0.4466392790286561 a35.82851124179444,35.82851124179444 0 0,0 -0.013270091168008705,-0.6166089927553509 l 14.827275413719311 -0.1914404704831764" fill="#ff5908" stroke="none" /><line stroke="#e1ed5e" stroke-width="0.3" x1="15.007084014347285" x2="10.007500721073583" y1="101.09737516637583" y2="101.16192664675087" /><path d="M 14.007167355692545 101.11028546245083 a86.0,86.0 0 0,1 10.666146001902534,-42.60595125391555" fill="none" id="id22" stroke="none" /><text fill="#e1ed5e" style="font-size:6.75px; font-family:Arial;" text-anchor="middle"><textPath startOffset="22.20632615414155" xlink:href="#id22">October</textPath></text><path d="M 79.00019446554 99.90962569577889 l -20.777069006333008 -0.08941574016579734 a41.777261409254905,41.777261409254905 0 0,0 0.009284484839920448,-0.7190935827131009 l 20.772451514375373 0.44704558093937014" fill="#ffb510" stroke="none" /><path d="M 79.00486145842228 99.54816195383935 l -62.888814457880535 -1.353435177088045 a83.90337646499036,83.90337646499036 0 0,0 0.04350312376923115,-1.4436568880304839 l 62.85619963965566 2.435762212543523" fill="#4dd3ff" stroke="none" /><path d="M 79.12142395522702 97.74499172005258 l -26.428250072186582 -2.854405521214741 a47.58194937843294,47.58194937843294 0 0,0 0.09495917627862983,-0.8135522317636095 l 26.375200542904363 3.3089014913032124" fill="#f5ff19" stroke="none" /><path d="M 79.16333360222342 97.38593545837743 l -14.477540939153345 -1.816280286704985 a35.59102689068642,35.59102689068642 0 0,0 0.08149328431163935,-0.6072196248579248 l 14.444131655783872 2.0652182536275694" fill="#ff5507" stroke="none" /><path d="M 79.32604984820605 96.31383870115002 l -28.825523787538163 -5.139585295724564 a50.28013249010251,50.28013249010251 0 0,0 0.15925460068073405,-0.8507444448485613 l 28.732783462947566 5.635007818035699" fill="#d0ff1d" stroke="none" /><path d="M 79.46518482838121 95.60439243477599 l -9.195602342488021 -1.9683770652728771 a30.403914648286822,30.403914648286822 0 0,0 0.1139504161871973,-0.5108173723359697 l 9.160357539298786 2.1263726071588063" fill="#ff0000" stroke="none" /><path d="M 80.02781315780177 93.51064311812611 l -15.695681511999771 -5.099836069047406 a37.503416193542726,37.503416193542726 0 0,0 0.2047734854073878,-0.6122466573069042 l 15.60557073282061 5.369255829276632" fill="#ff740a" stroke="none" /><path d="M 80.95270993114464 91.15688171328213 l -27.84329481657039 -12.92685461631588 a51.697762728150444,51.697762728150444 0 0,0 0.3816816432244297,-0.8039188815854161 l 27.616654979504208 13.40421591354183" fill="#bdff1f" stroke="none" /><path d="M 81.43458229118936 90.18545643968196 l -25.836213303940333 -13.658224386993096 a50.22425381925356,50.22425381925356 0 0,0 0.41062369540769383,-0.760823344659107 l 25.59728150931417 14.100928714984676" fill="#d1ff1c" stroke="none" /><line stroke="#e1ed5e" stroke-width="0.3" x1="26.266209847984243" x2="21.928928074336255" y1="57.711370442889674" y2="55.22380399835377" /><path d="M 25.398753493254645 57.213857153982495 a86.0,86.0 0 0,1 29.58750427330803,-30.492523968695096" fill="none" id="id23" stroke="none" /><text fill="#e1ed5e" style="font-size:6.75px; font-family:Arial;" text-anchor="middle"><textPath startOffset="21.46611528233685" xlink:href="#id23">November</textPath></text><path d="M 87.51073957382395 83.11751280151077 l -37.467781278528136 -50.64746159546771 a84.0,84.0 0 0,0 1.1698187345848732,-0.8499230607333286 l 36.59041722758948 51.284903891017706" fill="#4dd2ff" stroke="none" /><line stroke="#e1ed5e" stroke-width="0.3" x1="56.762969772571076" x2="54.21961505331055" y1="26.818313649435495" y2="22.513508569990535" /><path d="M 56.25429882871897 25.957352633546506 a86.0,86.0 0 0,1 42.265352541879196,-11.944610805530505" fill="none" id="id24" stroke="none" /><text fill="#e1ed5e" style="font-size:6.75px; font-family:Arial;" text-anchor="middle"><textPath startOffset="22.20632615414155" xlink:href="#id24">December</textPath></text></svg>