<?xml version="1.0" encoding="utf-8" ?>
<svg baseProfile="full" height="200mm" version="1.1" viewBox="0,0,200,200" width="200mm" xmlns="http://www.w3.org/2000/svg" xmlns:ev="http://www.w3.org/2001/xml-events" xmlns:xlink="http://www.w3.org/1999/xlink"><defs /><rect fill="#1a1a1a" height="200" width="200" x="0" y="0" /><rect fill="#1a1a1a" height="200" width="180" x="10" y="0" /><text alignment-baseline="middle" fill="#e1ed5e" style="dominant-baseline: central; font-size:9.0px; font-family:Arial;" text-anchor="middle" x="100.0" y="100.0">2020</text><line stroke="#e1ed5e" stroke-width="0.3" x1="100.0" x2="100.0" y1="15.0" y2="10.0" /><path d="M 100.0 14.0 a86.0,86.0 0 0,1 42.35913384403234,11.155469271406648" fill="none" id="id37" stroke="none" /><text fill="#e1ed5e" style="font-size:6.75px; font-family:Arial;" text-anchor="middle"><textPath startOffset="22.145653131862478" xlink:href="#id37">January</textPath></text><path d="M 101.08105385017728 79.02784411241856 l 3.2431615505318314 -62.916467662744324 a84.0,84.0 0 0,0 1.4394225914701506,0.08659208870123303 l -4.322728494134444 62.8515235962184" fill="#4dd2ff" stroke="none" /><line stroke="#e1ed5e" stroke-width="0.3" x1="143.13028292997686" x2="145.6673583964461" y1="26.7553504044142" y2="22.446841604673864" /><path d="M 143.63769802327073 25.89364864446614 a86.0,86.0 0 0,1 29.32050498858742,28.57503671076993" fill="none" id="id38" stroke="none" /><text fill="#e1ed5e" style="font-size:6.75px; font-family:Arial;" text-anchor="middle"><textPath startOffset="20.669276256404974" xlink:href="#id38">February</textPath></text><line stroke="#e1ed5e" stroke-width="0.3" x1="172.87174338648825" x2="177.1583165268699" y1="56.24261187166439" y2="53.66864786411523" /><path d="M 173.72905801456457 55.72781907015455 a86.0,86.0 0 0,1 12.242430191666344,42.057860355516425" fill="none" id="id39" stroke="none" /><text fill="#e1ed5e" style="font-size:6.75px; font-family:Arial;" text-anchor="middle"><textPath startOffset="22.145653131862474" xlink:href="#id39">March</textPath></text><path d="M 120.592083275326 95.88100663000786 l 5.1922185307188125 -1.03858912270461 a26.295073241848517,26.295073241848517 0 0,0 0.08473738576133968,0.44338180891427076 l -5.20928220876231 0.9493047487570246" fill="#ff1902" stroke="none" /><line stroke="#e1ed5e" stroke-width="0.3" x1="184.99686870605535" x2="189.99668451229388" y1="99.2704041080226" y2="99.22748670261217" /><path d="M 185.99683186730306 99.26182062694052 a86.0,86.0 0 0,1 -10.086455211305974,41.156179273409016" fill="none" id="id40" stroke="none" /><text fill="#e1ed5e" style="font-size:6.75px; font-family:Arial;" text-anchor="middle"><textPath startOffset="21.40746469413373" xlink:href="#id40">April</textPath></text><line stroke="#e1ed5e" stroke-width="0.3" x1="174.33088141563837" x2="178.70328620479359" y1="141.23008692659167" y2="143.65538615756765" /><path d="M 175.20536237346943 141.71514677278685 a86.0,86.0 0 0,1 -30.301960400862466,31.631185727798858" fill="none" id="id41" stroke="none" /><text fill="#e1ed5e" style="font-size:6.75px; font-family:Arial;" text-anchor="middle"><textPath startOffset="22.145653131862474" xlink:href="#id41">May</textPath></text><path d="M 117.81537515405839 111.11811171558189 l 5.489689965436574 3.4259725541467927 a27.471011038344944,27.471011038344944 0 0,0 -0.2531026013842685,0.39791932860075185 l -5.4300696724264155 -3.5197055574262164" fill="#ff2b04" stroke="none" /><path d="M 114.91283532996324 114.78537596483092 l 6.7288419186515505 6.671330794841049 a30.47544026103256,30.47544026103256 0 0,0 -0.37152185449623376,0.36834647311106256 l -6.613328144025352 -6.7858572781807736" fill="#ff5708" stroke="none" /><path d="M 110.96478420261333 117.91015095944535 l 4.577790426793513 7.477476627860537 a29.76748663596603,29.76748663596603 0 0,0 -0.438102620894827,0.2630680361366333 l -4.4487550493412495 -7.5549586645330935" fill="#ff4d07" stroke="none" /><line stroke="#e1ed5e" stroke-width="0.3" x1="143.1302829299769" x2="145.66735839644613" y1="173.24464959558577" y2="177.55315839532614" /><path d="M 143.63769802327073 174.10635135553383 a86.0,86.0 0 0,1 -40.68552437913181,11.842963189579606" fill="none" id="id42" stroke="none" /><text fill="#e1ed5e" style="font-size:6.75px; font-family:Arial;" text-anchor="middle"><textPath startOffset="21.407464694133747" xlink:href="#id42">June</textPath></text><path d="M 106.72888874123015 119.89276391827305 l 3.9291895557837364 11.615950750444528 a33.26249739661676,33.26249739661676 0 0,0 -0.5424594784472703,0.1783172051799452 l -3.729207339688732 -11.681688877026492" fill="#ff7f0b" stroke="none" /><path d="M 105.69591212413111 120.21278271476187 l 2.7920553763495897 9.908019544516046 a31.293902297919608,31.293902297919608 0 0,0 -0.5183143455499487,0.141268879721156 l -2.621559629864946 -9.954488918381344" fill="#ff6309" stroke="none" /><path d="M 103.58742460773223 120.69131181640829 l 2.3826782141143354 13.74265476691584 a34.94767778214889,34.94767778214889 0 0,0 -0.5919845334839368,0.09741082970824375 l -2.1464161775773265 -13.781531595119754" fill="#ff960d" stroke="none" /><path d="M 101.80034050326958 120.92268563240118 l 1.1647948501263876 13.5366817727952 a34.586703075463404,34.586703075463404 0 0,0 -0.5919777835154407,0.04582282437325892 l -0.9322480718357112 -13.554682364163511" fill="#ff910d" stroke="none" /><line stroke="#e1ed5e" stroke-width="0.3" x1="101.45913802915013" x2="101.54496967792366" y1="184.9874750549273" y2="189.98673829345242" /><path d="M 101.47630435890484 185.9873277026323 a86.0,86.0 0 0,1 -42.54439059252881,-10.42667462771756" fill="none" id="id43" stroke="none" /><text fill="#e1ed5e" style="font-size:6.75px; font-family:Arial;" text-anchor="middle"><textPath startOffset="22.145653131862474" xlink:href="#id43">July</textPath></text><path d="M 96.05791012581884 120.62667999033965 l -1.8210534028039433 9.528520907392624 a30.70097655798024,30.70097655798024 0 0,0 -0.5168049100417945,-0.10337545597400614 l 1.9843547983766958 -9.495856054755755" fill="#ff5a08" stroke="none" /><path d="M 94.6519064749342 120.30758222061772 l -3.971064329993846 15.078778074233462 a36.59291185522875,36.59291185522875 0 0,0 -0.6060807303431357,-0.16518999817631266 l 4.229326461271677 -15.008387581913006" fill="#ffad10" stroke="none" /><path d="M 93.95794788825049 120.11202640906438 l -3.140334668258894 10.4531527721358 a31.914673825006364,31.914673825006364 0 0,0 -0.52333889907083,-0.16213172869950015 l 3.3193142002013576 -10.39770445562965" fill="#ff6c09" stroke="none" /><line stroke="#e1ed5e" stroke-width="0.3" x1="58.13341422392154" x2="55.67067388415222" y1="173.97424548756322" y2="178.32567169271397" /><path d="M 57.64086615596768 174.84453072859336 a86.0,86.0 0 0,1 -31.369924170532247,-30.572349798747897" fill="none" id="id44" stroke="none" /><text fill="#e1ed5e" style="font-size:6.75px; font-family:Arial;" text-anchor="middle"><textPath startOffset="22.145653131862474" xlink:href="#id44">August</textPath></text><path d="M 85.34317274990678 115.03919595460226 l -10.25730308777148 10.524896587135604 a35.696452456436724,35.696452456436724 0 0,0 -0.4351704881687833,-0.4314511046364721 l 10.436465496070225 -10.347265472270472" fill="#ffa00e" stroke="none" /><line stroke="#e1ed5e" stroke-width="0.3" x1="26.387840678322732" x2="22.057713659400548" y1="142.50000000000003" y2="145.00000000000006" /><path d="M 25.521815274538298 143.00000000000003 a86.0,86.0 0 0,1 -11.493303480769221,-40.785679425670985" fill="none" id="id45" stroke="none" /><text fill="#e1ed5e" style="font-size:6.75px; font-family:Arial;" text-anchor="middle"><textPath startOffset="21.40746469413373" xlink:href="#id45">September</textPath></text><path d="M 80.05021161711548 106.5578916946017 l -8.437052799217081 2.773426836265099 a29.881202415939647,29.881202415939647 0 0,0 -0.15600162475185345,-0.4886728676271083 l 8.48341913974619 -2.6281849349465993" fill="#ff4e07" stroke="none" /><line stroke="#e1ed5e" stroke-width="0.3" x1="15.003131293944662" x2="10.003315487706104" y1="100.72959589197737" y2="100.7725132973878" /><path d="M 14.003168132696942 100.73817937305945 a86.0,86.0 0 0,1 10.791469493833604,-42.45332614584628" fill="none" id="id46" stroke="none" /><text fill="#e1ed5e" style="font-size:6.75px; font-family:Arial;" text-anchor="middle"><textPath startOffset="22.145653131862435" xlink:href="#id46">October</textPath></text><path d="M 79.0935383218832 98.0201363427161 l -9.37604950644259 -0.8879216365020267 a30.41799921319973,30.41799921319973 0 0,0 0.05369154553942614,-0.5194169980502543 l 9.3594255684215 1.048743156835194" fill="#ff5608" stroke="none" /><path d="M 79.2786578344484 96.59031103205396 l -8.061054286364172 -1.3264434152303073 a29.169458264873995,29.169458264873995 0 0,0 0.08554316242356758,-0.4933902286483449 l 8.037096306448369 1.4646266767992449" fill="#ff4406" stroke="none" /><path d="M 80.83023694016515 91.42560881287825 l -6.961587755952802 -3.1138296554162297 a28.62624673130771,28.62624673130771 0 0,0 0.20449436774231403,-0.4468570988744722 l 6.907108923355441 3.232875736505373" fill="#ff3c05" stroke="none" /><line stroke="#e1ed5e" stroke-width="0.3" x1="26.387840678322718" x2="22.05771365940052" y1="57.49999999999999" y2="54.99999999999999" /><path d="M 25.521815274538284 56.99999999999999 a86.0,86.0 0 0,1 29.574782752854787,-30.34633250058573" fill="none" id="id47" stroke="none" /><text fill="#e1ed5e" style="font-size:6.75px; font-family:Arial;" text-anchor="middle"><textPath startOffset="21.40746469413373" xlink:href="#id47">November</textPath></text><path d="M 84.58840730492382 85.73525988315684 l -2.657592976324234 -2.4598283833263177 a24.621264434313748,24.621264434313748 0 0,0 0.28976199385605994,-0.307717196083339 l 2.6149751487319026 2.5050870393541675" fill="#ff0000" stroke="none" /><path d="M 84.83555147118756 85.47280134310135 l -4.623449559437135 -4.429160091280527 a27.402635780899267,27.402635780899267 0 0,0 0.32832689741578774,-0.3368923207695743 l 4.546735860870545 4.507875104117832" fill="#ff2a04" stroke="none" /><path d="M 85.08716467003674 85.21462403516908 l -4.422913739833108 -4.385111285447957 a27.22827158493972,27.22827158493972 0 0,0 0.33193607269713993,-0.32909902929430007 l 4.346985747005991 4.4603903249709305" fill="#ff2703" stroke="none" /><path d="M 86.96720088162412 83.53348406188908 l -4.76884092610259 -6.02527472438858 a28.68412514752505,28.68412514752505 0 0,0 0.3887246078011298,-0.30227460620592955 l 4.664706373666216 6.106250382215315" fill="#ff3d05" stroke="none" /><path d="M 87.25179093698888 83.31218511350988 l -4.464513499527429 -5.84419148369005 a28.354349385601555,28.354349385601555 0 0,0 0.3893281855580216,-0.29215912863584964 l 4.363532325058656 5.919969639589901" fill="#ff3805" stroke="none" /><path d="M 88.4268655584334 82.4767994020092 l -8.155560764770561 -12.348558464584169 a35.798650868951476,35.798650868951476 0 0,0 0.5156955349367773,-0.3342676152893243 l 7.942379597576758 12.4867399215774" fill="#ffa20e" stroke="none" /><path d="M 88.72937992617638 82.28071324371311 l -7.994099310640862 -12.568051900930177 a35.89501770300604,35.89501770300604 0 0,0 0.5227611433956212,-0.32624161672586693 l 7.777174038455542 12.70342931449758" fill="#ffa30f" stroke="none" /><path d="M 89.03521579738668 82.08984904055464 l -15.345242514664223 -25.065300407958 a50.389551755258836,50.389551755258836 0 0,0 0.7416076123478261,-0.4453140630974537 l 14.912702145758963 25.325028471591377" fill="#a4ff21" stroke="none" /><line stroke="#e1ed5e" stroke-width="0.3" x1="56.869717070023135" x2="54.33264160355391" y1="26.7553504044142" y2="22.446841604673864" /><path d="M 56.362301976729285 25.89364864446614 a86.0,86.0 0 0,1 42.16139366436587,-11.88097634709845" fill="none" id="id48" stroke="none" /><text fill="#e1ed5e" style="font-size:6.75px; font-family:Arial;" text-anchor="middle"><textPath startOffset="22.145653131862474" xlink:href="#id48">December</textPath></text><path d="M 90.28995756902619 81.37971332152246 l -6.838329907610743 -13.113399265439538 a35.78932034341517,35.78932034341517 0 0,0 0.5471893578877579,-0.2793987850160285 l 6.612213328009402 13.228856002128401" fill="#ffa20e" stroke="none" /><path d="M 96.05791012581881 79.37332000966035 l -1.4711339725541601 -7.69759458644881 a28.836912503181914,28.836912503181914 0 0,0 0.48702148840506676,-0.08875153872677173 l 1.338777750598055 7.721714299106942" fill="#ff3f05" stroke="none" /><path d="M 96.41257539226777 79.30868818359171 l -2.538509902059491 -14.641450532323939 a35.85988244278342,35.85988244278342 0 0,0 0.607436520131914,-0.09995344823100193 l 2.286795878874504 14.68286997905061" fill="#ffa30f" stroke="none" /><path d="M 97.48249496171623 79.15144685158666 l -1.5162705697453136 -12.556895450052634 a33.648110522296534,33.648110522296534 0 0,0 0.5740433323384394,-0.06432275272833267 l 1.300491335806075 12.581073963287938" fill="#ff840c" stroke="none" /><path d="M 98.1996594967304 79.07731436759882 l -1.2119270837447254 -14.084429771220105 a35.1364751347974,35.1364751347974 0 0,0 0.6013875513217055,-0.04655119991299224 l 0.9699705376478026 14.103158738128151" fill="#ff990e" stroke="none" /><path d="M 99.27912038922189 79.0123766808444 l -0.5044889442840423 -14.68764516710815 a35.69630666697522,35.69630666697522 0 0,0 0.6125939837916956,-0.01577824800201588 l 0.2522816464216028 14.69414113246021" fill="#ffa00e" stroke="none" /></svg>