<?xml version="1.0" encoding="utf-8" ?>
<svg baseProfile="full" height="200mm" version="1.1" viewBox="0,0,200,200" width="200mm" xmlns="http://www.w3.org/2000/svg" xmlns:ev="http://www.w3.org/2001/xml-events" xmlns:xlink="http://www.w3.org/1999/xlink"><defs /><rect fill="#1a1a1a" height="200" width="200" x="0" y="0" /><rect fill="#1a1a1a" height="200" width="180" x="10" y="0" /><text alignment-baseline="middle" fill="#e1ed5e" style="dominant-baseline: central; font-size:9.0px; font-family:Arial;" text-anchor="middle" x="100.0" y="100.0">2019</text><line stroke="#e1ed5e" stroke-width="0.3" x1="100.0" x2="100.0" y1="15.0" y2="10.0" /><path d="M 100.0 14.0 a86.0,86.0 0 0,1 42.46469731375804,11.215312516191453" fill="none" id="id25" stroke="none" /><text fill="#e1ed5e" style="font-size:6.75px; font-family:Arial;" text-anchor="middle"><textPath startOffset="22.20632615414155" xlink:href="#id25">January</textPath></text><line stroke="#e1ed5e" stroke-width="0.3" x1="143.23703022742887" x2="145.7803849466894" y1="26.81831364943548" y2="22.513508569990506" /><path d="M 143.74570117128098 25.957352633546492 a86.0,86.0 0 0,1 28.547481713284135,27.462654790039103" fill="none" id="id26" stroke="none" /><text fill="#e1ed5e" style="font-size:6.75px; font-family:Arial;" text-anchor="middle"><textPath startOffset="19.985693538727396" xlink:href="#id26">February</textPath></text><line stroke="#e1ed5e" stroke-width="0.3" x1="172.23445277983987" x2="176.4835382374775" y1="55.19839476539836" y2="52.563006222186495" /><path d="M 173.08426987136738 54.67131705675599 a86.0,86.0 0 0,1 12.851231095245387,41.99856678651699" fill="none" id="id27" stroke="none" /><text fill="#e1ed5e" style="font-size:6.75px; font-family:Arial;" text-anchor="middle"><textPath startOffset="22.20632615414155" xlink:href="#id27">March</textPath></text><line stroke="#e1ed5e" stroke-width="0.3" x1="184.98032266829074" x2="189.97916517819016" y1="98.17113171792111" y2="98.06355123074" /><path d="M 185.9800911702706 98.14961562048488 a86.0,86.0 0 0,1 -9.607161424134198,41.387399972396054" fill="none" id="id28" stroke="none" /><text fill="#e1ed5e" style="font-size:6.75px; font-family:Arial;" text-anchor="middle"><textPath startOffset="21.466115282336823" xlink:href="#id28">April</textPath></text><line stroke="#e1ed5e" stroke-width="0.3" x1="174.80103733775053" x2="179.2010983576182" y1="140.37084112569926" y2="142.7455964860345" /><path d="M 175.68104954172406 140.8457921977663 a86.0,86.0 0 0,1 -30.038265399797805,32.042727171017184" fill="none" id="id29" stroke="none" /><text fill="#e1ed5e" style="font-size:6.75px; font-family:Arial;" text-anchor="middle"><textPath startOffset="22.206326154141568" xlink:href="#id29">May</textPath></text><line stroke="#e1ed5e" stroke-width="0.3" x1="143.8653032363475" x2="146.44561519142675" y1="172.8068346515853" y2="177.08958963109032" /><path d="M 144.38136562736335 173.6633856474863 a86.0,86.0 0 0,1 -40.68145358897372,12.25698825130547" fill="none" id="id30" stroke="none" /><text fill="#e1ed5e" style="font-size:6.75px; font-family:Arial;" text-anchor="middle"><textPath startOffset="21.466115282336833" xlink:href="#id30">June</textPath></text><line stroke="#e1ed5e" stroke-width="0.3" x1="102.19456741930631" x2="102.32365962044197" y1="184.97166512339345" y2="189.96999836594603" /><path d="M 102.22038585953345 185.97133177190398 a86.0,86.0 0 0,1 -42.740103519485714,-10.115201625700543" fill="none" id="id31" stroke="none" /><text fill="#e1ed5e" style="font-size:6.75px; font-family:Arial;" text-anchor="middle"><textPath startOffset="22.20632615414155" xlink:href="#id31">July</textPath></text><path d="M 98.37488393609728 120.93702456842531 l -2.514724900558615 32.3982133924549 a53.49566236205278,53.49566236205278 0 0,0 -0.9174650845653928,-0.07916274798804539 l 3.0720343028655495 -32.35012639218819" fill="red" stroke="none" /><path d="M 90.42595943632237 118.69057910512821 l -13.932123175250972 27.198490394675364 a51.559154699035986,51.559154699035986 0 0,0 -0.7864222051497624,-0.41141892912555694 l 14.398236282927229 -26.95464204660509" fill="red" stroke="none" /><path d="M 90.10565033884886 118.52300852407294 l -21.262490905831328 39.80507196325583 a66.12800985552693,66.12800985552693 0 0,0 -0.9994058011747601,-0.5449557279057748 l 21.944519518874728 -39.43317558359029" fill="red" stroke="none" /><line stroke="#e1ed5e" stroke-width="0.3" x1="58.666819895761336" x2="56.23545636021788" y1="174.27360380694188" y2="178.64263932499728" /><path d="M 58.180547188652646 175.14741091055294 a86.0,86.0 0 0,1 -31.652253787137756,-30.449443065178592" fill="none" id="id32" stroke="none" /><text fill="#e1ed5e" style="font-size:6.75px; font-family:Arial;" text-anchor="middle"><textPath startOffset="22.20632615414155" xlink:href="#id32">August</textPath></text><path d="M 88.54995079064634 117.60387380957326 l -30.170791382197443 46.3860717553322 a76.33483808161823,76.33483808161823 0 0,0 -1.0953151467418976,-0.7259151535510927 l 30.964781227679303 -45.85985858068979" fill="red" stroke="none" /><path d="M 83.06392112726016 112.41649034213515 l -39.83787354575523 29.206676223517697 a70.39722770230105,70.39722770230105 0 0,0 -0.7080627167362697,-0.983437184631396 l 40.33471605486711 -28.516605433435164" fill="red" stroke="none" /><line stroke="#e1ed5e" stroke-width="0.3" x1="26.63291911575756" x2="22.317208475507996" y1="142.92168965132927" y2="145.44649492493687" /><path d="M 25.769776987707644 143.4266507060508 a86.0,86.0 0 0,1 -11.730757126820373,-40.83630448921669" fill="none" id="id33" stroke="none" /><text fill="#e1ed5e" style="font-size:6.75px; font-family:Arial;" text-anchor="middle"><textPath startOffset="21.46611528233685" xlink:href="#id33">September</textPath></text><path d="M 81.51974371655577 109.97397251340807 l -32.835940088833475 17.72187348891575 a58.31305081971449,58.31305081971449 0 0,0 -0.46913541303550066,-0.8874274031666863 l 33.13612801009386 -17.15403107066294" fill="red" stroke="none" /><path d="M 79.86692584326677 105.97154293290107 l -45.619034196329565 13.530771264246232 a68.58337999776012,68.58337999776012 0 0,0 -0.3259583957626072,-1.1347039373737797 l 45.84518522897828 -12.743509851367856" fill="red" stroke="none" /><path d="M 79.58551787078972 104.9243191809786 l -42.37820461677076 10.222341401019559 a64.59367488822076,64.59367488822076 0 0,0 -0.2514214490394703,-1.0831170221513744 l 42.54788663174079 -9.49135572151961" fill="red" stroke="none" /><path d="M 79.04373962182676 101.35467743843564 l -57.75433210281428 3.7334185231392816 a78.87487615979047,78.87487615979047 0 0,0 -0.0759213843087334,-1.3556273179337184 l 57.810039838010546 -2.738719488870126" fill="red" stroke="none" /><line stroke="#e1ed5e" stroke-width="0.3" x1="15.007084014347285" x2="10.007500721073583" y1="101.09737516637583" y2="101.16192664675087" /><path d="M 14.007167355692545 101.11028546245083 a86.0,86.0 0 0,1 10.666146001902534,-42.60595125391555" fill="none" id="id34" stroke="none" /><text fill="#e1ed5e" style="font-size:6.75px; font-family:Arial;" text-anchor="middle"><textPath startOffset="22.20632615414155" xlink:href="#id34">October</textPath></text><path d="M 79.00019446554 99.90962569577889 l -58.59943839577983 -0.2521872625952002 a79.59998104706358,79.59998104706358 0 0,0 0.017690121189362987,-1.370119381313672 l 58.58641526747275 1.2608429019693441" fill="red" stroke="none" /><path d="M 79.3925641242962 95.95851677861259 l -61.8223076271114 -12.124449664162231 a84.0,84.0 0 0,0 0.2904828163400217,-1.41649737534639 l 61.60444551485639 13.186822695672024" fill="red" stroke="none" /><path d="M 79.54389044137918 95.25157060432595 l -28.208590373883887 -6.547994835383011 a49.958605063880015,49.958605063880015 0 0,0 0.2016595740067137,-0.8360091250068133 l 28.091697999616358 7.032589192049221" fill="red" stroke="none" /><path d="M 80.2630227832202 92.82701384747504 l -31.984829443138892 -11.624208518184632 a55.03162555889625,55.03162555889625 0 0,0 0.3312259503781448,-0.8875208718315666 l 31.77999890425912 12.17305252704554" fill="red" stroke="none" /><line stroke="#e1ed5e" stroke-width="0.3" x1="26.266209847984243" x2="21.928928074336255" y1="57.711370442889674" y2="55.22380399835377" /><path d="M 25.398753493254645 57.213857153982495 a86.0,86.0 0 0,1 29.58750427330803,-30.492523968695096" fill="none" id="id35" stroke="none" /><text fill="#e1ed5e" style="font-size:6.75px; font-family:Arial;" text-anchor="middle"><textPath startOffset="21.46611528233685" xlink:href="#id35">November</textPath></text><path d="M 84.07557802195018 86.31012108654704 l -32.58527147557524 -28.01284853400048 a63.9711484617969,63.9711484617969 0 0,0 0.7250311347703515,-0.8288359213469981 l 32.098248477227045 28.56960001155042" fill="red" stroke="none" /><path d="M 85.31137513191541 84.99185889309783 l -39.580210998855094 -40.44118472944842 a77.58694659579417,77.58694659579417 0 0,0 0.9625095078643858,-0.9259333839702456 l 38.87821824737828 41.116501200180984" fill="red" stroke="none" /><path d="M 88.39885842347998 82.49532879139004 l -30.099983705648285 -45.41710957293057 a75.4859877495111,75.4859877495111 0 0,0 1.089273494254534,-0.7084937807766094 l 29.313743185609464 45.92850227786671" fill="red" stroke="none" /><line stroke="#e1ed5e" stroke-width="0.3" x1="56.762969772571076" x2="54.21961505331055" y1="26.818313649435495" y2="22.513508569990535" /><path d="M 56.25429882871897 25.957352633546506 a86.0,86.0 0 0,1 42.265352541879196,-11.944610805530505" fill="none" id="id36" stroke="none" /><text fill="#e1ed5e" style="font-size:6.75px; font-family:Arial;" text-anchor="middle"><textPath startOffset="22.20632615414155" xlink:href="#id36">December</textPath></text><path d="M 89.3179101791058 81.91981866633112 l -28.157439189231823 -47.65842779540018 a76.35491957924481,76.35491957924481 0 0,0 1.1373365874635941,-0.6588187614560213 l 27.33290586930291 48.136050714246245" fill="red" stroke="none" /><path d="M 91.23893434514133 80.91482961587045 l -2.4126008051341574 -5.255627482866557 a26.78292857327464,26.78292857327464 0 0,0 0.420642322061578,-0.18872994847964736 l 2.321776364605805 5.2963777618627335" fill="red" stroke="none" /><path d="M 93.94186890950719 79.89281104454417 l -15.79136936844938 -52.41221145826668 a75.73944881414923,75.73944881414923 0 0,0 1.2515395067974286,-0.36535870150714245 l 14.886839643928532 52.67626848869253" fill="red" stroke="none" /></svg>