<?xml version="1.0" encoding="utf-8" ?>
<svg baseProfile="full" height="200mm" version="1.1" viewBox="0,0,200,200" width="200mm" xmlns="http://www.w3.org/2000/svg" xmlns:ev="http://www.w3.org/2001/xml-events" xmlns:xlink="http://www.w3.org/1999/xlink"><defs /><rect fill="#1a1a1a" height="200" width="200" x="0" y="0" /><rect fill="#1a1a1a" height="200" width="180" x="10" y="0" /><text alignment-baseline="middle" fill="#e1ed5e" style="dominant-baseline: central; font-size:9.0px; font-family:Arial;" text-anchor="middle" x="100.0" y="100.0">2025</text><line stroke="#e1ed5e" stroke-width="0.3" x1="100.0" x2="100.0" y1="15.0" y2="10.0" /><path d="M 100.0 14.0 a86.0,86.0 0 0,1 42.46469731375804,11.215312516191453" fill="none" id="id97" stroke="none" /><text fill="#e1ed5e" style="font-size:6.75px; font-family:Arial;" text-anchor="middle"><textPath startOffset="22.20632615414155" xlink:href="#id97">January</textPath></text><path d="M 100.72285384407766 79.0124445844662 l 1.0319464483837493 -29.961842838301866 a50.979608732260544,50.979608732260544 0 0,0 0.8767501454695611,0.03775470555684117 l -1.547537426242642 29.939640406220832" fill="#adff20" stroke="none" /><path d="M 103.59715602781102 79.31037775812273 l 1.2976198362903422 -7.463469479457394 a28.57543357903204,28.57543357903204 0 0,0 0.4838839808239899,0.0884267045870162 l -1.425898938217233 7.4400272935196385" fill="#ff1802" stroke="none" /><path d="M 104.307194497241 79.44645832069477 l 1.8343833453918583 -8.753511031249184 a29.94365236534002,29.94365236534002 0 0,0 0.5035627951541548,0.11005932287209086 l -1.984788864699541 8.720638210281223" fill="#ff2d04" stroke="none" /><path d="M 106.0581310904928 79.89281104454417 l 5.390654082846123 -17.891805016795953 a39.686247301155746,39.686247301155746 0 0,0 0.652393955741845,0.20270197774004273 l -5.697833411298687 17.79636290417339" fill="#ffbd11" stroke="none" /><path d="M 107.4271985657038 80.35727306442388 l 8.485601699176042 -22.44188782438739 a44.992577296310756,44.992577296310756 0 0,0 0.722059809471928,0.2801479882029127 l -8.870644673647636 22.29249713229393" fill="#f9ff18" stroke="none" /><line stroke="#e1ed5e" stroke-width="0.3" x1="143.23703022742887" x2="145.7803849466894" y1="26.81831364943548" y2="22.513508569990506" /><path d="M 143.74570117128098 25.957352633546492 a86.0,86.0 0 0,1 28.547481713284135,27.462654790039103" fill="none" id="id98" stroke="none" /><text fill="#e1ed5e" style="font-size:6.75px; font-family:Arial;" text-anchor="middle"><textPath startOffset="19.985693538727396" xlink:href="#id98">February</textPath></text><path d="M 110.99172775467656 82.1063720568725 l 7.787653410243788 -12.677658670507245 a35.878527313009485,35.878527313009485 0 0,0 0.5234520766568929,0.32778564238096053 l -8.004724639272943 12.541728686803342" fill="#ff860c" stroke="none" /><path d="M 111.60114157652 82.49532879139004 l 10.648563492971162 -16.067350058526024 a40.27567488745996,40.27567488745996 0 0,0 0.5745906250424445,0.38796615494594044 l -10.923558812420149 15.881671991281411" fill="#ffc512" stroke="none" /><path d="M 111.90073688211348 82.69761687909136 l 14.020680368552869 -20.384551457239017 a45.74084509692321,45.74084509692321 0 0,0 0.6448780896346096,0.45177831323279966 l -14.36948959777113 20.140188301242283" fill="#efff19" stroke="none" /><path d="M 113.6212207817346 84.01681056812373 l 19.405102607343245 -22.770017158378817 a50.91708021506085,50.91708021506085 0 0,0 0.6621795410253938,0.5742355727516697 l -19.794175947015404 22.432616592207477" fill="#aeff20" stroke="none" /><path d="M 114.16331599549186 84.49514656593476 l 20.363460121087265 -22.29227002266893 a51.192976184316365,51.192976184316365 0 0,0 0.6454998332707209,0.5999217459119242 l -20.744167838152833 21.938443690682366" fill="#abff21" stroke="none" /><path d="M 114.94478906791727 85.2469230424477 l 21.759718611553186 -21.480584422571948 a51.576148566966616,51.576148566966616 0 0,0 0.6182647492791989,0.6371761711379906 l -22.126247624535495 21.102844055883843" fill="#a6ff21" stroke="none" /><path d="M 115.19652480421416 85.50635884689758 l 22.04711655615412 -21.027373030504197 a51.46679774778801,51.46679774778801 0 0,0 0.6059178207995322,0.6463508848306355 l -22.405801698924115 20.644752728795506" fill="#a7ff21" stroke="none" /><path d="M 115.9244219780498 86.31012108654704 l 23.338430633738138 -20.06354075810695 a51.77706958431919,51.77706958431919 0 0,0 0.5751924189886032,0.680846399054321 l -23.68033366621386 19.65883540942352" fill="#a4ff21" stroke="none" /><path d="M 116.60985879189232 87.15038557335679 l 13.075074951265053 -10.115057197549827 a37.5309396917085,37.5309396917085 0 0,0 0.3909009284083067,0.5143798008935473 l -13.247251819897473 9.888492620775246" fill="#ff9e0e" stroke="none" /><path d="M 117.04232023915458 87.72973835380427 l 25.135039453340006 -18.0969202697739 a51.97206372800353,51.97206372800353 0 0,0 0.5164720867991762,0.7305131397892322 l -25.442824159943065 17.661580629652875" fill="#a1ff22" stroke="none" /><path d="M 117.45458315368197 88.32363383020206 l 24.752155769011683 -16.558128699274633 a50.77987308964161,50.77987308964161 0 0,0 0.47975703224202193,0.7307028743426627 l -25.03350943661163 16.129607760954297" fill="#b0ff20" stroke="none" /><path d="M 117.65298651832404 88.62581576622439 l 25.637107702773875 -16.518518604759137 a51.49791383454615,51.49791383454615 0 0,0 0.47371313351133015,0.7493004147598428 l -25.91764843253116 16.074770542285087" fill="#a7ff21" stroke="none" /><line stroke="#e1ed5e" stroke-width="0.3" x1="172.23445277983987" x2="176.4835382374775" y1="55.19839476539836" y2="52.563006222186495" /><path d="M 173.08426987136738 54.67131705675599 a86.0,86.0 0 0,1 12.851231095245387,41.99856678651699" fill="none" id="id99" stroke="none" /><text fill="#e1ed5e" style="font-size:6.75px; font-family:Arial;" text-anchor="middle"><textPath startOffset="22.20632615414155" xlink:href="#id99">March</textPath></text><path d="M 118.03404312379186 89.2402003453031 l 26.30197550597349 -15.692764236193923 a51.627712367880115,51.627712367880115 0 0,0 0.4487685439040545,0.7670909119928581 l -26.56820372434787 15.23769391184717" fill="#a5ff21" stroke="none" /><path d="M 118.56541770881063 90.18545643968196 l 26.57814059471127 -14.050441671196973 a51.06347399466581,51.06347399466581 0 0,0 0.40410798514224616,0.7806080023065353 l -26.816058013013635 13.590860946630093" fill="#acff20" stroke="none" /><path d="M 118.73160827565052 90.50648371742162 l 28.08617825937167 -14.234580752329144 a52.487405393455035,52.487405393455035 0 0,0 0.4015036248816111,0.8094068076780436 l -28.32704189720669 13.74901435615215" fill="#9bff22" stroke="none" /><path d="M 118.89224826269711 90.83032412892265 l 27.296899784599923 -13.249017259861485 a51.342333400755436,51.342333400755436 0 0,0 0.3790575287062786,0.798391827177557 l -27.520915507147958 12.777183017043388" fill="#a9ff21" stroke="none" /><path d="M 119.04729006885535 91.15688171328212 l 32.33624919837022 -15.01280631398283 a56.65133048906115,56.65133048906115 0 0,0 0.40302750076235405,0.8880176746101691 l -32.58987901609592 14.453966630530598" fill="#6bff28" stroke="none" /><path d="M 119.34039704204932 91.81776055985345 l 27.55140727026785 -11.656028090229883 a50.91559849664379,50.91559849664379 0 0,0 0.3345356377022178,0.810104581824679 l -27.747964594856263 11.180048937951902" fill="#aeff20" stroke="none" /><path d="M 119.61058180528143 92.48833698450437 l 27.736772391772185 -10.624329732450054 a50.70193470090455,50.70193470090455 0 0,0 0.3051662809659313,0.8176939138593307 l -27.915543261239744 10.14531268156139" fill="#b1ff20" stroke="none" /><path d="M 119.7369772167798 92.82701384747503 l 28.448074277677172 -10.338849795413262 a51.268543823586135,51.268543823586135 0 0,0 0.2942983337762179,0.8320210202252041 l -28.621825692263197 9.847631148761444" fill="#aaff21" stroke="none" /><path d="M 119.97218684219823 93.5106431181261 l 28.592908363870325 -9.290399100004073 a51.06436302571605,51.06436302571605 0 0,0 0.26442711685315196,0.8383062216503107 l -28.748590964491683 8.796842711927344" fill="#acff20" stroke="none" /><path d="M 120.18372546131832 94.20196356495316 l 34.60905420461998 -9.941898865274762 a57.00872097125467,57.00872097125467 0 0,0 0.2628189706242031,0.9454996724205215 l -34.77505994581055 9.344687889435288" fill="#66ff29" stroke="none" /><path d="M 120.37134235888165 94.90015583598534 l 34.86291761971598 -8.727723673345237 a56.938783861969696,56.938783861969696 0 0,0 0.2298352983111246,0.9528156924023441 l -35.00798571828792 8.126322749283487" fill="#67ff28" stroke="none" /><path d="M 120.53481517161879 95.60439243477599 l 35.15108379135816 -7.524312663532826 a56.94737782878861,56.94737782878861 0 0,0 0.19693136541530112,0.9603072765159065 l -35.27539445268846 6.918129730853508" fill="#67ff28" stroke="none" /><path d="M 120.73433829027371 96.67025291283417 l 35.59473902971026 -5.7161929618078515 a57.05080177429901,57.05080177429901 0 0,0 0.14736522718183118,0.9709527234703734 l -35.687860150331396 5.102641125945396" fill="#66ff29" stroke="none" /><path d="M 120.78858239683441 97.02765380044208 l 29.842363969787687 -4.266853575592028 a51.14585753865404,51.14585753865404 0 0,0 0.11710940295601985,0.8726010778796883 l -29.911389371801544 3.752534155647675" fill="#abff21" stroke="none" /><path d="M 120.87857604477298 97.74499172005257 l 29.682519160698075 -3.205885608938814 a50.85514438522797,50.85514438522797 0 0,0 0.08650913958502919,0.8711352297583556 l -29.733305425965334 2.6944748484760233" fill="#afff20" stroke="none" /><path d="M 120.94382443527127 98.46500227214037 l 45.02009493713937 -3.2995761423665146 a66.14084791924401,66.14084791924401 0 0,0 0.07344597542588592,1.136176731880275 l -45.07022150356967 2.524140346233205" fill="#35ff64" stroke="none" /><line stroke="#e1ed5e" stroke-width="0.3" x1="184.98032266829074" x2="189.97916517819016" y1="98.17113171792111" y2="98.06355123074" /><path d="M 185.9800911702706 98.14961562048488 a86.0,86.0 0 0,1 -9.607161424134198,41.387399972396054" fill="none" id="id100" stroke="none" /><text fill="#e1ed5e" style="font-size:6.75px; font-family:Arial;" text-anchor="middle"><textPath startOffset="21.466115282336823" xlink:href="#id100">April</textPath></text><path d="M 120.99513854157772 99.54816195383933 l 35.994459522034454 -0.7746396257799174 a57.002794097586445,57.002794097586445 0 0,0 0.012668173063036282,0.9811639645486936 l -36.00246070221521 0.1549394031707611" fill="#67ff28" stroke="none" /><path d="M 120.99980553446 99.90962569577887 l 30.028227368141145 -0.12922882314012038 a51.02850544002334,51.02850544002334 0 0,0 -0.0037802468678883113,0.87839624085715 l -30.026002823983756 -0.3876768959207143" fill="#adff20" stroke="none" /><path d="M 120.92983693683757 101.71520430193887 l 30.110410405893674 2.467554124630329 a51.211349492687845,51.211349492687845 0 0,0 -0.07956147392355876,0.8779542349957783 l -30.063474335693037 -2.9854897481746776" fill="#abff21" stroke="none" /><path d="M 120.89721153311464 102.0752229133903 l 44.67720043042464 4.436723526123457 a65.89695706779685,65.89695706779685 0 0,0 -0.12180801006932696,1.1277908927031512 l -44.594210118854264 -5.2051107407114" fill="#35ff61" stroke="none" /><path d="M 120.81339534386255 102.79330883721812 l 29.47354416736263 3.95556371397661 a50.73779228659727,50.73779228659727 0 0,0 -0.12362129960315779,0.8646070814988711 l -29.40108881674287 -4.462316267455891" fill="#b0ff20" stroke="none" /><path d="M 120.64145759157962 103.86396538481128 l 35.55471675484935 6.655644069610209 a57.17230268449747,57.17230268449747 0 0,0 -0.1894038537950527,0.9657661699639027 l -35.43488296807863 -7.266673966642057" fill="#65ff29" stroke="none" /><path d="M 120.5718875245553 104.21870165774334 l 35.20322170897648 7.2191669142803025 a56.93582042513559,56.93582042513559 0 0,0 -0.2051477896895415,0.9583821762137167 l -35.07373988056249 -7.824062909910188" fill="#67ff28" stroke="none" /><path d="M 120.49622156327973 104.57218783832717 l 29.28123931495337 6.531902764304145 a51.000945477466125,51.000945477466125 0 0,0 -0.19851373430165772,0.8551919717844182 l -29.164465014721163 -7.0349633934371285" fill="#adff20" stroke="none" /><path d="M 120.32669344350535 105.2749913415812 l 34.86194628714259 9.047042763076826 a57.01672225070676,57.01672225070676 0 0,0 -0.2547070664297807,0.9478597475396758 l -34.70105114437103 -9.64579344379205" fill="#66ff29" stroke="none" /><path d="M 120.23288151984713 105.62410040840565 l 32.64017925218947 9.072936313228592 a54.87771354384711,54.87771354384711 0 0,0 -0.26081904202530326,0.9079453015338396 l -32.47916757327806 -9.633439090267013" fill="#7fff26" stroke="none" /><path d="M 120.02730092923936 106.31721596034902 l 31.180323197409926 9.835216240444229 a53.694709559670926,53.694709559670926 0 0,0 -0.2856245303451068,0.8790619148565552 l -31.006406416048574 -10.37047705527858" fill="#8dff24" stroke="none" /><path d="M 119.9155931802556 106.66101706037122 l 33.95789861815088 11.357640216014714 a56.80691092285186,56.80691092285186 0 0,0 -0.3181435043008816,0.9246739431716833 l -33.757364282906764 -11.940486862275696" fill="#69ff28" stroke="none" /><path d="M 119.79798401119884 107.00284435728193 l 25.491868232208702 9.016856741854056 a48.039583049141314,48.039583049141314 0 0,0 -0.2824630008568337,0.7772168653263182 l -25.332880970346643 -9.454321404186507" fill="#d2ff1c" stroke="none" /><path d="M 119.54520255179757 107.68017299344265 l 33.505903909276995 13.165948914724702 a56.99983066075234,56.99983066075234 0 0,0 -0.36669181476376034,0.9100990120668019 l -33.274309480255845 -13.740747294634316" fill="#67ff28" stroke="none" /><path d="M 118.97047184881838 109.00673069616215 l 32.48772834443206 15.42440390836137 a56.96338038769281,56.96338038769281 0 0,0 -0.42816590887688394,0.8821485908394634 l -32.217409178940464 -15.98134145516611" fill="#67ff28" stroke="none" /><path d="M 118.64920377521936 109.65438752849418 l 40.30661813254154 20.866076434408495 a66.38740586384183,66.38740586384183 0 0,0 -0.5340945574358145,1.0103056238793604 l -39.94147106688083 -21.55679707337399" fill="#35ff67" stroke="none" /><line stroke="#e1ed5e" stroke-width="0.3" x1="174.80103733775053" x2="179.2010983576182" y1="140.37084112569926" y2="142.7455964860345" /><path d="M 175.68104954172406 140.8457921977663 a86.0,86.0 0 0,1 -30.038265399797805,32.042727171017184" fill="none" id="id101" stroke="none" /><text fill="#e1ed5e" style="font-size:6.75px; font-family:Arial;" text-anchor="middle"><textPath startOffset="22.206326154141568" xlink:href="#id101">May</textPath></text><path d="M 118.30583269289576 110.29060199501025 l 26.24423564405904 14.75316573722882 a51.1067401724438,51.1067401724438 0 0,0 -0.43768786681776245,0.7631456886168555 l -25.9863957810889 -15.20273127170399" fill="#acff21" stroke="none" /><path d="M 118.12598468904814 110.60418214915192 l 5.2229089853146276 3.055540384638107 a27.05104167156653,27.05104167156653 0 0,0 -0.2385890595170627,0.39988898736765977 l -5.169539050099338 -3.144991465891871" fill="#ff0000" stroke="none" /><path d="M 117.94076556474637 110.91462005526583 l 49.02188384694327 29.823433936071446 a78.38102741884651,78.38102741884651 0 0,0 -0.7111598715450096,1.146616151163273 l -48.501259335730296 -30.66284641859999" fill="#45fff2" stroke="none" /><path d="M 117.75023020441432 111.22182372390056 l 13.115103225530666 8.291462973875314 a36.51625891970968,36.51625891970968 0 0,0 -0.34046218591159816,0.52840487320835 l -12.970436176242018 -8.515989447005117" fill="#ff900d" stroke="none" /><path d="M 117.35343817320211 111.8261652097733 l 25.68548183757763 17.504355544534356 a52.0828962655992,52.0828962655992 0 0,0 -0.5112533804075802,0.7364986255560348 l -25.380367550007914 -17.943895432277408" fill="#a0ff22" stroke="none" /><path d="M 117.14729908036423 112.12312394758627 l 34.72523459308011 24.550707438408917 a63.52739297524355,63.52739297524355 0 0,0 -0.6389651968603626,0.8874667729636351 l -34.29748960384414 -25.144807816823683" fill="#31ff42" stroke="none" /><path d="M 116.93607887273984 112.41649034213515 l 24.84474995482881 18.21464107393999 a51.80640760897687,51.80640760897687 0 0,0 -0.5334548551639477,0.7146499544386297 l -24.52753383296977 -18.639603907887935" fill="#a3ff21" stroke="none" /><path d="M 116.498646956653 112.99209946851258 l 45.54145288280878 35.862279334090395 a78.9666025372664,78.9666025372664 0 0,0 -0.8501397323599836,1.0606800310786653 l -44.917395238393944 -36.640887198747315" fill="#46fff9" stroke="none" /><path d="M 116.27256486870786 113.27417163493432 l 27.84287891299482 22.712532196599856 a56.931671613567836,56.931671613567836 0 0,0 -0.62598812896762,0.7540430272861618 l -27.44779478413366 -23.188436480999787" fill="#67ff28" stroke="none" /><path d="M 115.80600337817218 113.82643327865902 l 38.65690538373369 33.81545038676547 a72.35991645930449,72.35991645930449 0 0,0 -0.82814597910378,0.9304307866383446 l -38.069100554981574 -34.47585534314468" fill="#3dffaf" stroke="none" /><path d="M 115.56566222782051 114.09645910891815 l 22.221765525441207 20.124309809156756 a50.979905075943954,50.979905075943954 0 0,0 -0.5946528984947427,0.6453782759422267 l -21.872066218950742 -20.503839339900317" fill="#adff20" stroke="none" /><path d="M 115.07121518719521 114.62390073753431 l 38.83284960061506 37.68028860721744 a75.10909681030714,75.10909681030714 0 0,0 -0.9083171085042318,0.9201204353799071 l -38.1784918670553 -38.34314953657801" fill="#41ffcf" stroke="none" /><path d="M 113.75828350139079 115.86535959552629 l 19.434754106797367 22.411179601278185 a50.66429905311138,50.66429905311138 0 0,0 -0.6637856083112265,0.5656924959240603 l -19.046103021909094 -22.742396487425193" fill="#b1ff20" stroke="none" /><path d="M 112.63410532772338 116.77436683061366 l 20.18624458496583 26.80138108851133 a54.55292086682879,54.55292086682879 0 0,0 -0.7549475576889129,0.5584921549311831 l -19.72191205685835 -27.14488319218228" fill="#83ff25" stroke="none" /><path d="M 111.1453310114006 117.79835938074945 l 16.254418146105376 25.957234952773558 a51.62652699314646,51.62652699314646 0 0,0 -0.7572401975783445,0.46515877736663636 l -15.805198748594721 -26.23318219696857" fill="#a5ff21" stroke="none" /><line stroke="#e1ed5e" stroke-width="0.3" x1="143.8653032363475" x2="146.44561519142675" y1="172.8068346515853" y2="177.08958963109032" /><path d="M 144.38136562736335 173.6633856474863 a86.0,86.0 0 0,1 -40.68145358897372,12.25698825130547" fill="none" id="id102" stroke="none" /><text fill="#e1ed5e" style="font-size:6.75px; font-family:Arial;" text-anchor="middle"><textPath startOffset="21.466115282336833" xlink:href="#id102">June</textPath></text><path d="M 110.21172684928248 118.3499491758327 l 15.08695206973433 27.110478745061705 a52.025701934700905,52.025701934700905 0 0,0 -0.7862748090759608,0.42873971755046597 l -14.61805444878972 -27.36615911437194" fill="#a1ff22" stroke="none" /><path d="M 109.57404056367764 118.69057910512821 l 13.980402314042939 27.292741620865275 a51.66505167198987,51.66505167198987 0 0,0 -0.7950171217700852,0.39863808914023763 l -13.508531284590093 -27.529347550914814" fill="#a5ff21" stroke="none" /><path d="M 109.2508944713604 118.85261126421891 l 13.684114254668504 27.887172136391737 a52.063633926177495,52.063633926177495 0 0,0 -0.8079466073530739,0.3878634703639471 l -13.202054979315198 -28.118589883255243" fill="#a0ff22" stroke="none" /><path d="M 108.92500713936063 119.00905698771935 l 13.101172100191045 27.903723007698478 a51.826262635765396,51.826262635765396 0 0,0 -0.8107898064577195,0.37219383341597506 l -12.618914297965905 -28.125103911448527" fill="#a3ff21" stroke="none" /><path d="M 108.59647513512805 119.15986991738527 l 12.541397174315136 27.95233333023094 a51.63689902206585,51.63689902206585 0 0,0 -0.8140909376662502,0.3568735431455557 l -12.058385561991132 -28.16407142667095" fill="#a5ff21" stroke="none" /><path d="M 108.2653958097858 119.30500536409082 l 14.359303236864168 33.53819132098566 a57.482870864712055,57.482870864712055 0 0,0 -0.9129608582573013,0.3816177127948699 l -13.779870919109404 -33.780394076800505" fill="#61ff29" stroke="none" /><path d="M 107.93186726928326 119.44442032107085 l 11.497142566219168 28.184444464240443 a51.4392377852308,51.4392377852308 0 0,0 -0.8227312303109474,0.3273817357782225 l -11.010290259866355 -28.378173044424734" fill="#a8ff21" stroke="none" /><path d="M 105.53697534728816 120.25689768951611 l 8.054999344543319 29.469030901762768 a51.550070322826464,51.550070322826464 0 0,0 -0.8579639167412973,0.22659606832407 l -7.546544984990524 -29.60331831939042" fill="#a6ff21" stroke="none" /><path d="M 105.18746579009965 120.34920634021253 l 7.639732993195905 29.968872924304414 a51.92731583180849,51.92731583180849 0 0,0 -0.868043507374201,0.21334397471897085 l -7.122736201078492 -30.095938157337415" fill="#a2ff22" stroke="none" /><path d="M 104.83641907484287 120.43548508189849 l 7.055373815650092 29.811309592028913 a51.634824616281975,51.634824616281975 0 0,0 -0.8666778698510875,0.1972530615172156 l -6.541175796406142 -29.928339387123813" fill="#a5ff21" stroke="none" /><path d="M 104.13013068566511 120.58985236759428 l 6.004290819986066 29.933062889438812 a51.5293262649877,51.5293262649877 0 0,0 -0.8711704582557862,0.16696189172788714 l -5.488152747158575 -30.031981979515166" fill="#a7ff21" stroke="none" /><path d="M 103.41894727170886 120.7198165907248 l 4.959388139011019 30.05533706027702 a51.46175990517003,51.46175990517003 0 0,0 -0.8752521444626615,0.13669638449558238 l -4.441300130939841 -30.136251752119705" fill="#a7ff21" stroke="none" /><path d="M 103.06178313531738 120.77559828337769 l 6.38032911448251 43.2934498427457 a64.76107172928299,64.76107172928299 0 0,0 -1.1042422947788135,0.1530379201776381 l -5.634158228516866 -43.39686232841594" fill="#33ff52" stroke="none" /><path d="M 102.70371172650421 120.8252237178851 l 4.673981984331483 36.00114595165075 a57.303286592565065,57.303286592565065 0 0,0 -0.9792656250999578,0.11857542957998106 l -4.053588936180145 -36.07626690995608" fill="#63ff29" stroke="none" /><path d="M 102.34483914955558 120.86867818915974 l 3.3976238487476116 30.238286801363966 a51.42856941262801,51.42856941262801 0 0,0 -0.8805731982851037,0.0912750124488339 l -2.876618053856905 -30.292291182268556" fill="#a8ff21" stroke="none" /><path d="M 101.62511606390274 120.93702456842531 l 2.3554478447834057 30.346182953506467 a51.43745972313033,51.43745972313033 0 0,0 -0.8833458793854614,0.060920703675769315 l -1.8327392046190139 -30.38223200169852" fill="#a8ff21" stroke="none" /><path d="M 101.26447882468166 120.96189622390904 l 2.594295786392306 43.00693533730839 a64.08511178742279,64.08511178742279 0 0,0 -1.1016899996340757,0.05694478902948583 l -1.8536177183447506 -43.045219933100086" fill="#32ff4a" stroke="none" /><path d="M 100.90346689309514 120.98055641714683 l 1.570110044429722 36.46152683628846 a57.49531729941532,57.49531729941532 0 0,0 -0.9891375244898594,0.034067896319634375 l -0.9422521682652103 -36.483151531034196" fill="#61ff29" stroke="none" /><line stroke="#e1ed5e" stroke-width="0.3" x1="102.19456741930631" x2="102.32365962044197" y1="184.97166512339345" y2="189.96999836594603" /><path d="M 102.22038585953345 185.97133177190398 a86.0,86.0 0 0,1 -42.740103519485714,-10.115201625700543" fill="none" id="id103" stroke="none" /><text fill="#e1ed5e" style="font-size:6.75px; font-family:Arial;" text-anchor="middle"><textPath startOffset="22.20632615414155" xlink:href="#id103">July</textPath></text><path d="M 100.54218724476979 120.99299961872073 l 1.359644354631424 52.64419938630659 a73.66175426052843,73.66175426052843 0 0,0 -1.267825109665499,0.021826759025861706 l -0.45325955507325694 -52.659803622611605" fill="#3fffbe" stroke="none" /><path d="M 100.18074693466247 120.99922214144158 l 0.25615203476177933 29.75980472360383 a50.76090709390333,50.76090709390333 0 0,0 -0.8737979388484491,0.0 l 0.25615203476175885 -29.75980472360383" fill="#b0ff20" stroke="none" /><path d="M 99.81925306533755 120.99922214144158 l -0.31028913870609975 36.04946642074196 a57.05080177429901,57.05080177429901 0 0,0 -0.9819266421511698,-0.01690475763251114 l 0.9307754707499374 -36.03878418583028" fill="#66ff29" stroke="none" /><path d="M 99.45781275523022 120.99299961872073 l -0.7802853617983332 30.211943310619873 a51.222017865290624,51.222017865290624 0 0,0 -0.8812129809946356,-0.030350756824763646 l 1.300218694467612 -30.194035755369015" fill="#aaff21" stroke="none" /><path d="M 96.93821686468263 120.77559828337769 l -4.463162706492931 30.284599321838865 a51.61170980897592,51.61170980897592 0 0,0 -0.8778024648386051,-0.1370946920883172 l 4.983801034940053 -30.203286322403443" fill="#a6ff21" stroke="none" /><path d="M 96.22490169976321 120.6578951692458 l -5.455603132243839 29.853865681810994 a51.34826027442366,51.34826027442366 0 0,0 -0.8681093015629572,-0.16637521376208775 l 5.968680048378491 -29.75553326970044" fill="#a9ff21" stroke="none" /><path d="M 95.86986931433489 120.58985236759428 l -5.969670855444496 29.760472719022133 a51.353298117041646,51.353298117041646 0 0,0 -0.8652016836938823,-0.18131142501645772 l 6.481064000567765 -29.653305313279134" fill="#a9ff21" stroke="none" /><path d="M 95.51606077576429 120.51570834832081 l -6.480114866949266 29.648962670007904 a51.348852961790485,51.348852961790485 0 0,0 -0.8618779057533225,-0.19616060531590035 l 6.98951292209545 -29.533025331114317" fill="#a9ff21" stroke="none" /><path d="M 95.16358092515715 120.4354850818985 l -8.06874433119306 34.09313830297193 a56.03493562756655,56.03493562756655 0 0,0 -0.9367085757944229,-0.2302201779238464 l 8.654406191730693 -33.949196866734056" fill="#72ff27" stroke="none" /><path d="M 94.81253420990036 120.34920634021253 l -10.789165575301295 42.323355066657086 a64.67691012319432,64.67691012319432 0 0,0 -1.076438010356131,-0.2842970621278852 l 11.516094028468917 -42.13136665522562" fill="#33ff51" stroke="none" /><path d="M 94.11515582081647 120.15858648285463 l -17.555460341092164 60.13638675159115 a83.64646198569083,83.64646198569083 0 0,0 -1.3786730377514402,-0.41538287684712977 l 18.58800835328385 -59.82528850563829" fill="#4dd5ff" stroke="none" /><path d="M 93.76903079525671 120.05430185196036 l -8.986692427265265 28.92356496480693 a51.28750981932443,51.28750981932443 0 0,0 -0.8408188044872477,-0.26920362901411804 l 9.483232576843452 -28.764588489133104" fill="#aaff21" stroke="none" /><path d="M 93.08242187328487 119.8279376855182 l -11.843323532992352 33.94666120136962 a56.953304702456826,56.953304702456826 0 0,0 -0.9228616927495745,-0.3309053691736806 l 12.425904786371653 -33.73776829115599" fill="#67ff28" stroke="none" /><path d="M 92.7421414339146 119.70592522655815 l -11.888711751213282 32.27922708555513 a55.398982082966825,55.398982082966825 0 0,0 -0.8920021705627911,-0.3372788953151706 l 12.442584142536356 -32.06979994013332" fill="#79ff26" stroke="none" /><path d="M 92.40401165467489 119.57807347666478 l -13.128395866928125 33.837426708487136 a57.29498896942957,57.29498896942957 0 0,0 -0.9163894877736006,-0.3646502893087557 l 13.708906430743584 -33.606429574772314" fill="#63ff29" stroke="none" /><path d="M 91.07499286063937 119.00905698771935 l -12.854695452942641 27.37876111573268 a51.24631804733032,51.24631804733032 0 0,0 -0.795263136345501,-0.3817746335070536 l 13.324071257288384 -27.153432205726062" fill="#aaff21" stroke="none" /><path d="M 90.42595943632237 118.69057910512821 l -21.52858740539824 42.028416659193454 a68.2214769204717,68.2214769204717 0 0,0 -1.040569509557419,-0.5443767870482399 l 22.248847817482158 -41.6516104532005" fill="#38ff7e" stroke="none" /><path d="M 90.10565033884886 118.52300852407294 l -14.541679495033677 27.223179134090536 a51.86360193987515,51.86360193987515 0 0,0 -0.783824959525795,-0.4274038642431304 l 15.008127266428113 -26.96883461808764" fill="#a3ff22" stroke="none" /><line stroke="#e1ed5e" stroke-width="0.3" x1="58.666819895761336" x2="56.23545636021788" y1="174.27360380694188" y2="178.64263932499728" /><path d="M 58.180547188652646 175.14741091055294 a86.0,86.0 0 0,1 -31.652253787137756,-30.449443065178592" fill="none" id="id104" stroke="none" /><text fill="#e1ed5e" style="font-size:6.75px; font-family:Arial;" text-anchor="middle"><textPath startOffset="22.20632615414155" xlink:href="#id104">August</textPath></text><path d="M 89.1626897886671 117.98757091392108 l -25.711510957239017 42.675499513131804 a70.8224854297689,70.8224854297689 0 0,0 -1.0387999345171346,-0.6381157643424489 l 26.442290091688463 -42.226595281960975" fill="#3bff9d" stroke="none" /><path d="M 88.8546689885994 117.79835938074946 l -16.174206112447106 25.829141619318488 a51.475391714606914,51.475391714606914 0 0,0 -0.7469280286763689,-0.4767248075777973 l 16.6164159431704 -25.546902382916883" fill="#a7ff21" stroke="none" /><path d="M 88.54995079064634 117.60387380957326 l -17.797878373171592 27.3633413473453 a53.6422567277072,53.6422567277072 0 0,0 -0.7697032937497468,-0.5101173724595555 l 18.2662563656613 -27.052925953794425" fill="#8dff24" stroke="none" /><path d="M 88.24862548938628 117.40417183066458 l -28.78291043917476 42.62843624101852 a72.43578044225767,72.43578044225767 0 0,0 -1.0273570719854446,-0.706625562053512 l 29.512424395783096 -42.12666988959991" fill="#3dffb0" stroke="none" /><path d="M 87.65650970185807 116.9893568818739 l -18.486233403834195 25.44411743464768 a52.45065877671209,52.45065877671209 0 0,0 -0.7258547500933321,-0.536969991382778 l 18.921473124346093 -25.122137494525134" fill="#9cff22" stroke="none" /><path d="M 87.36589467227662 116.77436683061367 l -23.3897142219006 31.054644254108187 a59.87762417035529,59.87762417035529 0 0,0 -0.8179604847875692,-0.6271772201107105 l 23.920803435181657 -30.64742769217011" fill="#47ff2c" stroke="none" /><path d="M 87.07902340077011 116.55440617244103 l -38.76292979768965 49.663218517323095 a84.0,84.0 0 0,0 -1.1321700291305676,-0.8994643439794774 l 39.61205731953757 -48.98862025933849" fill="#4dd2ff" stroke="none" /><path d="M 86.79598089348748 116.32954008644616 l -18.711806389733912 23.141074703555415 a50.759721719169676,50.759721719169676 0 0,0 -0.674693076122819,-0.5552264687783073 l 19.10736959440142 -22.81555311591993" fill="#b0ff20" stroke="none" /><path d="M 86.51685102203217 116.09983520530335 l -27.69115888452247 33.06520571812871 a64.12897065256762,64.12897065256762 0 0,0 -0.840194941814196,-0.7160323570540591 l 28.25621930291372 -32.5836489708517" fill="#32ff4a" stroke="none" /><path d="M 85.97065885151581 115.62618273729859 l -20.547387656736113 22.886123510722584 a51.75662187016384,51.75662187016384 0 0,0 -0.6578031283438274,-0.6008875613804459 l 20.938290334546796 -22.529043182755565" fill="#a4ff21" stroke="none" /><path d="M 85.70375840098266 115.38237550388516 l -20.77104547066847 22.349092160002183 a51.51095295661622,51.51095295661622 0 0,0 -0.6442895941944514,-0.6092160258396789 l 21.15267089925374 -21.988241497416574" fill="#a7ff21" stroke="none" /><path d="M 85.44109423537348 115.13401014063109 l -43.485649247333335 45.203414825314105 a83.72440037442789,83.72440037442789 0 0,0 -1.0300096582876912,-1.0080812389306506 l 44.25730885799682 -44.44818348346089" fill="#4dd5ff" stroke="none" /><path d="M 85.18274418774928 114.88116024355367 l -21.5504015262587 21.643344927610173 a51.54266173074119,51.54266173074119 0 0,0 -0.6233210550530056,-0.6314209378939132 l 21.919763206367236 -21.269183495735593" fill="#a6ff21" stroke="none" /><path d="M 84.9287848128048 114.62390073753433 l -21.54161990863357 20.902263510722083 a51.01576266163667,51.01576266163667 0 0,0 -0.6060999314516355,-0.6354933549714459 l 21.898226391464163 -20.528363039168138" fill="#adff20" stroke="none" /><path d="M 84.67929136418377 114.36230785411682 l -22.03745904517197 20.658885868329076 a51.206607993753266,51.206607993753266 0 0,0 -0.5972972648773562,-0.648248213381846 l 22.389802718045054 -20.276486400145888" fill="#abff21" stroke="none" /><path d="M 84.43433777217949 114.09645910891817 l -33.12485327613139 29.998282942394365 a65.68951648940924,65.68951648940924 0 0,0 -0.7518044742432889,-0.8446602966368536 l 33.636316600023015 -29.42364847601665" fill="#34ff5e" stroke="none" /><path d="M 84.19399662182784 113.82643327865904 l -22.624656923315413 19.791107335505743 a51.05932518309806,51.05932518309806 0 0,0 -0.5729767826504012,-0.6665014444783603 l 22.96197621553659 -19.39872879186585" fill="#acff20" stroke="none" /><path d="M 83.72743513129214 113.27417163493432 l -23.676206435664586 19.313613460869515 a51.554515478077626,51.554515478077626 0 0,0 -0.5550263096325609,-0.6924806604630716 l 24.005150657352008 -18.903204966828184" fill="#a6ff21" stroke="none" /><path d="M 83.50135304334701 112.99209946851258 l -49.29990443279792 38.82192666234325 a83.75047861856805,83.75047861856805 0 0,0 -0.882144520245294,-1.1402907066950534 l 49.96085577026129 -37.96755796153494" fill="#4dd4ff" stroke="none" /><path d="M 83.28015986056508 112.70617746262583 l -23.836926440067984 18.114779506575953 a50.93900964763324,50.93900964763324 0 0,0 -0.5245231867624311,-0.7026845250224025 l 24.1452108935255 -17.70178210204424" fill="#aeff20" stroke="none" /><path d="M 83.06392112726016 112.41649034213515 l -24.23985300772985 17.771167873438408 a51.05636174626395,51.05636174626395 0 0,0 -0.5135302537424745,-0.7132486078230422 l 24.54216305384793 -17.35128566016423" fill="#acff20" stroke="none" /><path d="M 82.85270091963577 112.12312394758628 l -43.74174034825127 30.925368330003035 a74.56975130649934,74.56975130649934 0 0,0 -0.7319876613079551,-1.0544828203336387 l 44.26758891672136 -30.167844247482385" fill="#40ffc8" stroke="none" /><path d="M 82.24976979558568 111.22182372390057 l -50.19027442482199 31.730653955658443 a80.379272876086,80.379272876086 0 0,0 -0.7292901771748926,-1.1758479766536254 l 50.72902924166484 -30.862009647639553" fill="#48f7ff" stroke="none" /><path d="M 82.05923443525364 110.91462005526583 l -25.411984554320522 15.459884098018058 a50.74520087868254,50.74520087868254 0 0,0 -0.4475705556793759,-0.7501539955288992 l 25.674335985698132 -15.020168008603047" fill="#b0ff20" stroke="none" /><line stroke="#e1ed5e" stroke-width="0.3" x1="26.63291911575756" x2="22.317208475507996" y1="142.92168965132927" y2="145.44649492493687" /><path d="M 25.769776987707644 143.4266507060508 a86.0,86.0 0 0,1 -11.730757126820373,-40.83630448921669" fill="none" id="id105" stroke="none" /><text fill="#e1ed5e" style="font-size:6.75px; font-family:Arial;" text-anchor="middle"><textPath startOffset="21.46611528233685" xlink:href="#id105">September</textPath></text><path d="M 81.87401531095188 110.60418214915194 l -29.86284348530766 17.470556068667157 a55.597828694535515,55.597828694535515 0 0,0 -0.47615040518925217,-0.8302083662845663 l 30.15914588664929 -16.953927856524285" fill="#77ff27" stroke="none" /><path d="M 81.69416730710424 110.29060199501025 l -26.333357652220943 14.803265567724171 a51.208978743220555,51.208978743220555 0 0,0 -0.4253359019387378,-0.7721082091829928 l 26.584269963611195 -14.347786840143357" fill="#abff21" stroke="none" /><path d="M 81.35079622478065 109.6543875284942 l -38.438636208614746 19.899052769099292 a64.2839583989915,64.2839583989915 0 0,0 -0.5002557139508326,-0.9870519828968867 l 38.77547059235185 -19.23444657449972" fill="#32ff4c" stroke="none" /><path d="M 81.18737489456691 109.33194174019688 l -27.414942637685872 13.599093484929911 a51.60252315479019,51.60252315479019 0 0,0 -0.3878709633546281,-0.7991290680949945 l 27.644966857655216 -13.125175460869631" fill="#a6ff21" stroke="none" /><path d="M 80.87730276802145 108.67885076344099 l -56.98031447221939 25.860559300774067 a83.5741541269386,83.5741541269386 0 0,0 -0.5832636844449975,-1.315105631307747 l 57.41701924139567 -24.875905332973623" fill="#4cd6ff" stroke="none" /><path d="M 80.73074385275274 108.34839909993369 l -28.20491357404437 12.219769839371683 a51.73824856179236,51.73824856179236 0 0,0 -0.3470134068931909,-0.8202371877922332 l 28.411077962129866 -11.732458125913292" fill="#a4ff21" stroke="none" /><path d="M 80.58989483394504 108.01547362559985 l -28.15634378517368 11.627264719722891 a51.462648936220255,51.462648936220255 0 0,0 -0.33106996831777047,-0.821688510514211 l 28.352316367748834 -11.140876841365875" fill="#a7ff21" stroke="none" /><path d="M 80.45479744820244 107.68017299344265 l -58.23733201129495 22.88401889609301 a83.57207972115472,83.57207972115472 0 0,0 -0.5145879987720287,-1.3434268849810662 l 58.62261428966049 -21.878168444278785" fill="#4cd6ff" stroke="none" /><path d="M 80.32549172779594 107.34259656027581 l -28.186730905621197 10.519388364355232 a51.08569977092162,51.08569977092162 0 0,0 -0.30037354910856123,-0.8264990018407009 l 28.363628715734983 -10.032641565508413" fill="#acff20" stroke="none" /><path d="M 80.0844068197444 106.66101706037122 l -28.170703091042633 9.422040920082656 a50.70460179405526,50.70460179405526 0 0,0 -0.2697189014062552,-0.8301094225230305 l 28.328714243465136 -8.935732597581822" fill="#b1ff20" stroke="none" /><path d="M 79.86692584326677 105.97154293290107 l -31.18675132321603 9.250103735499874 a53.529646128011066,53.529646128011066 0 0,0 -0.2544120394503216,-0.8856416850505616 l 31.341355999552455 -8.711904574944716" fill="#8fff24" stroke="none" /><path d="M 79.76711848015287 105.62410040840567 l -43.13155327244595 11.989206091914443 a65.76686219077948,65.76686219077948 0 0,0 -0.29379599309916266,-1.0933241851140931 l 43.331537341886886 -11.24499097362481" fill="#34ff5f" stroke="none" /><path d="M 79.67330655649465 105.27499134158121 l -32.172226528266386 8.349032116200808 a54.23790753136304,54.23790753136304 0 0,0 -0.22673688655069085,-0.905701153361312 l 32.31117472911213 -7.7940031234421046" fill="#86ff25" stroke="none" /><path d="M 79.58551787078972 104.9243191809786 l -34.016902845829975 8.205453662795712 a55.992558480838795,55.992558480838795 0 0,0 -0.21794285915828843,-0.9388921331593448 l 34.15310627091882 -7.618692872287793" fill="#72ff27" stroke="none" /><line stroke="#e1ed5e" stroke-width="0.3" x1="15.007084014347285" x2="10.007500721073583" y1="101.09737516637583" y2="101.16192664675087" /><path d="M 14.007167355692545 101.11028546245083 a86.0,86.0 0 0,1 10.666146001902534,-42.60595125391555" fill="none" id="id106" stroke="none" /><text fill="#e1ed5e" style="font-size:6.75px; font-family:Arial;" text-anchor="middle"><textPath startOffset="22.20632615414155" xlink:href="#id106">October</textPath></text><line stroke="#e1ed5e" stroke-width="0.3" x1="26.266209847984243" x2="21.928928074336255" y1="57.711370442889674" y2="55.22380399835377" /><path d="M 25.398753493254645 57.213857153982495 a86.0,86.0 0 0,1 29.58750427330803,-30.492523968695096" fill="none" id="id107" stroke="none" /><text fill="#e1ed5e" style="font-size:6.75px; font-family:Arial;" text-anchor="middle"><textPath startOffset="21.46611528233685" xlink:href="#id107">November</textPath></text><line stroke="#e1ed5e" stroke-width="0.3" x1="56.762969772571076" x2="54.21961505331055" y1="26.818313649435495" y2="22.513508569990535" /><path d="M 56.25429882871897 25.957352633546506 a86.0,86.0 0 0,1 42.265352541879196,-11.944610805530505" fill="none" id="id108" stroke="none" /><text fill="#e1ed5e" style="font-size:6.75px; font-family:Arial;" text-anchor="middle"><textPath startOffset="22.20632615414155" xlink:href="#id108">December</textPath></text></svg>