<?xml version="1.0" encoding="utf-8" ?>
<svg baseProfile="full" height="200mm" version="1.1" viewBox="0,0,200,200" width="200mm" xmlns="http://www.w3.org/2000/svg" xmlns:ev="http://www.w3.org/2001/xml-events" xmlns:xlink="http://www.w3.org/1999/xlink"><defs /><rect fill="#1a1a1a" height="200" width="200" x="0" y="0" /><rect fill="#1a1a1a" height="200" width="180" x="10" y="0" /><text alignment-baseline="middle" fill="#e1ed5e" style="dominant-baseline: central; font-size:9.0px; font-family:Arial;" text-anchor="middle" x="100.0" y="100.0">2017</text><line stroke="#e1ed5e" stroke-width="0.3" x1="100.0" x2="100.0" y1="15.0" y2="10.0" /><path d="M 100.0 14.0 a86.0,86.0 0 0,1 42.46469731375804,11.215312516191453" fill="none" id="id1" stroke="none" /><text fill="#e1ed5e" style="font-size:6.75px; font-family:Arial;" text-anchor="middle"><textPath startOffset="22.20632615414155" xlink:href="#id1">January</textPath></text><line stroke="#e1ed5e" stroke-width="0.3" x1="143.23703022742887" x2="145.7803849466894" y1="26.81831364943548" y2="22.513508569990506" /><path d="M 143.74570117128098 25.957352633546492 a86.0,86.0 0 0,1 28.547481713284135,27.462654790039103" fill="none" id="id2" stroke="none" /><text fill="#e1ed5e" style="font-size:6.75px; font-family:Arial;" text-anchor="middle"><textPath startOffset="19.985693538727396" xlink:href="#id2">February</textPath></text><line stroke="#e1ed5e" stroke-width="0.3" x1="172.23445277983987" x2="176.4835382374775" y1="55.19839476539836" y2="52.563006222186495" /><path d="M 173.08426987136738 54.67131705675599 a86.0,86.0 0 0,1 12.851231095245387,41.99856678651699" fill="none" id="id3" stroke="none" /><text fill="#e1ed5e" style="font-size:6.75px; font-family:Arial;" text-anchor="middle"><textPath startOffset="22.20632615414155" xlink:href="#id3">March</textPath></text><line stroke="#e1ed5e" stroke-width="0.3" x1="184.98032266829074" x2="189.97916517819016" y1="98.17113171792111" y2="98.06355123074" /><path d="M 185.9800911702706 98.14961562048488 a86.0,86.0 0 0,1 -9.607161424134198,41.387399972396054" fill="none" id="id4" stroke="none" /><text fill="#e1ed5e" style="font-size:6.75px; font-family:Arial;" text-anchor="middle"><textPath startOffset="21.466115282336823" xlink:href="#id4">April</textPath></text><line stroke="#e1ed5e" stroke-width="0.3" x1="174.80103733775053" x2="179.2010983576182" y1="140.37084112569926" y2="142.7455964860345" /><path d="M 175.68104954172406 140.8457921977663 a86.0,86.0 0 0,1 -30.038265399797805,32.042727171017184" fill="none" id="id5" stroke="none" /><text fill="#e1ed5e" style="font-size:6.75px; font-family:Arial;" text-anchor="middle"><textPath startOffset="22.206326154141568" xlink:href="#id5">May</textPath></text><path d="M 115.80600337817218 113.82643327865902 l 27.172426403377855 23.769306617029383 a57.10153312120335,57.10153312120335 0 0,0 -0.6535165789139774,0.7342328042915404 l -26.759250974815536 -24.23351359106179" fill="red" stroke="none" /><path d="M 114.55890576462653 115.13401014063108 l 26.140332103279402 27.172924773762546 a58.70523575354354,58.70523575354354 0 0,0 -0.7342743698140687,0.6943022477545314 l -25.668721899074527 -27.618861658263" fill="red" stroke="none" /><path d="M 114.29624159901734 115.38237550388516 l 29.93999288086077 32.214635566085065 a64.97938060457044,64.97938060457044 0 0,0 -0.8258583789868558,0.7544020482913223 l -29.381034952407052 -32.72523038096297" fill="red" stroke="none" /><line stroke="#e1ed5e" stroke-width="0.3" x1="143.8653032363475" x2="146.44561519142675" y1="172.8068346515853" y2="177.08958963109032" /><path d="M 144.38136562736335 173.6633856474863 a86.0,86.0 0 0,1 -40.68145358897372,12.25698825130547" fill="none" id="id6" stroke="none" /><text fill="#e1ed5e" style="font-size:6.75px; font-family:Arial;" text-anchor="middle"><textPath startOffset="21.466115282336833" xlink:href="#id6">June</textPath></text><path d="M 108.92500713936063 119.00905698771935 l 15.73598873207074 33.515525746399696 a58.02582622215794,58.02582622215794 0 0,0 -0.9077781421912845,0.41671642137378706 l -15.156742594112037 -33.781429238107556" fill="red" stroke="none" /><path d="M 108.59647513512805 119.15986991738527 l 13.49058494864378 30.067888135827243 a53.95563349725195,53.95563349725195 0 0,0 -0.8506473684135084,0.37289880809068354 l -12.971016905572519 -30.295651497212383" fill="red" stroke="none" /><path d="M 107.59598834532513 119.57807347666477 l 14.920818913172596 38.45725871787116 a62.250352545559736,62.250352545559736 0 0,0 -1.0023189506583419,0.3789912621156646 l -14.25662974175398 -38.70839823009346" fill="red" stroke="none" /><line stroke="#e1ed5e" stroke-width="0.3" x1="102.19456741930631" x2="102.32365962044197" y1="184.97166512339345" y2="189.96999836594603" /><path d="M 102.22038585953345 185.97133177190398 a86.0,86.0 0 0,1 -42.740103519485714,-10.115201625700543" fill="none" id="id7" stroke="none" /><text fill="#e1ed5e" style="font-size:6.75px; font-family:Arial;" text-anchor="middle"><textPath startOffset="22.20632615414155" xlink:href="#id7">July</textPath></text><path d="M 97.2962882734958 120.8252237178851 l -4.742224924115338 36.526784271089106 a57.83333634654324,57.83333634654324 0 0,0 -0.9861173439034566,-0.13666687834331115 l 5.370270859205625 -36.43974282725319" fill="red" stroke="none" /><line stroke="#e1ed5e" stroke-width="0.3" x1="58.666819895761336" x2="56.23545636021788" y1="174.27360380694188" y2="178.64263932499728" /><path d="M 58.180547188652646 175.14741091055294 a86.0,86.0 0 0,1 -31.652253787137756,-30.449443065178592" fill="none" id="id8" stroke="none" /><text fill="#e1ed5e" style="font-size:6.75px; font-family:Arial;" text-anchor="middle"><textPath startOffset="22.20632615414155" xlink:href="#id8">August</textPath></text><path d="M 88.24862548938628 117.40417183066458 l -20.963685585149452 31.04790727233088 a58.462630170668206,58.462630170668206 0 0,0 -0.8291758049129346,-0.5703146794477673 l 21.49501827468528 -30.682451803518013" fill="red" stroke="none" /><path d="M 87.95078237400918 117.19931262002967 l -17.787910215849966 25.390845958288136 a52.00169041076077,52.00169041076077 0 0,0 -0.7286988758833088,-0.519907299787603 l 18.222336419582163 -25.080894396656316" fill="red" stroke="none" /><path d="M 87.65650970185807 116.9893568818739 l -21.446234173995446 29.518208979278377 a57.48651287243275,57.48651287243275 0 0,0 -0.7955449828074108,-0.5885251594864942 l 21.95116412722142 -29.144673871052117" fill="red" stroke="none" /><path d="M 87.36589467227662 116.77436683061367 l -22.771403356174535 30.23370972744374 a58.84988790859126,58.84988790859126 0 0,0 -0.8039210558263503,-0.6164123846552106 l 23.288453140494372 -29.837258000961164" fill="red" stroke="none" /><path d="M 87.07902340077011 116.55440617244103 l -23.244302421351072 29.78069192548765 a58.77813132774082,58.77813132774082 0 0,0 -0.7922242697329602,-0.6293908730362615 l 23.75348418380139 -29.376167138446256" fill="red" stroke="none" /><path d="M 86.51685102203217 116.09983520530335 l -33.01216613917906 39.41886539111604 a72.41643766271334,72.41643766271334 0 0,0 -0.9487743840151392,-0.8085661132783967 l 33.685805999771254 -38.8447748876147" fill="red" stroke="none" /><path d="M 86.24171649860922 115.8653595955263 l -29.886060216446747 34.46309942512447 a66.61668354064219,66.61668354064219 0 0,0 -0.8598553094139484,-0.7587223368952608 l 30.474857878767285 -33.94355394645692" fill="red" stroke="none" /><path d="M 85.97065885151581 115.62618273729859 l -30.30631403307072 33.75582617619124 a66.36439651431877,66.36439651431877 0 0,0 -0.8434613013824753,-0.7704819005384543 l 30.88287488392005 -33.229151509066206" fill="red" stroke="none" /><path d="M 85.70375840098266 115.38237550388516 l -31.046095822772013 33.40477289557734 a66.60415461382702,66.60415461382702 0 0,0 -0.8330726046545663,-0.7877221454711113 l 31.616504261817397 -32.8654161133603" fill="red" stroke="none" /><path d="M 85.18274418774928 114.88116024355367 l -20.407614195927945 20.49562894008605 a49.92302755279144,49.92302755279144 0 0,0 -0.6037343272686811,-0.611579686058133 l 20.75738914825216 -20.141308760047252" fill="red" stroke="none" /><path d="M 84.67929136418377 114.36230785411682 l -43.76423353282471 41.026522332555544 a80.98736259762799,80.98736259762799 0 0,0 -0.944673589297206,-1.0252566058822836 l 44.46395353011765 -40.26711447187191" fill="red" stroke="none" /><path d="M 84.43433777217949 114.09645910891817 l -30.271318240566174 27.414085793826107 a61.83974544402661,61.83974544402661 0 0,0 -0.7077445503557755,-0.7951585050731856 l 30.738721640570287 -26.888953119012058" fill="red" stroke="none" /><path d="M 84.19399662182784 113.82643327865904 l -33.70320455648651 29.482159273785143 a65.77838443737345,65.77838443737345 0 0,0 -0.7381509048095223,-0.8586362644971838 l 34.20569797086681 -28.89764591012643" fill="red" stroke="none" /><path d="M 83.72743513129214 113.27417163493432 l -23.736756717970604 19.36300670934379 a51.63265656638704,51.63265656638704 0 0,0 -0.5558675620325275,-0.6935302521804996 l 24.06654219205799 -18.95154862358503" fill="red" stroke="none" /><path d="M 83.50135304334701 112.99209946851258 l -38.736264976474985 30.503435156546836 a70.30474399768586,70.30474399768586 0 0,0 -0.7405204804531921,-0.9572225441510762 l 39.255592274146245 -29.832134618282506" fill="red" stroke="none" /><path d="M 83.06392112726016 112.41649034213515 l -40.58357502946117 29.75337864148139 a71.32186505640729,71.32186505640729 0 0,0 -0.7173628164463455,-0.9963542097189839 l 41.089717638283126 -29.05039082631127" fill="red" stroke="none" /><path d="M 82.85270091963577 112.12312394758628 l -51.44189724109269 36.36937184275885 a84.0,84.0 0 0,0 -0.8245563713514645,-1.1878349512519497 l 52.06031451960629 -35.47849562931989" fill="red" stroke="none" /><path d="M 82.6465618267979 111.8261652097733 l -26.331815684801953 17.944824504152226 a52.86504736765983,52.86504736765983 0 0,0 -0.5059862072959175,-0.7563807267972628 l 26.6368049975086 -17.488906863149143" fill="red" stroke="none" /><path d="M 82.44556493220864 111.52570212397912 l -52.533341702501595 34.49177633469825 a83.84452740815738,83.84452740815738 0 0,0 -0.7817309856651053,-1.2132638497206258 l 53.119277551543746 -33.58239088505618" fill="red" stroke="none" /><path d="M 82.24976979558568 111.22182372390057 l -51.48648229409398 32.55012593157037 a81.9127946919294,81.9127946919294 0 0,0 -0.7432039929729295,-1.1982814779754585 l 52.03915092673487 -31.65904812222965" fill="red" stroke="none" /><path d="M 82.05923443525364 110.91462005526583 l -51.64019334710228 31.416334377147628 a81.44580741972808,81.44580741972808 0 0,0 -0.7183486251586897,-1.2039936151016868 l 52.173322847959206 -30.52277866815983" fill="red" stroke="none" /><line stroke="#e1ed5e" stroke-width="0.3" x1="26.63291911575756" x2="22.317208475507996" y1="142.92168965132927" y2="145.44649492493687" /><path d="M 25.769776987707644 143.4266507060508 a86.0,86.0 0 0,1 -11.730757126820373,-40.83630448921669" fill="none" id="id9" stroke="none" /><text fill="#e1ed5e" style="font-size:6.75px; font-family:Arial;" text-anchor="middle"><textPath startOffset="21.46611528233685" xlink:href="#id9">September</textPath></text><path d="M 81.87401531095188 110.60418214915194 l -40.77019352295184 23.851645347288418 a68.23462358981777,68.23462358981777 0 0,0 -0.5843743259963161,-1.0189058944331173 l 41.17471984510053 -23.146319606996993" fill="red" stroke="none" /><path d="M 81.35079622478065 109.6543875284942 l -54.57754624862951 28.253902321488592 a82.45723351171537,82.45723351171537 0 0,0 -0.6416795612489977,-1.26609465050004 l 55.05580447966477 -27.310253459285867" fill="red" stroke="none" /><path d="M 81.02952815118164 109.00673069616217 l -54.28510682172401 25.77328291315634 a81.09271948221001,81.09271948221001 0 0,0 -0.5878271568895177,-1.2661274003811411 l 54.72070859545335 -24.835035445496374" fill="red" stroke="none" /><path d="M 80.58989483394504 108.01547362559985 l -55.71526950949846 23.007823475247 a81.27894489441712,81.27894489441712 0 0,0 -0.52288442719779,-1.2977562668651357 l 56.10305655095364 -22.04536784053906" fill="red" stroke="none" /><path d="M 79.50377843672027 104.57218783832718 l -58.2092395951938 12.985006847907558 a80.63996962684408,80.63996962684408 0 0,0 -0.29055718185938373,-1.3573864221804606 l 58.42413081577763 -11.981106606310934" fill="red" stroke="none" /><path d="M 79.4281124754447 104.21870165774334 l -51.16881377995788 10.493250036517251 a73.23366538906566,73.23366538906566 0 0,0 -0.24261290521690068,-1.237077976822365 l 51.341856618150445 -9.610908332626932" fill="red" stroke="none" /><path d="M 79.23777060512086 103.15116336523772 l -61.95392646279478 9.402985570053579 a83.66342746601099,83.66342746601099 0 0,0 -0.20384374578582795,-1.4256826832548262 l 62.10660425959721 -8.335157414818351" fill="red" stroke="none" /><path d="M 79.1416061653843 102.43462659150553 l -39.495831809942835 4.6100195029656525 a60.76396622794331,60.76396622794331 0 0,0 -0.11231987241126519,-1.039942521866272 l 39.56933398385515 -3.9294806592145988" fill="red" stroke="none" /><path d="M 79.07016306316243 101.71520430193888 l -47.118242428622196 3.8613493433925967 a68.27619684697714,68.27619684697714 0 0,0 -0.0859091467623044,-1.1721620524366871 l 47.177728134048834 -3.0497141544591493" fill="red" stroke="none" /><line stroke="#e1ed5e" stroke-width="0.3" x1="15.007084014347285" x2="10.007500721073583" y1="101.09737516637583" y2="101.16192664675087" /><path d="M 14.007167355692545 101.11028546245083 a86.0,86.0 0 0,1 10.666146001902534,-42.60595125391555" fill="none" id="id10" stroke="none" /><text fill="#e1ed5e" style="font-size:6.75px; font-family:Arial;" text-anchor="middle"><textPath startOffset="22.20632615414155" xlink:href="#id10">October</textPath></text><path d="M 79.00486145842228 99.54816195383935 l -37.33154420620188 -0.8034151315975346 a58.340188385883714,58.340188385883714 0 0,0 0.03024884746003472,-1.0038119842223532 l 37.3121836642862 1.445897263244882" fill="red" stroke="none" /><path d="M 79.01574976396665 99.18683210126434 l -56.93313293085207 -2.2062354171854364 a77.97586418860284,77.97586418860284 0 0,0 0.06351836576865386,-1.3407723099989113 l 56.88672095684991 3.1859188338073565" fill="red" stroke="none" /><path d="M 79.21141760316559 97.0276538004421 l -46.01830385738364 -6.579685327722184 a67.4863049609488,67.4863049609488 0 0,0 0.1743206817947359,-1.1485554902105268 l 45.898227282149605 7.370839930324803" fill="red" stroke="none" /><path d="M 79.26566170972629 96.67025291283419 l -59.34657037827187 -9.53052212633321 a81.10695689904541,81.10695689904541 0 0,0 0.23323324499489795,-1.3765558145369232 l 59.173725271756744 10.550663729185962" fill="red" stroke="none" /><path d="M 79.32604984820605 96.31383870115002 l -57.79451504504067 -10.304750813493952 a79.70599508244142,79.70599508244142 0 0,0 0.2524565029977486,-1.3486327338310387 l 57.608572818133055 11.298061624787563" fill="red" stroke="none" /><path d="M 80.02781315780177 93.51064311812611 l -55.988706743158325 -18.191833587460263 a79.87001012438532,79.87001012438532 0 0,0 0.4361005479684742,-1.303885130500273 l 55.667268901418076 19.15289182088286" fill="red" stroke="none" /><path d="M 80.38941819471856 92.48833698450439 l -54.861198235533585 -21.014105438760943 a79.74813783627422,79.74813783627422 0 0,0 0.5020580098514005,-1.2776828729868708 l 54.49134667580049 21.955337316643575" fill="red" stroke="none" /><path d="M 80.52162464483688 92.15188598940014 l -53.93881610499759 -21.73271490409963 a79.15244431588084,79.15244431588084 0 0,0 0.520062892644726,-1.2593735455578117 l 53.55673152546667 22.657963020110756" fill="red" stroke="none" /><path d="M 81.10775173730289 90.83032412892265 l -46.136952394211036 -22.393359077838177 a72.28431443448078,72.28431443448078 0 0,0 0.5529405397345919,-1.1146943872158435 l 45.74465184152304 23.18421305355298" fill="red" stroke="none" /><path d="M 81.43458229118936 90.18545643968196 l -32.80885101771709 -17.344285085735244 a58.11125072317038,58.11125072317038 0 0,0 0.4751062425453846,-0.880299711303576 l 32.505436675953234 17.906465780371295" fill="red" stroke="none" /><line stroke="#e1ed5e" stroke-width="0.3" x1="26.266209847984243" x2="21.928928074336255" y1="57.711370442889674" y2="55.22380399835377" /><path d="M 25.398753493254645 57.213857153982495 a86.0,86.0 0 0,1 29.58750427330803,-30.492523968695096" fill="none" id="id11" stroke="none" /><text fill="#e1ed5e" style="font-size:6.75px; font-family:Arial;" text-anchor="middle"><textPath startOffset="21.46611528233685" xlink:href="#id11">November</textPath></text><path d="M 82.54541684631803 88.32363383020206 l -12.900651104745307 -8.629981294972328 a36.521062337286665,36.521062337286665 0 0,0 0.3540378466503988,-0.5195068539837449 l 12.750188792426167 8.85076617222649" fill="red" stroke="none" /><path d="M 83.39014120810768 87.1503855733568 l -19.8031846234114 -15.320015059650943 a46.03735175007232,46.03735175007232 0 0,0 0.4902888504363657,-0.6226170504418814 l 19.536541692381064 15.658624504045873" fill="red" stroke="none" /><line stroke="#e1ed5e" stroke-width="0.3" x1="56.762969772571076" x2="54.21961505331055" y1="26.818313649435495" y2="22.513508569990535" /><path d="M 56.25429882871897 25.957352633546506 a86.0,86.0 0 0,1 42.265352541879196,-11.944610805530505" fill="none" id="id12" stroke="none" /><text fill="#e1ed5e" style="font-size:6.75px; font-family:Arial;" text-anchor="middle"><textPath startOffset="22.20632615414155" xlink:href="#id12">December</textPath></text></svg>