<?xml version="1.0" encoding="utf-8" ?>
<svg baseProfile="full" height="200mm" version="1.1" viewBox="0,0,200,200" width="200mm" xmlns="http://www.w3.org/2000/svg" xmlns:ev="http://www.w3.org/2001/xml-events" xmlns:xlink="http://www.w3.org/1999/xlink"><defs /><rect fill="#1a1a1a" height="200" width="200" x="0" y="0" /><rect fill="#1a1a1a" height="200" width="180" x="10" y="0" /><text alignment-baseline="middle" fill="#e1ed5e" style="dominant-baseline: central; font-size:9.0px; font-family:Arial;" text-anchor="middle" x="100.0" y="100.0">2023</text><line stroke="#e1ed5e" stroke-width="0.3" x1="100.0" x2="100.0" y1="15.0" y2="10.0" /><path d="M 100.0 14.0 a86.0,86.0 0 0,1 42.46469731375804,11.215312516191453" fill="none" id="id73" stroke="none" /><text fill="#e1ed5e" style="font-size:6.75px; font-family:Arial;" text-anchor="middle"><textPath startOffset="22.20632615414155" xlink:href="#id73">January</textPath></text><path d="M 100.0 79.0 l 0.0 -4.004878100849666 a25.004878100849666,25.004878100849666 0 0,0 0.4304178723831565,0.003704742515373789 l -0.06893739311062812 4.004284734942851" fill="#ff2703" stroke="none" /><path d="M 100.36148047927253 79.00311137660856 l 0.12951725752794363 -7.52311559560337 a28.52423039152897,28.52423039152897 0 0,0 0.49085224357445895,0.012677265296350576 l -0.25899613629727036 7.51977153816466" fill="#ff5808" stroke="none" /><path d="M 101.08401301168833 79.027996857942 l 0.3986192759987077 -7.711941294606314 a28.722236454463943,28.722236454463943 0 0,0 0.4935272835701418,0.029770913509501267 l -0.5313086084084615 7.703937111716509" fill="#ff5b08" stroke="none" /><path d="M 101.80526077348638 79.07773832637324 l 0.6453865716578805 -7.479776291152516 a28.50756799453482,28.50756799453482 0 0,0 0.48853130519044957,0.04639193397189336 l -0.7740430039385743 7.467558812665444" fill="#ff5808" stroke="none" /><path d="M 103.2404852339499 79.25152402106235 l 3.9394012135962875 -25.22355929765177 a46.52933265018573,46.52933265018573 0 0,0 0.7902692387700048,0.1304011956851794 l -4.372999658505168 25.15201183902697" fill="#c1ff1e" stroke="none" /><path d="M 103.95276090670814 79.375362276772 l 1.4131951433465915 -7.37374168376456 a28.50794159087998,28.50794159087998 0 0,0 0.48115105222652677,0.09651437464255155 l -1.5399126050402436 7.348323353044801" fill="#ff5808" stroke="none" /><path d="M 104.66035177308747 79.52364482259891 l 1.762530674098697 -7.74409440556016 a28.94213526322531,28.94213526322531 0 0,0 0.48481703020615874,0.11474052723978208 l -1.8955713912673793 7.712607966179509" fill="#ff5e08" stroke="none" /><path d="M 106.74666289553966 80.11325718540242 l 4.833749723529621 -14.248160767824562 a36.04577088937279,36.04577088937279 0 0,0 0.5858604896169101,0.2043952211550758 l -5.078292217209805 14.162844693497277" fill="#ffbd11" stroke="none" /><path d="M 107.4271985657038 80.35727306442388 l 2.252429595054288 -5.957005065350518 a27.368622176679047,27.368622176679047 0 0,0 0.43922316306210935,0.17041176352684617 l -2.3546359231160645 5.917350597933125" fill="#ff4806" stroke="none" /><path d="M 108.09893153111575 80.62456947434976 l 3.170879868812119 -7.585835534886695 a29.221884206481363,29.221884206481363 0 0,0 0.4624241309421153,0.1979858799388017 l -3.3009877575445494 7.530130126985102" fill="#ff6209" stroke="none" /><path d="M 109.08828744355905 81.06846463323043 l 3.4066041359038866 -7.096193543609154 a28.871525553990008,28.871525553990008 0 0,0 0.44617331464344373,0.21893530778610693 l -3.528248717557762 7.0365030756882145" fill="#ff5d08" stroke="none" /><path d="M 109.73455568895987 81.39251694778311 l 15.633713338904597 -29.883650090656317 a54.72603646300328,54.72603646300328 0 0,0 0.8309365623857552,0.44385753447095994 l -16.145794947818665 29.610113829683606" fill="#67ff28" stroke="none" /><path d="M 110.36928655335952 81.73862282372117 l 7.9595191393838975 -14.017529595515656 a37.11971094317066,37.11971094317066 0 0,0 0.5529127082364901,0.32028272865645746 l -8.199628580085715 13.87844270946915" fill="#ffcb12" stroke="none" /><line stroke="#e1ed5e" stroke-width="0.3" x1="143.23703022742887" x2="145.7803849466894" y1="26.81831364943548" y2="22.513508569990506" /><path d="M 143.74570117128098 25.957352633546492 a86.0,86.0 0 0,1 28.547481713284135,27.462654790039103" fill="none" id="id74" stroke="none" /><text fill="#e1ed5e" style="font-size:6.75px; font-family:Arial;" text-anchor="middle"><textPath startOffset="19.985693538727396" xlink:href="#id74">February</textPath></text><path d="M 110.68208982089419 81.91981866633111 l 4.593436970361315 -7.774712136052709 a30.030271978139275,30.030271978139275 0 0,0 0.44278625553492496,0.2667737645905638 l -4.726585292113878 7.694491762003531" fill="#ff6d0a" stroke="none" /><path d="M 111.2981086023043 82.29822771554956 l 5.22848866846742 -8.191947790461416 a30.718287007386532,30.718287007386532 0 0,0 0.44326923212668784,0.28831463891106085 l -5.368724926378388 8.100734227390827" fill="#ff770a" stroke="none" /><path d="M 111.60114157652 82.49532879139004 l 23.87135116826074 -36.0188823444233 a64.21112463174074,64.21112463174074 0 0,0 0.9160643574545713,0.6185307433765046 l -24.487820220121854 35.60263968874812" fill="#34ff5f" stroke="none" /><path d="M 112.19680574252982 82.90503203632743 l 14.06717183384848 -19.716461581459757 a45.22032577601298,45.22032577601298 0 0,0 0.6297569556763091,0.4575452106060228 l -14.404474105878577 19.47139713603706" fill="#d0ff1d" stroke="none" /><path d="M 112.48926042617603 83.11751280151076 l 10.42327016197661 -14.089763450456282 a38.526151744161226,38.526151744161226 0 0,0 0.5297416427149875,0.3989904225969253 l -10.66425795844998 13.908256438353508" fill="#ffdd14" stroke="none" /><path d="M 112.77801427241765 83.33499621200491 l 13.80488556440925 -18.00424270305585 a43.68760941035822,43.68760941035822 0 0,0 0.5928355440410766,0.46271754552564326 l -14.112753663609759 17.763946768306987" fill="#e2ff1b" stroke="none" /><path d="M 113.6212207817346 84.01681056812373 l 13.921316846094584 -16.335323232604164 a42.46266171384654,42.46266171384654 0 0,0 0.5522293447626719,0.47888784601986284 l -14.200439989504021 16.09327039316463" fill="#f1ff19" stroke="none" /><path d="M 113.89432698308785 84.25364557470407 l 32.29467499263168 -36.59935447774433 a69.81043721446565,69.81043721446565 0 0,0 0.8942019315148219,0.8028233231210562 l -32.919887911742485 36.03803214585397" fill="#3bff9e" stroke="none" /><path d="M 114.16331599549186 84.49514656593476 l 7.4377415368210675 -8.142238190941738 a32.02796635498058,32.02796635498058 0 0,0 0.4038453804229883,0.37533026844363965 l -7.576794801038902 8.013003336423457" fill="#ff880c" stroke="none" /><path d="M 114.42810811169701 84.74124197986012 l 13.491378649838934 -14.268099502877975 a40.636597497971906,40.636597497971906 0 0,0 0.5041197414666363,0.48496279187735636 l -13.734981634917988 14.033753624238317" fill="#fff717" stroke="none" /><path d="M 114.68862486808459 84.99185889309783 l 12.750660011995878 -13.028020416122397 a39.22933478502199,39.22933478502199 0 0,0 0.4785310073892085,0.47647604316682585 l -12.973026819552409 12.806608522305453" fill="#ffe615" stroke="none" /><path d="M 114.94478906791727 85.2469230424477 l 5.334727962223361 -5.266293944773333 a28.496210665641946,28.496210665641946 0 0,0 0.3415959320755568,0.35204463513401096 l -5.4245881580020265 5.173685114089207" fill="#ff5808" stroke="none" /><path d="M 115.4437574822437 85.77008943001954 l 20.235546844084553 -18.645075348861265 a48.515744417403184,48.515744417403184 0 0,0 0.5606025672919024,0.6190313566755296 l -20.55349305199249 18.29399120491619" fill="#aaff21" stroke="none" /><path d="M 115.68641384162765 86.03803664274999 l 16.080231839957236 -14.312487863208899 a42.52721916229025,42.52721916229025 0 0,0 0.48199162762062503,0.5509997510479564 l -16.32421533115571 14.033572555957996" fill="#f0ff19" stroke="none" /><path d="M 116.15771136456269 86.58626213691792 l 17.27589407111075 -14.342025871838263 a43.453289782673664,43.453289782673664 0 0,0 0.4728162971229385,0.5796168738444505 l -17.520208860310095 14.042524828385712" fill="#e5ff1a" stroke="none" /><path d="M 116.38621287248628 86.86637796730983 l 14.148830043039553 -11.340349807249732 a39.13264805089449,39.13264805089449 0 0,0 0.41675509772071995,0.5292366519625163 l -14.341939221354236 11.095120761334176" fill="#ffe415" stroke="none" /><path d="M 116.60985879189232 87.15038557335679 l 8.882680059700697 -6.871763045818312 a32.23045557405747,32.23045557405747 0 0,0 0.3356940995992477,0.44173408545255916 l -8.999650099524057 6.717844184484719" fill="#ff8b0c" stroke="none" /><path d="M 117.04232023915458 87.72973835380427 l 15.370965924821938 -11.066907029419863 a39.940512787669185,39.940512787669185 0 0,0 0.3969086179689617,0.56139909228948 l -15.559187162594784 10.80068143679859" fill="#ffee16" stroke="none" /><path d="M 117.2510076193507 88.02491185347247 l 28.257201057721577 -19.615229493076015 a55.39806156867768,55.39806156867768 0 0,0 0.5370328564171413,0.7880294504182441 l -28.590658379807454 19.125922019387364" fill="#60ff29" stroke="none" /><path d="M 117.65298651832404 88.62581576622439 l 10.02453869150377 -6.459017561556537 a32.925195337517614,32.925195337517614 0 0,0 0.30286852987713003,0.4790652802308456 l -10.134234817626854 6.2855046336114855" fill="#ff940d" stroke="none" /><line stroke="#e1ed5e" stroke-width="0.3" x1="172.23445277983987" x2="176.4835382374775" y1="55.19839476539836" y2="52.563006222186495" /><path d="M 173.08426987136738 54.67131705675599 a86.0,86.0 0 0,1 12.851231095245387,41.99856678651699" fill="none" id="id75" stroke="none" /><text fill="#e1ed5e" style="font-size:6.75px; font-family:Arial;" text-anchor="middle"><textPath startOffset="22.20632615414155" xlink:href="#id75">March</textPath></text><path d="M 118.03404312379186 89.2402003453031 l 17.80625305971311 -10.623891392972471 a41.73474659493617,41.73474659493617 0 0,0 0.3627749633018118,0.6201000075149167 l -17.98648769748525 10.315811973103658" fill="#faff18" stroke="none" /><path d="M 118.21658344932153 89.55222093294921 l 19.647973472857448 -11.268725912889817 a43.650100337304124,43.650100337304124 0 0,0 0.36820389197961995,0.6549936385373973 l -19.8390350061295 10.928848764417626" fill="#e3ff1b" stroke="none" /><path d="M 118.3937258080291 89.86733742301442 l 6.689103537377559 -3.6848667743639707 a28.636907049229322,28.636907049229322 0 0,0 0.23412976208506314,0.43380689099526726 l -6.751541398681087 3.5691789000362446" fill="#ff5a08" stroke="none" /><path d="M 118.56541770881063 90.18545643968196 l 31.076458310597193 -16.42846170086541 a56.15168011613509,56.15168011613509 0 0,0 0.44437521654820544,0.858391476580513 l -31.354642960305515 15.89109750202455" fill="#58ff2a" stroke="none" /><path d="M 118.73160827565052 90.50648371742162 l 7.199671178205978 -3.6489229623896304 a29.071549037188845,29.071549037188845 0 0,0 0.22238348860754176,0.44831154300839016 l -7.261414679766928 3.5244518308822905" fill="#ff6008" stroke="none" /><path d="M 118.89224826269711 90.83032412892265 l 28.555492222008148 -13.859896629238088 a52.74134323897357,52.74134323897357 0 0,0 0.389386338808683,0.820146935428206 l -28.789836754658587 13.36630727816934" fill="#7cff26" stroke="none" /><path d="M 119.04729006885535 91.15688171328212 l 14.44567916274115 -6.706720436676404 a36.9266363519918,36.9266363519918 0 0,0 0.2627025673011724,0.5788302845032534 l -14.55898404700567 6.457068143331088" fill="#ffc812" stroke="none" /><path d="M 119.196687751892 91.48605970444005 l 19.90997572064159 -8.830291285791404 a42.780293326501855,42.780293326501855 0 0,0 0.2927583612701659,0.6757266614874625 l -20.059024791754435 8.48626547971734" fill="#edff1a" stroke="none" /><path d="M 119.47837535516314 92.15188598940014 l 15.849206640928337 -6.3858704038471465 a38.087325477135906,38.087325477135906 0 0,0 0.23978048075392422,0.6102151694114533 l -15.956780671563962 6.112106229539909" fill="#ffd714" stroke="none" /><path d="M 119.61058180528143 92.48833698450437 l 8.955423666725908 -3.4302972453026577 a30.589919303189443,30.589919303189443 0 0,0 0.18411549704898603,0.4933379956252402 l -9.01314375227652 3.275636112648084" fill="#ff750a" stroke="none" /><path d="M 119.7369772167798 92.82701384747503 l 14.627661095976425 -5.316113472333734 a36.56372486230306,36.56372486230306 0 0,0 0.20988782791754307,0.5933811533217661 l -14.717002004703778 5.063534692585354" fill="#ffc412" stroke="none" /><path d="M 119.85752413597 93.16781622104841 l 15.584565796690933 -5.362028866694579 a37.481202766747785,37.481202766747785 0 0,0 0.20465219723449146,0.6118840211077963 l -15.674555287697194 5.092971742664469" fill="#ffcf13" stroke="none" /><path d="M 119.97218684219823 93.5106431181261 l 14.363101506287464 -4.666854578385323 a36.10225865676102,36.10225865676102 0 0,0 0.18694869773831277,0.5926784601689872 l -14.441305687793983 4.418925951789916" fill="#ffbe11" stroke="none" /><path d="M 120.08093135843002 93.85539295169968 l 8.086330954491252 -2.4743536687105463 a29.456427991973015,29.456427991973015 0 0,0 0.14418795665374318,0.4861301101635605 l -8.127724808256698 2.334794171800456" fill="#ff6509" stroke="none" /><path d="M 120.28053869075195 94.5502522615342 l 7.453992023597005 -2.0030225425749624 a28.718425771743306,28.718425771743306 0 0,0 0.12417801918974884,0.4785085633401427 l -7.487366374657056 1.874417553685969" fill="#ff5b08" stroke="none" /><path d="M 120.37134235888165 94.90015583598534 l 61.02458371217553 -15.277140878753896 a83.90779642201443,83.90779642201443 0 0,0 0.3386966161418761,1.404116135314853 l -61.27851312857822 14.224439511779638" fill="#4dd3ff" stroke="none" /><path d="M 120.6074358757038 95.95851677861258 l 11.036209734381655 -2.164396227567676 a32.24644549763033,32.24644549763033 0 0,0 0.1021356656550028,0.5456128099626998 l -11.071831123946517 1.9741053401424131" fill="#ff8b0c" stroke="none" /><path d="M 120.67395015179393 96.31383870115 l 11.166575327138485 -1.990998213179853 a32.34268391614363,32.34268391614363 0 0,0 0.09300545119693986,0.5489234377010648 l -11.199192639855648 1.7984889871629504" fill="#ff8c0c" stroke="none" /><path d="M 120.73433829027371 96.67025291283417 l 22.19499028282003 -3.5643145785154595 a43.47936680756585,43.47936680756585 0 0,0 0.11230949553816046,0.7399792518882989 l -22.25305567179749 3.1817362142350785" fill="#e5ff1a" stroke="none" /><path d="M 120.83666639777658 97.38593545837742 l 15.739893185531344 -1.9746487216215542 a36.86327441185261,36.86327441185261 0 0,0 0.07356794370155126,0.6302852144488053 l -15.771551482236484 1.7034197688478963" fill="#ffc812" stroke="none" /><path d="M 120.91429891909075 98.10471618934814 l 17.573169494043945 -1.5925058627473552 a38.6451795397293,38.6451795397293 0 0,0 0.05433423208565752,0.663015255008169 l -17.597978209949098 1.2897766905314172" fill="#ffde14" stroke="none" /><path d="M 120.94382443527127 98.46500227214037 l 15.000902845270538 -1.0994339574655216 a36.04113829469279,36.04113829469279 0 0,0 0.040021811645731604,0.619119712086345 l -15.017605247920685 0.8410551811261415" fill="#ffbd11" stroke="none" /><path d="M 120.96714384426684 98.82574320788733 l 16.393496662747175 -0.9181114483540354 a37.419185773451176,37.419185773451176 0 0,0 0.030481297686868147,0.6434120181906607 l -16.406871568667537 0.6357883235403748" fill="#ffcf13" stroke="none" /><line stroke="#e1ed5e" stroke-width="0.3" x1="184.98032266829074" x2="189.97916517819016" y1="98.17113171792111" y2="98.06355123074" /><path d="M 185.9800911702706 98.14961562048488 a86.0,86.0 0 0,1 -9.607161424134198,41.387399972396054" fill="none" id="id76" stroke="none" /><text fill="#e1ed5e" style="font-size:6.75px; font-family:Arial;" text-anchor="middle"><textPath startOffset="21.466115282336823" xlink:href="#id76">April</textPath></text><path d="M 120.99513854157772 99.54816195383933 l 11.361646977086727 -0.24451490811207316 a32.3642777848939,32.3642777848939 0 0,0 0.007192564479160788,0.5570720453951613 l -11.364172548683603 0.04890660465644912" fill="#ff8d0d" stroke="none" /><path d="M 120.99980553446 99.90962569577887 l 31.74239424014951 -0.1366058742334009 a52.74268818581614,52.74268818581614 0 0,0 -0.003907235379503408,0.9079038987252872 l -31.7400427074805 -0.409807502695571" fill="#7cff26" stroke="none" /><path d="M 120.89721153311464 102.0752229133903 l 3.808983221675693 0.3782556943453818 a24.827718713974637,24.827718713974637 0 0,0 -0.04589309045027425,0.42491302023868005 l -3.8019078297243665 -0.4437650364688533" fill="#ff2403" stroke="none" /><path d="M 120.8583938346157 102.4346265915055 l 7.498132893197322 0.8751946038205904 a28.549037188847617,28.549037188847617 0 0,0 -0.061174456473988024,0.4876206081823115 l -7.481956927476486 -1.004132966290297" fill="#ff5908" stroke="none" /><path d="M 120.49622156327973 104.57218783832717 l 3.82260380884119 0.8527260788807594 a24.916559924853765,24.916559924853765 0 0,0 -0.09698407177214352,0.41780484288541414 l -3.8073591711384935 -0.9183995791147384" fill="#ff2503" stroke="none" /><path d="M 120.41448212921028 104.9243191809786 l 7.358458671640042 1.7749849812426817 a28.5695102685624,28.5695102685624 0 0,0 -0.11943236941480266,0.47707294729690763 l -7.326814987930178 -1.9013857679369854" fill="#ff5908" stroke="none" /><path d="M 120.32669344350535 105.2749913415812 l 7.329057019642278 1.901967598813795 a28.571826565902395,28.571826565902395 0 0,0 -0.1276370482179246,0.4749849385662983 l -7.295231895082575 -2.0278434705556414" fill="#ff5908" stroke="none" /><path d="M 120.13307415673323 105.97154293290107 l 14.496140047054807 4.2996077985131835 a36.12034071986678,36.12034071986678 0 0,0 -0.18193166743421277,0.5945632156708361 l -14.419981607114462 -4.548497986736076" fill="#ffbe11" stroke="none" /><path d="M 120.02730092923936 106.31721596034902 l 16.159825406440955 5.097297301054716 a37.94468639255369,37.94468639255369 0 0,0 -0.20184359537174365,0.6212107105598831 l -16.069689560052964 -5.374706911592393" fill="#ffd513" stroke="none" /><path d="M 119.79798401119884 107.00284435728193 l 21.290799850137272 7.530875745137261 a43.583450749327525,43.583450749327525 0 0,0 -0.256261847105501,0.7051225431504197 l -21.158013742026544 -7.896246085293812" fill="#e3ff1b" stroke="none" /><path d="M 119.54520255179757 107.68017299344265 l 14.05944115215107 5.524575145920708 a36.1059199009436,36.1059199009436 0 0,0 -0.23227692325949845,0.5764922746382442 l -13.96226161463418 -5.765766788401765" fill="#ffbe11" stroke="none" /><path d="M 119.41010516605496 108.01547362559984 l 14.013713048350045 5.7870138453558955 a36.16158575637249,36.16158575637249 0 0,0 -0.24253923201501154,0.5732910995525723 l -13.912022835142725 -6.0273794705746315" fill="#ffbf11" stroke="none" /><path d="M 119.26925614724726 108.34839909993367 l 7.255143836377986 3.1432887606385327 a28.906793048973142,28.906793048973142 0 0,0 -0.20174039205500402,0.4548713261759422 l -7.1999623595917095 -3.267708423307163" fill="#ff5e08" stroke="none" /><path d="M 119.12269723197855 108.67885076344098 l 13.763481249975133 6.246566491373207 a36.11466205542035,36.11466205542035 0 0,0 -0.2617889651945889,0.5638701411894759 l -13.653917667940712 -6.482556699841513" fill="#ffbe11" stroke="none" /><path d="M 118.97047184881838 109.00673069616215 l 14.88359778458025 7.066379692820333 a37.47589769864652,37.47589769864652 0 0,0 -0.2816880193891179,0.5803607531769222 l -14.759756508576418 -7.32152940196253" fill="#ffcf13" stroke="none" /><path d="M 118.64920377521936 109.65438752849418 l 26.691694468655758 13.817853314197928 a51.056274283762434,51.056274283762434 0 0,0 -0.4107537847439789,0.7769913641302097 l -26.449888175686883 -14.275259693414272" fill="#8eff24" stroke="none" /><line stroke="#e1ed5e" stroke-width="0.3" x1="174.80103733775053" x2="179.2010983576182" y1="140.37084112569926" y2="142.7455964860345" /><path d="M 175.68104954172406 140.8457921977663 a86.0,86.0 0 0,1 -30.038265399797805,32.042727171017184" fill="none" id="id77" stroke="none" /><text fill="#e1ed5e" style="font-size:6.75px; font-family:Arial;" text-anchor="middle"><textPath startOffset="22.206326154141568" xlink:href="#id77">May</textPath></text><path d="M 118.48025628344425 109.97397251340804 l 13.29530072726706 7.175602003423143 a36.10808675974553,36.10808675974553 0 0,0 -0.2999096257367249,0.5444230853516813 l -13.169814692078825 -7.40339560717263" fill="#ffbe11" stroke="none" /><path d="M 118.30583269289576 110.29060199501025 l 15.571799015437525 8.753668227086337 a38.86358396311003,38.86358396311003 0 0,0 -0.3328351427680825,0.5803261261738265 l -15.418811876517063 -9.020414199118479" fill="#ffe115" stroke="none" /><path d="M 118.12598468904814 110.60418214915192 l 14.336226522239691 8.38707303251705 a37.60934631313778,37.60934631313778 0 0,0 -0.3317128661753089,0.5559698437982314 l -14.189732780366155 -8.632604970201385" fill="#ffd113" stroke="none" /><path d="M 117.94076556474637 110.91462005526583 l 15.298790395760836 9.307322135851122 a38.90751889330089,38.90751889330089 0 0,0 -0.35301229199812506,0.5691682162617603 l -15.136313464094748 -9.569286683478156" fill="#ffe115" stroke="none" /><path d="M 117.75023020441432 111.22182372390056 l 12.861230765328614 8.130962971118624 a36.215906664958794,36.215906664958794 0 0,0 -0.33766182825664764,0.5240586559400794 l -12.719364073694916 -8.351143226980156" fill="#ffbf11" stroke="none" /><path d="M 117.55443506779139 111.5257021239791 l 12.900122563533767 8.469823691615867 a36.43214422953759,36.43214422953759 0 0,0 -0.34870227873170356,0.5212625941574272 l -12.752417179391342 -8.6906231999791" fill="#ffc212" stroke="none" /><path d="M 117.14729908036423 112.12312394758627 l 30.15462717173998 21.31929239018623 a57.929849280560184,57.929849280560184 0 0,0 -0.5826645139376171,0.809270048580825 l -29.78318286542676 -21.835196044218186" fill="#46ff2c" stroke="none" /><path d="M 116.93607887273984 112.41649034213515 l 18.258535880486264 13.386034401770003 a43.6397890781777,43.6397890781777 0 0,0 -0.449362510093262,0.6019945160418163 l -18.02541210369791 -13.698341797321133" fill="#e3ff1b" stroke="none" /><path d="M 116.71984013943494 112.70617746262583 l 6.137544608632432 4.664203146185202 a28.708712266769137,28.708712266769137 0 0,0 -0.3023891161836832,0.39087869513048096 l -6.05634867523068 -4.769159835428936" fill="#ff5b08" stroke="none" /><path d="M 116.498646956653 112.99209946851258 l 15.421326144317579 12.14374752849385 a40.62875197472354,40.62875197472354 0 0,0 -0.4374015750976655,0.5457257185010577 l -15.210006657165058 -12.407401080573157" fill="#fff717" stroke="none" /><path d="M 116.27256486870786 113.27417163493432 l 11.976823589980391 9.76996639788809 a36.45627855343495,36.45627855343495 0 0,0 -0.40085240699920743,0.4828525470077432 l -11.80687518308764 -9.974680202009605" fill="#ffc212" stroke="none" /><path d="M 116.0416608686014 113.55231037782055 l 5.721304250269939 4.833470274724878 a28.489710089236155,28.489710089236155 0 0,0 -0.31970540869930747,0.3718896177956428 l -5.637256331999852 -4.931236991682049" fill="#ff5808" stroke="none" /><path d="M 115.80600337817218 113.82643327865902 l 13.584855322221996 11.883465492126147 a39.04896246957858,39.04896246957858 0 0,0 -0.4469082171417801,0.5021061196002715 l -13.378288255431878 -12.115545781467285" fill="#ffe315" stroke="none" /><path d="M 115.07121518719521 114.62390073753431 l 5.387471984586269 5.227571536220557 a28.506820801844498,28.506820801844498 0 0,0 -0.3447416377376326,0.34922145893639184 l -5.2966897217931015 -5.319533489137613" fill="#ff5808" stroke="none" /><path d="M 114.55890576462653 115.13401014063108 l 8.78967283684809 9.136881575873081 a33.67836556936083,33.67836556936083 0 0,0 -0.4212428472075007,0.39831140468752163 l -8.631094155249782 -9.286827617306525" fill="#ff9e0e" stroke="none" /><path d="M 113.48314897796784 116.09983520530334 l 14.500194785622355 17.31425996069533 a43.58404850347978,43.58404850347978 0 0,0 -0.5793147550608694,0.47673660386737116 l -14.200009902016793 -17.561291683419878" fill="#e3ff1b" stroke="none" /><path d="M 113.20401910651253 116.32954008644616 l 11.734180991977311 14.511776857063143 a39.6623329490628,39.6623329490628 0 0,0 -0.5345774363134264,0.42470064627053716 l -11.482646062946534 -14.711611417338807" fill="#ffeb16" stroke="none" /><path d="M 112.34349029814194 116.9893568818739 l 0.7871142462010589 1.083369817816433 a22.339118739592674,22.339118739592674 0 0,0 -0.31303772214290443,0.22334410308194352 l -0.7683491962092698 -1.0967581827425958" fill="#ff0000" stroke="none" /><path d="M 111.7513745106137 117.40417183066458 l 5.031250070670718 7.451446694504463 a29.990969642628407,29.990969642628407 0 0,0 -0.4303351410783617,0.28520266604871847 l -4.902240230852392 -7.5369473816445" fill="#ff6d0a" stroke="none" /><line stroke="#e1ed5e" stroke-width="0.3" x1="143.8653032363475" x2="146.44561519142675" y1="172.8068346515853" y2="177.08958963109032" /><path d="M 144.38136562736335 173.6633856474863 a86.0,86.0 0 0,1 -40.68145358897372,12.25698825130547" fill="none" id="id78" stroke="none" /><text fill="#e1ed5e" style="font-size:6.75px; font-family:Arial;" text-anchor="middle"><textPath startOffset="21.466115282336833" xlink:href="#id78">June</textPath></text><path d="M 110.21172684928248 118.3499491758327 l 7.419172794580323 13.331872827839625 a36.25722642073353,36.25722642073353 0 0,0 -0.5479626938501975,0.29879295111288445 l -7.188587288861477 -13.457606430712278" fill="#ffc011" stroke="none" /><path d="M 109.2508944713604 118.85261126421891 l 6.622414941220221 13.49597218990004 a36.03321805217539,36.03321805217539 0 0,0 -0.5591794902090138,0.26844013658198534 l -6.389122783010974 -13.607966602981586" fill="#ffbd11" stroke="none" /><path d="M 106.91757812671514 119.82793768551818 l 4.99647168397013 14.321447099327496 a36.16801161350924,36.16801161350924 0 0,0 -0.5895907178467664,0.20002118279176007 l -4.749211233186137 -14.40533126901738" fill="#ffbf11" stroke="none" /><path d="M 106.57524785965236 119.94407469862006 l 5.9552535399939135 18.063504826894796 a40.01986465138124,40.01986465138124 0 0,0 -0.656094531991436,0.2100607503612185 l -5.643437662911537 -18.16333842391572" fill="#ffef16" stroke="none" /><path d="M 105.18746579009965 120.34920634021253 l 2.391090014339126 9.379682883436207 a30.679657145296957,30.679657145296957 0 0,0 -0.5128568031457604,0.12604772446920007 l -2.2292799264501544 -9.419451866219436" fill="#ff760a" stroke="none" /><path d="M 104.83641907484287 120.43548508189849 l 1.7665323020190895 7.464188678847231 a28.670381281755688,28.670381281755688 0 0,0 -0.4812253195734728,0.10952531599979316 l -1.6377868330527547 -7.493490728424708" fill="#ff5a08" stroke="none" /><path d="M 104.13013068566511 120.58985236759428 l 3.0158630083649736 15.034917495140647 a36.33441142564365,36.33441142564365 0 0,0 -0.6142806076942564,0.11772834046477258 l -2.756614786099013 -15.084603033953888" fill="#ffc111" stroke="none" /><path d="M 103.06178313531738 120.77559828337769 l 2.3629760071059844 16.033872455112657 a37.207057768669145,37.207057768669145 0 0,0 -0.6344182663343021,0.08792459088152586 l -2.086629149584852 -16.072171611486784" fill="#ffcc13" stroke="none" /><path d="M 101.62511606390274 120.93702456842531 l 1.1970494878713103 15.422070517840032 a36.468457794287175,36.468457794287175 0 0,0 -0.6262801875038965,0.04319194848961456 l -0.9314065395884835 -15.440390810845932" fill="#ffc312" stroke="none" /><path d="M 100.90346689309514 120.98055641714683 l 0.3224780051898774 7.488672836695412 a28.49561291148969,28.49561291148969 0 0,0 -0.49023261959420156,0.016884602639508133 l -0.19352503392102355 -7.493114237761014" fill="#ff5808" stroke="none" /><line stroke="#e1ed5e" stroke-width="0.3" x1="102.19456741930631" x2="102.32365962044197" y1="184.97166512339345" y2="189.96999836594603" /><path d="M 102.22038585953345 185.97133177190398 a86.0,86.0 0 0,1 -42.740103519485714,-10.115201625700543" fill="none" id="id79" stroke="none" /><text fill="#e1ed5e" style="font-size:6.75px; font-family:Arial;" text-anchor="middle"><textPath startOffset="22.20632615414155" xlink:href="#id79">July</textPath></text><path d="M 100.54218724476979 120.99299961872073 l 0.5042508053621477 19.524135004691505 a40.53064557448444,40.53064557448444 0 0,0 -0.6975909097758105,0.012009660141788399 l -0.16810020569366924 -19.529922142112454" fill="#fff617" stroke="none" /><path d="M 100.18074693466247 120.99922214144158 l 0.06451728944207091 7.495634133368773 a28.495911788565817,28.495911788565817 0 0,0 -0.49052844820904756,0.0 l 0.06451728944206575 -7.495634133368773" fill="#ff5808" stroke="none" /><path d="M 99.45781275523022 120.99299961872073 l -0.3921969999721969 15.18551303134354 a36.19057683275693,36.19057683275693 0 0,0 -0.6226151843252493,-0.02144412583837785 l 0.6535325359720893 -15.176512107079068" fill="#ffbf11" stroke="none" /><path d="M 99.09653310690486 120.98055641714683 l -0.6637034981063311 15.412704984211592 a36.42698859997438,36.42698859997438 0 0,0 -0.6262179769693604,-0.03236831649269479 l 0.9289095434891804 -15.398996860956697" fill="#ffc212" stroke="none" /><path d="M 97.65516085044442 120.86867818915974 l -2.19304516307972 19.517736971970137 a40.640557619230606,40.640557619230606 0 0,0 -0.6945134114972277,-0.08409590207860342 l 2.528685997628337 -19.477095541166186" fill="#fff717" stroke="none" /><path d="M 96.22490169976321 120.6578951692458 l -1.748379909235026 9.567392954701909 a30.725833653558773,30.725833653558773 0 0,0 -0.5194602864902982,-0.09955580023176487 l 1.9128078102970194 -9.535879956121676" fill="#ff770a" stroke="none" /><path d="M 95.51606077576429 120.51570834832081 l -1.7185785307867265 7.863143131097156 a29.048759660134067,29.048759660134067 0 0,0 -0.48757630787269973,-0.11097078025965149 l 1.853674988052289 -7.832395617259818" fill="#ff6008" stroke="none" /><path d="M 94.81253420990036 120.34920634021253 l -3.8198893620662413 14.98452615799818 a36.463750480338156,36.463750480338156 0 0,0 -0.6068775849435873,-0.16028188600813773 l 4.077257389821318 -14.916552922686462" fill="#ffc312" stroke="none" /><path d="M 94.11515582081647 120.15858648285463 l -4.254373905394903 14.573395945753287 a36.18168523974211,36.18168523974211 0 0,0 -0.5963517489714627,-0.1796758900171106 l 4.504600628806612 -14.49800468663045" fill="#ffbf11" stroke="none" /><path d="M 93.76903079525671 120.05430185196036 l -2.2398517667734605 7.208936837679699 a28.54888775030955,28.54888775030955 0 0,0 -0.46803679399172865,-0.14985060132134265 l 2.3636099058561295 -7.169313389698651" fill="#ff5908" stroke="none" /><path d="M 93.08242187328487 119.8279376855182 l -4.447475127758527 12.747851643413709 a34.50139831774903,34.50139831774903 0 0,0 -0.5590548084977357,-0.20045716410992487 l 4.66624949688599 -12.669406938263826" fill="#ffa90f" stroke="none" /><path d="M 92.06813273071674 119.44442032107085 l -5.754901990435562 14.107741520327776 a36.236379744673584,36.236379744673584 0 0,0 -0.5755174690160334,-0.24056634872455157 l 5.996890918949058 -14.006590128583252" fill="#ffc011" stroke="none" /><line stroke="#e1ed5e" stroke-width="0.3" x1="58.666819895761336" x2="56.23545636021788" y1="174.27360380694188" y2="178.64263932499728" /><path d="M 58.180547188652646 175.14741091055294 a86.0,86.0 0 0,1 -31.652253787137756,-30.449443065178592" fill="none" id="id80" stroke="none" /><text fill="#e1ed5e" style="font-size:6.75px; font-family:Arial;" text-anchor="middle"><textPath startOffset="22.20632615414155" xlink:href="#id80">August</textPath></text><path d="M 88.24862548938628 117.40417183066458 l -6.860989407017614 10.161350781583414 a33.26075957474062,33.26075957474062 0 0,0 -0.4717375357880846,-0.32446537864754843 l 7.034883827428589 -10.041744613570764" fill="#ff990e" stroke="none" /><path d="M 86.79598089348748 116.32954008644616 l -4.796494352217368 5.931871664765668 a28.6284637718287,28.6284637718287 0 0,0 -0.3805266386949323,-0.31314751752425807 l 4.89789111945699 -5.8484290283842295" fill="#ff5a08" stroke="none" /><path d="M 86.24171649860922 115.8653595955263 l -4.993528689090876 5.758285784341867 a28.621888476153877,28.621888476153877 0 0,0 -0.36943722598649154,-0.32598539820335315 l 5.091908267983955 -5.671477244366225" fill="#ff5a08" stroke="none" /><path d="M 85.18274418774928 114.88116024355367 l -10.734618176351022 10.78091485088415 a36.2138145254259,36.2138145254259 0 0,0 -0.43794465243961966,-0.44363562075651897 l 10.918603453846176 -10.594538736146966" fill="#ffbf11" stroke="none" /><path d="M 84.43433777217949 114.09645910891817 l -5.636164063149815 5.104180926227768 a28.603881132317152,28.603881132317152 0 0,0 -0.32736617599349027,-0.3677993691136938 l 5.723189088791644 -5.00640738737321" fill="#ff5a08" stroke="none" /><path d="M 84.19399662182784 113.82643327865904 l -5.717340262413143 5.001291077718836 a28.596110328337815,28.596110328337815 0 0,0 -0.320899409333963,-0.37327851028099457 l 5.802582181317884 -4.902135468276311" fill="#ff5908" stroke="none" /><path d="M 83.72743513129214 113.27417163493432 l -15.576390068381421 12.706274449579121 a41.101575509158444,41.101575509158444 0 0,0 -0.442491905187873,-0.5520766879626223 l 15.792799885624156 -12.436269928038238" fill="#fffd17" stroke="none" /><path d="M 83.06392112726016 112.41649034213515 l -12.32730475142105 9.03762090036928 a36.28532086588959,36.28532086588959 0 0,0 -0.3649615717624239,-0.5068997027368863 l 12.481046115559081 -8.824087592181256" fill="#ffc011" stroke="none" /><path d="M 82.6465618267979 111.8261652097733 l -12.464008238316284 8.494075878861125 a36.08313052388882,36.08313052388882 0 0,0 -0.3453617705886161,-0.516268987729608 l 12.608373114315631 -8.278269976925696" fill="#ffbe11" stroke="none" /><line stroke="#e1ed5e" stroke-width="0.3" x1="26.63291911575756" x2="22.317208475507996" y1="142.92168965132927" y2="145.44649492493687" /><path d="M 25.769776987707644 143.4266507060508 a86.0,86.0 0 0,1 -11.730757126820373,-40.83630448921669" fill="none" id="id81" stroke="none" /><text fill="#e1ed5e" style="font-size:6.75px; font-family:Arial;" text-anchor="middle"><textPath startOffset="21.46611528233685" xlink:href="#id81">September</textPath></text><path d="M 81.51974371655577 109.97397251340807 l -13.484606115024599 7.27777194658706 a36.32320353528884,36.32320353528884 0 0,0 -0.29222448240590476,-0.5527785930404215 l 13.60788310565539 -7.0445783384605125" fill="#ffc111" stroke="none" /><path d="M 80.87730276802145 108.67885076344099 l -13.925007527065196 6.319875315763038 a36.29204560010247,36.29204560010247 0 0,0 -0.2532820398111402,-0.5710841352684191 l 14.031730651607615 -6.079242844001922" fill="#ffc011" stroke="none" /><path d="M 80.45479744820244 107.68017299344265 l -29.548408454817885 11.610874229238087 a52.74776909611033,52.74776909611033 0 0,0 -0.3247899182289421,-0.8479239880463386 l 29.743892652640337 -11.10052667435859" fill="#7cff26" stroke="none" /><path d="M 80.20201598880116 107.00284435728193 l -14.328763807772104 5.0682990107135835 a36.19872123308142,36.19872123308142 0 0,0 -0.20272864405430566,-0.5892243347965855 l 14.413883282769639 -4.820901972827701" fill="#ffbf11" stroke="none" /><path d="M 80.0844068197444 106.66101706037122 l -17.817260682163685 5.959203740445684 a39.78741300542248,39.78741300542248 0 0,0 -0.21164582593916914,-0.6513788742048429 l 17.917198759119103 -5.651625966263038" fill="#ffec16" stroke="none" /><path d="M 79.97269907076064 106.31721596034903 l -14.43494585997564 4.553218164324833 a36.136031766363516,36.136031766363516 0 0,0 -0.1820107004166318,-0.5948215000302023 l 14.511183332898401 -4.304069691742583" fill="#ffbe11" stroke="none" /><path d="M 79.76711848015287 105.62410040840567 l -14.546909952015952 4.043580353194874 a36.09844797404039,36.09844797404039 0 0,0 -0.16126023073909942,-0.6001093088585047 l 14.614358259096827 -3.79258011116083" fill="#ffbe11" stroke="none" /><path d="M 79.67330655649465 105.27499134158121 l -30.89678811199482 8.018042394667804 a52.920221169036324,52.920221169036324 0 0,0 -0.22122841255450096,-0.8836975379482785 l 31.03022783884438 -7.485017017322134" fill="#7aff26" stroke="none" /><path d="M 79.50377843672027 104.57218783832718 l -14.878305917323628 3.318973165862529 a36.24400111011485,36.24400111011485 0 0,0 -0.13059224687948937,-0.6100835010233723 l 14.933232202927558 -3.062375845422993" fill="#ffc011" stroke="none" /><path d="M 79.4281124754447 104.21870165774334 l -7.41190207728105 1.5199676521239789 a28.56614790145596,28.56614790145596 0 0,0 -0.09463565829196743,-0.48254518278990716 l 7.436967668548684 -1.3921587422661168" fill="#ff5908" stroke="none" /><path d="M 79.35854240842038 103.8639653848113 l -7.462158807391002 1.396874382528382 a28.591776610733955,28.591776610733955 0 0,0 -0.0863928545616306,-0.4845370085230896 l 7.485098104291821 -1.2682186232720787" fill="#ff5908" stroke="none" /><path d="M 79.29508885075956 103.50808413554451 l -15.119892277123473 2.5618006204515713 a36.33538277614107,36.33538277614107 0 0,0 -0.09917525692092279,-0.6175644195167717 l 15.161749288405687 -2.3011569712415856" fill="#ffc111" stroke="none" /><path d="M 79.18660465613746 102.79330883721812 l -31.28903851721397 4.199216242916585 a52.56956363946885,52.56956363946885 0 0,0 -0.11264528682513658,-0.8978937686826512 l 31.356685313285954 -3.6600047199465258" fill="#7eff26" stroke="none" /><path d="M 79.10278846688536 102.07522291339032 l -7.589786451139802 0.7537129404172292 a28.627118824986123,28.627118824986123 0 0,0 -0.04447482424234805,-0.490775979486986 l 7.601635871659226 -0.6229555723816771" fill="#ff5a08" stroke="none" /><path d="M 79.07016306316243 101.71520430193888 l -31.581674163035924 2.5881244823045417 a52.68754536527049,52.68754536527049 0 0,0 -0.06629458400378072,-0.9045369274393145 l 31.621545305704043 -2.0441144183684665" fill="#7dff26" stroke="none" /><path d="M 79.04373962182676 101.35467743843564 l -23.71407119733522 1.5329508530990505 a44.76356688441996,44.76356688441996 0 0,0 -0.04308738257257971,-0.7693541602998828 l 23.736944930795328 -1.1245249764637302" fill="#d5ff1c" stroke="none" /><path d="M 79.0235259727143 100.99374915477108 l -15.442918810254728 0.7315999578826646 a36.46023867469365,36.46023867469365 0 0,0 -0.024303122722946192,-0.6271556089809326 l 15.453224065828875 -0.4656671018877352" fill="#ffc212" stroke="none" /><path d="M 79.0095281055655 100.63252640178507 l -15.085099889634904 0.4545740563502594 a36.0919473976346,36.0919473976346 0 0,0 -0.013367662115943342,-0.6211427313081953 l 15.090689614435854 -0.19484150925193527" fill="#ffbe11" stroke="none" /><line stroke="#e1ed5e" stroke-width="0.3" x1="15.007084014347285" x2="10.007500721073583" y1="101.09737516637583" y2="101.16192664675087" /><path d="M 14.007167355692545 101.11028546245083 a86.0,86.0 0 0,1 10.666146001902534,-42.60595125391555" fill="none" id="id82" stroke="none" /><text fill="#e1ed5e" style="font-size:6.75px; font-family:Arial;" text-anchor="middle"><textPath startOffset="22.20632615414155" xlink:href="#id82">October</textPath></text><path d="M 79.00175016825051 100.2711162175752 l -16.04544757595161 0.20716874458345233 a37.04678493659536,37.04678493659536 0 0,0 -0.0027444658924314445,-0.6377172198860036 l 16.046636339133546 0.06905795350622661" fill="#ffca12" stroke="none" /><path d="M 79.00486145842228 99.54816195383935 l -13.81067641629044 -0.2972206654286116 a34.81387430084112,34.81387430084112 0 0,0 0.018050671455729726,-0.5990139080327476 l 13.803514050379064 0.5349047208863535" fill="#ffad10" stroke="none" /><path d="M 79.01574976396665 99.18683210126434 l -21.151645198635244 -0.8196546785093802 a42.16752060116989,42.16752060116989 0 0,0 0.03434924415360105,-0.7250582547775192 l 21.134402346248145 1.1836240399099085" fill="#f4ff19" stroke="none" /><path d="M 79.03285615573316 98.82574320788736 l -18.589939488497944 -1.0411223803999743 a39.61907049229324,39.61907049229324 0 0,0 0.043994919468322444,-0.6805819315626549 l 18.569263978025205 1.360963376215641" fill="#ffea16" stroke="none" /><path d="M 79.05617556472873 98.46500227214037 l -14.995835526548033 -1.0990625676675683 a36.03605738439862,36.03605738439862 0 0,0 0.05066586644688539,-0.6182519025857471 l 14.974695176281651 1.3570283874610938" fill="#ffbd11" stroke="none" /><path d="M 79.32604984820605 96.31383870115002 l -15.027107370555543 -2.6793303271169306 a36.26410059348448,36.26410059348448 0 0,0 0.11486097138264656,-0.6135919019984554 l 14.978760675263034 2.937600306577959" fill="#ffc011" stroke="none" /><path d="M 79.46518482838121 95.60439243477599 l -14.913700678879652 -3.192372318995751 a36.25154775628709,36.25154775628709 0 0,0 0.13586668039445163,-0.6090636874295371 l 14.856539611483162 3.4486141759752473" fill="#ffc011" stroke="none" /><path d="M 79.54389044137918 95.25157060432595 l -32.06888134529203 -7.444075249498929 a53.92153409333504,53.92153409333504 0 0,0 0.21765606908252463,-0.9023249243799653 l 31.935992475948687 7.994985405538291" fill="#6fff27" stroke="none" /><path d="M 79.71946130924805 94.55025226153421 l -14.747862378055286 -3.9630174951250994 a36.27104948550446,36.27104948550446 0 0,0 0.16721511598281075,-0.6015617404253992 l 14.677460491506114 4.216290538969441" fill="#ffc011" stroke="none" /><path d="M 79.81627453868168 94.20196356495316 l -14.465750122393045 -4.155473994662629 a36.050777080397935,36.050777080397935 0 0,0 0.17646701373358772,-0.5949590438579676 l 14.39207721154775 4.403862425267136" fill="#ffbd11" stroke="none" /><path d="M 79.91906864156998 93.8553929516997 l -16.662946094761462 -5.098730441919315 a38.42557960804406,38.42557960804406 0 0,0 0.19897957454300583,-0.6308196273734167 l 16.572711036450254 5.384800235719147" fill="#ffdb14" stroke="none" /><path d="M 80.14247586403 93.16781622104843 l -25.48506615632878 -8.768397027068339 a47.95131505913497,47.95131505913497 0 0,0 0.27525634769032886,-0.7781867613389803 l 25.33035672782864 9.205781414833929" fill="#b1ff20" stroke="none" /><path d="M 80.2630227832202 92.82701384747504 l -28.2819285096386 -10.278467636567356 a51.09176593655266,51.09176593655266 0 0,0 0.3075126085585286,-0.8239809052868003 l 28.100811312578443 10.763771678883499" fill="#8eff24" stroke="none" /><path d="M 80.52162464483688 92.15188598940014 l -14.309174978577309 -5.765369779658245 a36.42698859997438,36.42698859997438 0 0,0 0.2393397351828618,-0.5795801530027987 l 14.207813556508246 6.010824503114355" fill="#ffc212" stroke="none" /><path d="M 80.65960295795068 91.81776055985345 l -25.07455515058399 -10.608159369798457 a48.22620724990392,48.22620724990392 0 0,0 0.3300263814696884,-0.7617463903874799 l 24.888238059271618 11.038204904772536" fill="#aeff20" stroke="none" /><path d="M 80.803312248108 91.48605970444005 l -14.209341117576466 -6.3019976924075145 a36.54414841381666,36.54414841381666 0 0,0 0.25998148102721985,-0.5728347315922565 l 14.098757319585895 6.545654432841842" fill="#ffc412" stroke="none" /><path d="M 81.26839172434947 90.50648371742162 l -56.19482482695157 -28.480548847735136 a84.0,84.0 0 0,0 0.6647622673595439,-1.284109110958658 l 55.69625312643191 29.44363068095413" fill="#4dd2ff" stroke="none" /><line stroke="#e1ed5e" stroke-width="0.3" x1="26.266209847984243" x2="21.928928074336255" y1="57.711370442889674" y2="55.22380399835377" /><path d="M 25.398753493254645 57.213857153982495 a86.0,86.0 0 0,1 29.58750427330803,-30.492523968695096" fill="none" id="id83" stroke="none" /><text fill="#e1ed5e" style="font-size:6.75px; font-family:Arial;" text-anchor="middle"><textPath startOffset="21.46611528233685" xlink:href="#id83">November</textPath></text><path d="M 81.78341655067845 89.55222093294921 l -6.626887284294481 -3.80072665333606 a28.639447504376413,28.639447504376413 0 0,0 0.24894543192566235,-0.42552844000835216 l 6.5604821778984945 3.9142345056983037" fill="#ff5a08" stroke="none" /><path d="M 81.96595687620814 89.24020034530311 l -12.98499614571731 -7.747345178553212 a36.120564877673885,36.120564877673885 0 0,0 0.3231658808329842,-0.5311997373423982 l 12.84971446659811 7.969712689102685" fill="#ffbe11" stroke="none" /><path d="M 82.54541684631803 88.32363383020206 l -19.071907543788374 -12.758286696226776 a43.945839204133044,43.945839204133044 0 0,0 0.4260141760770001,-0.6251232360047182 l 18.84946890204263 13.08468795550191" fill="#dfff1b" stroke="none" /><path d="M 82.95767976084542 87.72973835380427 l -12.428768679031059 -8.948561081570128 a36.31505913496435,36.31505913496435 0 0,0 0.36961361266286635,-0.5041525522920216 l 12.27289245385456 9.161176077533652" fill="#ffc111" stroke="none" /><path d="M 83.17141714833178 87.43820079747576 l -18.866201066241565 -14.082791854638076 a44.54269672516118,44.54269672516118 0 0,0 0.4639314029092164,-0.610479344800749 l 18.620993723108242 14.405455975319851" fill="#d8ff1c" stroke="none" /><path d="M 83.84228863543731 86.58626213691792 l -14.162631957604479 -11.7574716025234 a39.40701720678024,39.40701720678024 0 0,0 0.4377732794510525,-0.5181854820697047 l 13.9581480646663 11.999516034222221" fill="#ffe815" stroke="none" /><path d="M 84.07557802195018 86.31012108654704 l -12.617967766903567 -10.847392206816961 a37.6396823363648,37.6396823363648 0 0,0 0.4265976499238165,-0.4876748587232249 l 12.429378253401905 11.06298262174313" fill="#ffd213" stroke="none" /><path d="M 84.5562425177563 85.77008943001954 l -11.430662053485957 -10.532236015994677 a36.54310234405021,36.54310234405021 0 0,0 0.4302213836203449,-0.45893017572768835 l 11.247673347895155 10.727435608600416" fill="#ffc412" stroke="none" /><path d="M 84.80347519578584 85.50635884689758 l -13.151699736092349 -12.543395215951897 a39.17426668374536,39.17426668374536 0 0,0 0.46959823178681126,-0.4839622567062603 l 12.933837240602418 12.767921668208281" fill="#ffe515" stroke="none" /><path d="M 85.31137513191541 84.99185889309783 l -21.951145683783828 -22.42864085910545 a52.38306434396482,52.38306434396482 0 0,0 0.6498412386919626,-0.6251467567531227 l 21.56182120147944 22.80317070262089" fill="#80ff26" stroke="none" /><path d="M 85.57189188830299 84.74124197986013 l -7.786554026180136 -8.234838745067725 a32.33326928824559,32.33326928824559 0 0,0 0.407694990412635,-0.37890806138336597 l 7.643651151972645 8.367651392525739" fill="#ff8c0c" stroke="none" /><path d="M 85.83668400450813 84.49514656593479 l -29.787451355646933 -32.60889382053313 a65.1659621707015,65.1659621707015 0 0,0 0.8347108479359661,-0.749411640891814 l 29.221729520114994 33.116804470194225" fill="#35ff6a" stroke="none" /><path d="M 86.10567301691215 84.25364557470407 l -10.055159694284935 -11.395449994942725 a36.19745100550788,36.19745100550788 0 0,0 0.4707499210849422,-0.40822969271810705 l 9.85751597455322 11.566844681080513" fill="#ffbf11" stroke="none" /><path d="M 86.37877921826538 84.01681056812374 l -9.853929555179405 -11.562636363694551 a36.191921779599504,36.191921779599504 0 0,0 0.4776342068657821,-0.4000049122256533 l 9.653437811354513 11.730542433314016" fill="#ffbf11" stroke="none" /><path d="M 86.65592168130627 83.78471172551755 l -10.319093910681636 -12.53942599083449 a37.23948593142906,37.23948593142906 0 0,0 0.498471092120467,-0.40306229015389883 l 10.101719419996668 12.715194378252523" fill="#ffcc13" stroke="none" /><path d="M 86.93701828274178 83.55741782278169 l -4.706823052471807 -5.924552794225068 a28.566670936339182,28.566670936339182 0 0,0 0.3876462487776226,-0.3025640459138446 l 4.604144248534759 6.004695229362135" fill="#ff5908" stroke="none" /><path d="M 87.22198572758235 83.33499621200491 l -9.152275682417358 -11.936338907172209 a36.04128773323086,36.04128773323086 0 0,0 0.49557430745099856,-0.3732562940392316 l 8.94545522120797 12.092111790717293" fill="#ffbd11" stroke="none" /><path d="M 87.51073957382395 83.11751280151077 l -12.598754532925323 -17.030496991897852 a42.18410827889501,42.18410827889501 0 0,0 0.5874733353143837,-0.42682436217505465 l 12.303735881257158 17.244840588889573" fill="#f4ff19" stroke="none" /><path d="M 87.80319425747018 82.90503203632743 l -7.418755740899249 -10.398082448649319 a33.77333376030058,33.77333376030058 0 0,0 0.47615392566061365,-0.33357625391802814 l 7.238670675654975 10.52424354533129" fill="#ff9f0e" stroke="none" /><path d="M 88.09926311788651 82.69761687909137 l -6.0633410084160895 -8.815441443631036 a31.69935100977755,31.69935100977755 0 0,0 0.45223698823279407,-0.3053524331972033 l 5.910699325776756 8.918505789126906" fill="#ff840c" stroke="none" /><path d="M 88.39885842347998 82.49532879139004 l -8.351028837766934 -12.600657710668186 a36.116754194953245,36.116754194953245 0 0,0 0.5211698782245002,-0.3389833860805196 l 8.132891933758145 12.74254002090824" fill="#ffbe11" stroke="none" /><path d="M 88.70189139769569 82.29822771554957 l -4.508759449619472 -7.064282692967706 a29.380513214636437,29.380513214636437 0 0,0 0.4286488829732785,-0.2684198911935441 l 4.386491414273951 7.140846925484181" fill="#ff6409" stroke="none" /><path d="M 89.00827224532344 82.1063720568725 l -16.587163735623438 -27.002537102568223 a52.69023525895563,52.69023525895563 0 0,0 0.776899789337571,-0.4680734302848181 l 16.119901880068216 27.28405714231166" fill="#7cff26" stroke="none" /><line stroke="#e1ed5e" stroke-width="0.3" x1="56.762969772571076" x2="54.21961505331055" y1="26.818313649435495" y2="22.513508569990535" /><path d="M 56.25429882871897 25.957352633546506 a86.0,86.0 0 0,1 42.265352541879196,-11.944610805530505" fill="none" id="id84" stroke="none" /><text fill="#e1ed5e" style="font-size:6.75px; font-family:Arial;" text-anchor="middle"><textPath startOffset="22.20632615414155" xlink:href="#id84">December</textPath></text><path d="M 89.63071344664047 81.73862282372117 l -6.139658656160113 -10.81256862531395 a33.43410827889501,33.43410827889501 0 0,0 0.5029061623171345,-0.2798667348445381 l 5.952628404770933 10.916650757718674" fill="#ff9b0e" stroke="none" /><path d="M 89.94658935756843 81.56283822128135 l -15.136097019307536 -27.75840750655517 a52.61693565603518,52.61693565603518 0 0,0 0.7989128843061072,-0.42675159469102 l 14.656039088473124 28.014837827747936" fill="#7dff26" stroke="none" /><path d="M 92.23578459929587 80.48803036053334 l -2.798274591831845 -7.03224293259075 a28.56853891806498,28.56853891806498 0 0,0 0.4584799317499919,-0.17788309060589175 l 2.676811495082177 7.079368727087193" fill="#ff5908" stroke="none" /><path d="M 92.57280143429618 80.3572730644239 l -1.358740878749225 -3.593464725814372 a24.841765936552665,24.841765936552665 0 0,0 0.40127457450950493,-0.14779281228729066 l 1.2966839784671504 3.616320805907985" fill="#ff2403" stroke="none" /><path d="M 92.91201910852362 80.23233633223022 l -2.5924348367537493 -7.230039233765976 a28.680767260151146,28.680767260151146 0 0,0 0.4661553334839109,-0.16263244265262936 l 2.467597499206553 7.2735925295908155" fill="#ff5b08" stroke="none" /><path d="M 93.59665428221793 80.00007090966166 l -2.6093020924053563 -8.149779681340425 a29.557299005166303,29.557299005166303 0 0,0 0.4858862837974302,-0.15096723354909566 l 2.468630435897197 8.193487049772045" fill="#ff6709" stroke="none" /><path d="M 94.63758080256005 79.69619591428918 l -4.030419393091724 -15.260434279299043 a36.78369839033346,36.78369839033346 0 0,0 0.6135715517821765,-0.15641305028976135 l 3.767138952624548 15.327550325757667" fill="#ffc712" stroke="none" /><path d="M 95.33964822691252 79.52364482259891 l -1.6790744080911666 -7.3774096084128 a28.566073182186926,28.566073182186926 0 0,0 0.4803960279358236,-0.1049959648604971 l 1.551835656001822 7.4052190713691655" fill="#ff5908" stroke="none" /><path d="M 95.692805502759 79.44645832069477 l -1.5651992812441051 -7.468989079568196 a28.631228384782887,28.631228384782887 0 0,0 0.4832318608469066,-0.09693176527656844 l 1.436401010930062 7.494824800921975" fill="#ff5a08" stroke="none" /><path d="M 96.04723909329186 79.375362276772 l -1.4497760291554416 -7.564612706629066 a28.70228640963238,28.70228640963238 0 0,0 0.48603205156035206,-0.08881925078396506 l 1.319348856492196 7.588447438763767" fill="#ff5b08" stroke="none" /><path d="M 96.75951476605007 79.25152402106235 l -2.031039367755604 -13.004525091690367 a34.16217283634345,34.16217283634345 0 0,0 0.5817834620111537,-0.08573975912007695 l 1.8068869253158018 13.037559334971412" fill="#ffa50f" stroke="none" /><path d="M 97.11714578562143 79.19881850522333 l -3.1817744765201663 -22.95803514150676 a44.17746893813245,44.17746893813245 0 0,0 0.7541415212439091,-0.09790921346404521 l 2.7861182267683997 23.00940267813494" fill="#dcff1b" stroke="none" /><path d="M 97.83486435360386 79.11191278185805 l -0.7874782279089289 -7.597174770240694 a28.63787839972674,28.63787839972674 0 0,0 0.49076442140509174,-0.04660399526433972 l 0.6565886794136008 7.609604310020214" fill="#ff5a08" stroke="none" /><path d="M 98.19473922651362 79.07773832637324 l -0.6504288047933405 -7.538213788177255 a28.566222620724993,28.566222620724993 0 0,0 0.4902641373985191,-0.03805393276575248 l 0.5205744780324872 7.54829298313147" fill="#ff5908" stroke="none" /><path d="M 98.55514903715128 79.0497635885617 l -0.5949782466778247 -8.627142347600484 a29.64763460142607,29.64763460142607 0 0,0 0.5094281774442897,-0.030730098851445137 l 0.446388020393912 8.636105715832237" fill="#ff6809" stroke="none" /><path d="M 99.27714615592234 79.0124445844662 l -0.31431122967706626 -9.125806557740699 a30.131217710601597,30.131217710601597 0 0,0 0.5185056918931311,-0.013391472280802817 l 0.15717890258905615 9.129864822163862" fill="#ff6f0a" stroke="none" /><path d="M 99.63851952072746 79.00311137660856 l -0.2736389684742661 -15.894542785924477 a36.89689808291704,36.89689808291704 0 0,0 0.635119447746798,-0.005466673601122317 l 3.89361707072321e-15 15.89689808291704" fill="#ffc812" stroke="none" /></svg>