<?xml version="1.0" encoding="utf-8" ?>
<svg baseProfile="full" height="200mm" version="1.1" viewBox="0,0,200,200" width="200mm" xmlns="http://www.w3.org/2000/svg" xmlns:ev="http://www.w3.org/2001/xml-events" xmlns:xlink="http://www.w3.org/1999/xlink"><defs /><rect fill="#1a1a1a" height="200" width="200" x="0" y="0" /><rect fill="#1a1a1a" height="200" width="180" x="10" y="0" /><text alignment-baseline="middle" fill="#e1ed5e" style="dominant-baseline: central; font-size:9.0px; font-family:Arial;" text-anchor="middle" x="100.0" y="100.0">2022</text><line stroke="#e1ed5e" stroke-width="0.3" x1="100.0" x2="100.0" y1="15.0" y2="10.0" /><path d="M 100.0 14.0 a86.0,86.0 0 0,1 42.46469731375804,11.215312516191453" fill="none" id="id61" stroke="none" /><text fill="#e1ed5e" style="font-size:6.75px; font-family:Arial;" text-anchor="middle"><textPath startOffset="22.20632615414155" xlink:href="#id61">January</textPath></text><path d="M 100.36148047927253 79.00311137660856 l 0.05161906778616058 -2.998335675913982 a23.99877997752714,23.99877997752714 0 0,0 0.412977136747477,0.010665981040954209 l -0.10322283972850539 2.9970029027306686" fill="#ff2003" stroke="none" /><path d="M 100.72285384407766 79.0124445844662 l 0.2378957910528928 -6.907137782763766 a27.91123337454925,27.91123337454925 0 0,0 0.48001894345425317,0.0206706254518101 l -0.35675556689647747 6.902019430787761" fill="#ff5708" stroke="none" /><path d="M 101.44485096284872 79.0497635885617 l 0.3233679448401762 -4.688812248791066 a25.699949694641774,25.699949694641774 0 0,0 0.4410720953734857,0.034235683546535944 l -0.4040302295760031 4.682551303056067" fill="#ff3805" stroke="none" /><path d="M 102.16513564639614 79.11191278185805 l 0.6951610174079325 -6.706546994613799 a27.7424788788017,27.7424788788017 0 0,0 0.474572482878274,0.05332374801451551 l -0.8105002037959317 6.693587293128682" fill="#ff5507" stroke="none" /><path d="M 102.88285421437855 79.19881850522331 l 0.9469765624889833 -6.832891947635064 a27.898200995764007,27.898200995764007 0 0,0 0.47510771744387487,0.07001852735536722 l -1.064453260361514 6.815578936118728" fill="#ff5708" stroke="none" /><path d="M 103.2404852339499 79.25152402106235 l 0.41595934359751113 -2.663342624872165 a23.695629075556766,23.695629075556766 0 0,0 0.40245423016274207,0.06640839633776202 l -0.4617427798991284 2.6557879655947785" fill="#ff1c02" stroke="none" /><path d="M 105.01212808612495 79.60689891045804 l 1.7720157686731766 -7.209890904993444 a28.424457336824933,28.424457336824933 0 0,0 0.4741349880495952,0.12086756550972896 l -1.8958596454077967 7.178320343314848" fill="#ff5e08" stroke="none" /><path d="M 107.76421540070413 80.48803036053334 l 2.4750647300061765 -6.219995888214995 a27.694347934424382,27.694347934424382 0 0,0 0.44141642737539827,0.18006484403285364 l -2.581765026969962 6.176470157998562" fill="#ff5407" stroke="none" /><path d="M 108.09893153111575 80.62456947434976 l 2.6828298504379466 -6.418251985412192 a27.956402414657195,27.956402414657195 0 0,0 0.4423984093400303,0.18941191104855237 l -2.7929120175682924 6.371120546400849" fill="#ff5808" stroke="none" /><line stroke="#e1ed5e" stroke-width="0.3" x1="143.23703022742887" x2="145.7803849466894" y1="26.81831364943548" y2="22.513508569990506" /><path d="M 143.74570117128098 25.957352633546492 a86.0,86.0 0 0,1 28.547481713284135,27.462654790039103" fill="none" id="id62" stroke="none" /><text fill="#e1ed5e" style="font-size:6.75px; font-family:Arial;" text-anchor="middle"><textPath startOffset="19.985693538727396" xlink:href="#id62">February</textPath></text><path d="M 112.77801427241765 83.33499621200491 l 0.7027874808575323 -0.9165708991206472 a22.154994569842174,22.154994569842174 0 0,0 0.30064058062022003,0.23465474185595334 l -0.7184606166371826 0.9043377680414698" fill="#ff0500" stroke="none" /><path d="M 113.89432698308785 84.25364557470407 l 4.642182563652225 -5.260956651097313 a28.01623288089854,28.01623288089854 0 0,0 0.3588599435196976,0.32218800053748564 l -4.7320534947679125 5.18026964179053" fill="#ff5808" stroke="none" /><line stroke="#e1ed5e" stroke-width="0.3" x1="172.23445277983987" x2="176.4835382374775" y1="55.19839476539836" y2="52.563006222186495" /><path d="M 173.08426987136738 54.67131705675599 a86.0,86.0 0 0,1 12.851231095245387,41.99856678651699" fill="none" id="id63" stroke="none" /><text fill="#e1ed5e" style="font-size:6.75px; font-family:Arial;" text-anchor="middle"><textPath startOffset="22.20632615414155" xlink:href="#id63">March</textPath></text><path d="M 118.03404312379186 89.2402003453031 l 1.6367279748212706 -0.9765344896553502 a22.905911349735074,22.905911349735074 0 0,0 0.19910726258735548,0.34033885332923414 l -1.6532949118789533 0.9482162239722207" fill="#ff1001" stroke="none" /><path d="M 118.21658344932153 89.55222093294921 l 5.57009887227193 -3.19462552135666 a27.421186313181416,27.421186313181416 0 0,0 0.23130731533698137,0.411469904020657 l -5.624263828901344 3.098272107401209" fill="#ff5007" stroke="none" /><path d="M 118.56541770881063 90.18545643968196 l 5.972786257472368 -3.1574927006685147 a27.756029590834082,27.756029590834082 0 0,0 0.21965668052025236,0.4243067914479419 l -6.026252371152737 3.054213186960228" fill="#ff5507" stroke="none" /><path d="M 118.73160827565052 90.50648371742162 l 6.26858646019097 -3.1770324658098104 a28.02771025994236,28.02771025994236 0 0,0 0.21439861967156051,0.432214534476759 l -6.322345092815938 3.068658342834101" fill="#ff5908" stroke="none" /><path d="M 119.34039704204932 91.81776055985345 l 7.015293688260568 -2.967923180454754 a28.617277304761146,28.617277304761146 0 0,0 0.18802684040099288,0.4553219081862028 l -7.0653422155477585 2.8467267018152485" fill="#ff6108" stroke="none" /><path d="M 119.85752413597 93.16781622104841 l 6.082913606350205 -2.0928884882878505 a27.43288583504544,27.43288583504544 0 0,0 0.14978709188078027,0.4478443394626206 l -6.118037992002756 1.9878710459029159" fill="#ff5007" stroke="none" /><path d="M 120.37134235888165 94.90015583598534 l 7.129720811781032 -1.784883118277307 a28.34974330162999,28.34974330162999 0 0,0 0.11443468347636979,0.47440564165988597 l -7.15938829551822 1.661892244958015" fill="#ff5d08" stroke="none" /><line stroke="#e1ed5e" stroke-width="0.3" x1="184.98032266829074" x2="189.97916517819016" y1="98.17113171792111" y2="98.06355123074" /><path d="M 185.9800911702706 98.14961562048488 a86.0,86.0 0 0,1 -9.607161424134198,41.387399972396054" fill="none" id="id64" stroke="none" /><text fill="#e1ed5e" style="font-size:6.75px; font-family:Arial;" text-anchor="middle"><textPath startOffset="21.466115282336823" xlink:href="#id64">April</textPath></text><path d="M 120.9764740272857 100.99374915477107 l 1.1776651947890826 0.05579125406885102 a22.1789859944241,22.1789859944241 0 0,0 -0.0213484876457948,0.3811915880184845 l -1.1765303562557585 -0.07605455842275885" fill="#ff0600" stroke="none" /><path d="M 120.81339534386255 102.79330883721812 l 3.1163436225726557 0.4182359503062729 a24.14428352476011,24.14428352476011 0 0,0 -0.058826913288980404,0.41143529452972416 l -3.108682658267074 -0.47181671681640647" fill="#ff2203" stroke="none" /><line stroke="#e1ed5e" stroke-width="0.3" x1="174.80103733775053" x2="179.2010983576182" y1="140.37084112569926" y2="142.7455964860345" /><path d="M 175.68104954172406 140.8457921977663 a86.0,86.0 0 0,1 -30.038265399797805,32.042727171017184" fill="none" id="id65" stroke="none" /><text fill="#e1ed5e" style="font-size:6.75px; font-family:Arial;" text-anchor="middle"><textPath startOffset="22.206326154141568" xlink:href="#id65">May</textPath></text><path d="M 118.30583269289576 110.29060199501025 l 0.9036687334587322 0.5079962997240621 a22.036666494280706,22.036666494280706 0 0,0 -0.1887262133548631,0.32906006076406885 l -0.8947905239514895 -0.5234762063464461" fill="#ff0400" stroke="none" /><path d="M 117.94076556474637 110.91462005526583 l 0.7591261446007166 0.46182942486115364 a21.88857128081203,21.88857128081203 0 0,0 -0.19859746743538093,0.32020235231610333 l -0.7510640374973727 -0.4748281085425305" fill="#ff0200" stroke="none" /><path d="M 115.56566222782051 114.09645910891815 l 0.686071449526882 0.6213149169308454 a21.9255950841792,21.9255950841792 0 0,0 -0.25575015584290645,0.27756628289824103 l -0.6752748856882537 -0.6330324546304212" fill="#ff0200" stroke="none" /><path d="M 113.75828350139079 115.86535959552629 l 0.5336403631693025 0.615367189919613 a21.814523674077694,21.814523674077694 0 0,0 -0.2858061226079089,0.24357017811787285 l -0.5229687639843464 -0.6244617582604327" fill="#ff0100" stroke="none" /><line stroke="#e1ed5e" stroke-width="0.3" x1="143.8653032363475" x2="146.44561519142675" y1="172.8068346515853" y2="177.08958963109032" /><path d="M 144.38136562736335 173.6633856474863 a86.0,86.0 0 0,1 -40.68145358897372,12.25698825130547" fill="none" id="id66" stroke="none" /><text fill="#e1ed5e" style="font-size:6.75px; font-family:Arial;" text-anchor="middle"><textPath startOffset="21.466115282336833" xlink:href="#id66">June</textPath></text><path d="M 110.21172684928248 118.3499491758327 l 0.3780769669070651 0.6793849100835565 a21.77749987071053,21.77749987071053 0 0,0 -0.3291276987379511,0.179466663520326 l -0.36632645630046523 -0.685792225363653" fill="#ff0000" stroke="none" /><path d="M 106.91757812671514 119.82793768551818 l 0.2683110072138814 0.7690630787138976 a21.814523674077694,21.814523674077694 0 0,0 -0.3556081769140096,0.1206416010355984 l -0.2550330973626448 -0.773567666647619" fill="#ff0100" stroke="none" /><path d="M 105.18746579009965 120.34920634021253 l 0.8039253774335925 3.1536098837993762 a24.254466363580804,24.254466363580804 0 0,0 -0.4054500355829197,0.0996497541959256 l -0.7495220571074617 -3.1669808963093318" fill="#ff2403" stroke="none" /><path d="M 104.83641907484287 120.43548508189849 l 0.213169796224051 0.900713549267744 a21.9255950841792,21.9255950841792 0 0,0 -0.3680157371306706,0.08375918361456766 l -0.19763390970051833 -0.9042494664599962" fill="#ff0200" stroke="none" /><line stroke="#e1ed5e" stroke-width="0.3" x1="102.19456741930631" x2="102.32365962044197" y1="184.97166512339345" y2="189.96999836594603" /><path d="M 102.22038585953345 185.97133177190398 a86.0,86.0 0 0,1 -42.740103519485714,-10.115201625700543" fill="none" id="id67" stroke="none" /><text fill="#e1ed5e" style="font-size:6.75px; font-family:Arial;" text-anchor="middle"><textPath startOffset="22.20632615414155" xlink:href="#id67">July</textPath></text><path d="M 95.16358092515715 120.4354850818985 l -0.17906262882820237 0.7565993813849055 a21.77749987071053,21.77749987071053 0 0,0 -0.36404379981514706,-0.08947310885291809 l 0.19205971338655994 -0.7534050142179575" fill="#ff0000" stroke="none" /><path d="M 92.7421414339146 119.70592522655815 l -0.3213301964580612 0.8724486385042747 a21.92974175015632,21.92974175015632 0 0,0 -0.35309993984592203,-0.13351218368891 l 0.3363003570642662 -0.8667882047087315" fill="#ff0200" stroke="none" /><line stroke="#e1ed5e" stroke-width="0.3" x1="58.666819895761336" x2="56.23545636021788" y1="174.27360380694188" y2="178.64263932499728" /><path d="M 58.180547188652646 175.14741091055294 a86.0,86.0 0 0,1 -31.652253787137756,-30.449443065178592" fill="none" id="id68" stroke="none" /><text fill="#e1ed5e" style="font-size:6.75px; font-family:Arial;" text-anchor="middle"><textPath startOffset="22.20632615414155" xlink:href="#id68">August</textPath></text><path d="M 84.19399662182784 113.82643327865904 l -0.64093153834131 0.5606602085953248 a21.851547477444864,21.851547477444864 0 0,0 -0.24521337335855412,-0.2852385515393681 l 0.6504874212706429 -0.5495445578944265" fill="#ff0100" stroke="none" /><path d="M 83.95833913139862 113.55231037782056 l -3.9964250239160646 3.376258404253471 a26.231685558601043,26.231685558601043 0 0,0 -0.28842862500075883,-0.3474308592884 l 4.0539496488103595 -3.30696628785131" fill="#ff4006" stroke="none" /><path d="M 83.28015986056508 112.70617746262583 l -4.048469761690106 3.0766188441468882 a26.084849154446854,26.084849154446854 0 0,0 -0.2685978447432081,-0.3598307066659891 l 4.1008288731284 -3.006475257971591" fill="#ff3e05" stroke="none" /><path d="M 82.6465618267979 111.8261652097733 l -0.7954641594948814 0.5420995237224547 a21.96261888754637,21.96261888754637 0 0,0 -0.21021039016402188,-0.3142360115749383 l 0.8046776550696336 -0.5283265979416956" fill="#ff0300" stroke="none" /><line stroke="#e1ed5e" stroke-width="0.3" x1="26.63291911575756" x2="22.317208475507996" y1="142.92168965132927" y2="145.44649492493687" /><path d="M 25.769776987707644 143.4266507060508 a86.0,86.0 0 0,1 -11.730757126820373,-40.83630448921669" fill="none" id="id69" stroke="none" /><text fill="#e1ed5e" style="font-size:6.75px; font-family:Arial;" text-anchor="middle"><textPath startOffset="21.46611528233685" xlink:href="#id69">September</textPath></text><path d="M 81.87401531095188 110.60418214915194 l -4.365363398315041 2.5538534549763288 a26.057525587561884,26.057525587561884 0 0,0 -0.2231616172443504,-0.38910109001422694 l 4.408677011711768 -2.478332519103795" fill="#ff3d05" stroke="none" /><path d="M 81.69416730710424 110.29060199501025 l -3.7745597518904415 2.1218642584974243 a25.330081899003765,25.330081899003765 0 0,0 -0.21038875398625642,-0.38191670002963146 l 3.810524915328214 -2.0565770400699703" fill="#ff3304" stroke="none" /><path d="M 81.51974371655577 109.97397251340807 l -0.6842093748131106 0.36927439712595894 a21.77749987071053,21.77749987071053 0 0,0 -0.17520257048997198,-0.33141723655442445 l 0.6904644535279687 -0.3574421454854083" fill="#ff0000" stroke="none" /><path d="M 81.35079622478065 109.6543875284942 l -3.353947522641952 1.7362837322226434 a24.776724133878073,24.776724133878073 0 0,0 -0.19281167696652682,-0.3804357307034964 l 3.3833378693947456 -1.678293789816462" fill="#ff2b04" stroke="none" /><path d="M 80.32549172779594 107.34259656027581 l -5.879916987792251 2.194405961864179 a27.276053003982117,27.276053003982117 0 0,0 -0.1603776572155886,-0.44129043319432576 l 5.916818906013065 -2.0928677316637363" fill="#ff4e07" stroke="none" /><path d="M 79.50377843672027 104.57218783832718 l -3.8831340165126877 0.8662288349137496 a24.978577909835874,24.978577909835874 0 0,0 -0.09000133851638957,-0.4204562905601746 l 3.897469393753518 -0.7992587249374112" fill="#ff2e04" stroke="none" /><path d="M 79.29508885075956 103.50808413554451 l -3.8660910265161923 0.6550413328960355 a24.921191014616763,24.921191014616763 0 0,0 -0.06802090229452368,-0.42356622351902745 l 3.8767936831720067 -0.5883958796837944" fill="#ff2d04" stroke="none" /><path d="M 79.23777060512086 103.15116336523772 l -3.8985368183604137 0.5916959188919161 a24.94318315381686,24.94318315381686 0 0,0 -0.060773411272943834,-0.42504909689597886 l 3.9081442806499562 -0.5245013500155367" fill="#ff2d04" stroke="none" /><path d="M 79.1416061653843 102.43462659150553 l -8.15746177278926 0.9521525726618109 a29.21284220572541,29.21284220572541 0 0,0 -0.0539988238590093,-0.49996204461605653 l 8.17264289814932 -0.8115942061609722" fill="#ff6909" stroke="none" /><path d="M 79.07016306316243 101.71520430193888 l -6.2803237648904116 0.514673782295441 a27.30137728548526,27.30137728548526 0 0,0 -0.034352206718374634,-0.4687085677168849 l 6.288252530273121 -0.40649207808179544" fill="#ff4e07" stroke="none" /><path d="M 79.0235259727143 100.99374915477108 l -9.352164608361145 0.4430537593091123 a30.36265344309618,30.36265344309618 0 0,0 -0.020238685199118523,-0.5222705364131024 l 9.358405426411466 -0.28200597588201304" fill="#ff780b" stroke="none" /><line stroke="#e1ed5e" stroke-width="0.3" x1="15.007084014347285" x2="10.007500721073583" y1="101.09737516637583" y2="101.16192664675087" /><path d="M 14.007167355692545 101.11028546245083 a86.0,86.0 0 0,1 10.666146001902534,-42.60595125391555" fill="none" id="id70" stroke="none" /><text fill="#e1ed5e" style="font-size:6.75px; font-family:Arial;" text-anchor="middle"><textPath startOffset="22.20632615414155" xlink:href="#id70">October</textPath></text><path d="M 79.00175016825051 100.2711162175752 l -4.643286503526105 0.05995119993527141 a25.64367351352368,25.64367351352368 0 0,0 -0.0018997110662899322,-0.4414259485322983 l 4.643630511881898 0.01998422680070226" fill="#ff3705" stroke="none" /><path d="M 79.00019446554 99.90962569577889 l -11.053946512713122 -0.04757152266694149 a32.05404887612188,32.05404887612188 0 0,0 0.007123619902536127,-0.551732211955978 l 11.05148988569287 0.23783999268339148" fill="#ff8f0d" stroke="none" /><path d="M 79.01574976396665 99.18683210126434 l -6.807566579550683 -0.26380235408604724 a27.81267600998585,27.81267600998585 0 0,0 0.022655930090551772,-0.47823087629993205 l 6.802017041226632 0.3809443370089884" fill="#ff5607" stroke="none" /><path d="M 79.05617556472873 98.46500227214037 l -7.847250780997473 -0.5751343149386859 a28.868298691590542,28.868298691590542 0 0,0 0.04058816286295942,-0.495278392974713 l 7.836188134315016 0.7101266251211774" fill="#ff6409" stroke="none" /><path d="M 79.08570108090925 98.10471618934814 l -22.739768418564903 -2.060710478912485 a43.832949774566174,43.832949774566174 0 0,0 0.0745637597987624,-0.7508468854911989 l 22.700927533083913 2.4518328951081143" fill="#dcff1b" stroke="none" /><path d="M 79.16333360222342 97.38593545837743 l -14.779930498359407 -1.854216576963094 a35.8957868087127,35.8957868087127 0 0,0 0.0821910974633303,-0.6124191433675769 l 14.745823401838242 2.1083540623953305" fill="#ffc111" stroke="none" /><path d="M 79.26566170972629 96.67025291283419 l -5.854498594048388 -0.9401794919827949 a26.929510204465423,26.929510204465423 0 0,0 0.07743919006761073,-0.4570504833602576 l 5.837447542460554 1.0408157636588806" fill="#ff4906" stroke="none" /><path d="M 79.3925641242962 95.95851677861259 l -7.276003791267489 -1.426953232732282 a28.414609005129265,28.414609005129265 0 0,0 0.09826137677393441,-0.47915736996737507 l 7.25036311857856 1.5519862588630595" fill="#ff5e08" stroke="none" /><path d="M 79.54389044137918 95.25157060432595 l -7.334735857366802 -1.702595268900837 a28.529753033601157,28.529753033601157 0 0,0 0.11516129875756642,-0.47741793110083675 l 7.3043417583484205 1.8285984316610706" fill="#ff5f08" stroke="none" /><path d="M 79.62865764111835 94.90015583598534 l -42.22213812067741 -10.570060671189776 a64.52510919083596,64.52510919083596 0 0,0 0.2790055524284214,-1.075122207034446 l 42.03393623637868 11.295279303773084" fill="#35ff64" stroke="none" /><path d="M 79.71946130924805 94.55025226153421 l -6.8632424183886735 -1.8442774335778418 a28.106719056327897,28.106719056327897 0 0,0 0.12957629717271965,-0.4661548831094482 l 6.830479350649592 1.9621436201062326" fill="#ff5a08" stroke="none" /><path d="M 79.91906864156998 93.8553929516997 l -9.197462325529505 -2.8143511285994256 a30.618413876756577,30.618413876756577 0 0,0 0.15855164784822895,-0.5026520518237615 l 9.147655193913073 2.9722533468496017" fill="#ff7c0b" stroke="none" /><path d="M 80.02781315780177 93.51064311812611 l -5.8524007050291225 -1.9015602593113081 a27.153578262443524,27.153578262443524 0 0,0 0.14826203654055947,-0.44328461810806646 l 5.818801374716791 2.0020179803416966" fill="#ff4c07" stroke="none" /><path d="M 80.14247586403 93.16781622104843 l -7.094760334699754 -2.44102467872523 a28.50294779996333,28.50294779996333 0 0,0 0.1636163116725903,-0.4625653459079003 l 7.051690942217354 2.5627876510597414" fill="#ff5f08" stroke="none" /><path d="M 80.2630227832202 92.82701384747504 l -7.017589837252326 -2.5503943270459715 a28.466664472663506,28.466664472663506 0 0,0 0.17133598904801917,-0.45909526775428444 l 6.9726492597026795 2.6708127318295976" fill="#ff5f08" stroke="none" /><path d="M 80.38941819471856 92.48833698450439 l -14.762079560458233 -5.654486346561839 a36.807979276072984,36.807979276072984 0 0,0 0.2317262988627567,-0.5897181550100417 l 14.662559711713785 5.907753506467644" fill="#ffcc13" stroke="none" /><path d="M 80.65960295795068 91.81776055985345 l -7.814138349136275 -3.305886164180298 a29.484670970047155,29.484670970047155 0 0,0 0.20177243502988546,-0.46571859915939545 l 7.756075204263709 3.4399039079262925" fill="#ff6c0a" stroke="none" /><path d="M 80.95270993114464 91.15688171328213 l -19.705725910970706 -9.148811433354066 a42.72593805388785,42.72593805388785 0 0,0 0.3154431716990577,-0.6644037676366609 l 19.545324545429896 9.486657616631257" fill="#e9ff1a" stroke="none" /><path d="M 81.43458229118936 90.18545643968196 l -18.576982853527486 -9.820657433885833 a42.013081743856404,42.013081743856404 0 0,0 0.3434907553472584,-0.6364362024537162 l 18.405183998961753 10.138974619672023" fill="#f2ff19" stroke="none" /><line stroke="#e1ed5e" stroke-width="0.3" x1="26.266209847984243" x2="21.928928074336255" y1="57.711370442889674" y2="55.22380399835377" /><path d="M 25.398753493254645 57.213857153982495 a86.0,86.0 0 0,1 29.58750427330803,-30.492523968695096" fill="none" id="id71" stroke="none" /><text fill="#e1ed5e" style="font-size:6.75px; font-family:Arial;" text-anchor="middle"><textPath startOffset="21.46611528233685" xlink:href="#id71">November</textPath></text><path d="M 81.78341655067845 89.55222093294921 l -7.889169523753253 -4.5246849079020945 a30.09460110671788,30.09460110671788 0 0,0 0.26159420393838095,-0.44714929153777766 l 7.810115645344547 4.659813611793765" fill="#ff750a" stroke="none" /><path d="M 82.15384107792192 88.93136811851018 l -9.794764157308451 -6.0749564820435795 a32.5257321310196,32.5257321310196 0 0,0 0.29919399331471347,-0.47325304583096955 l 9.688742567747775 6.242657175588764" fill="#ff950d" stroke="none" /><path d="M 82.7489923806493 88.02491185347247 l -17.28845762084687 -12.001084718953882 a42.045588643212774,42.045588643212774 0 0,0 0.4178277972740897,-0.5909877878774867 l 17.079317203768902 12.296899007163153" fill="#f1ff19" stroke="none" /><path d="M 83.84228863543731 86.58626213691792 l -5.9788378579857655 -4.963485356520526 a28.770629898307956,28.770629898307956 0 0,0 0.3196134570745364,-0.3783215219024153 l 5.892513787424105 5.065665828052058" fill="#ff6309" stroke="none" /><path d="M 84.07557802195018 86.31012108654704 l -1.2853463670817427 -1.1049842908866854 a22.695023765755685,22.695023765755685 0 0,0 0.2572190625020982,-0.2940458532507916 l 1.2661354410018009 1.12694570034042" fill="#ff0d01" stroke="none" /><path d="M 84.31358615837235 86.03803664274999 l -11.738813978386837 -10.44833397094699 a36.71519762483486,36.71519762483486 0 0,0 0.4242464852240409,-0.4684635651629484 l 11.557223852546752 10.648850323379495" fill="#ffcb12" stroke="none" /><path d="M 84.80347519578584 85.50635884689758 l -7.0807113530676915 -6.753207774951433 a30.78479884908863,30.78479884908863 0 0,0 0.3690301907155581,-0.38031805020194936 l 6.963416898649015 6.874090020703506" fill="#ff7e0b" stroke="none" /><path d="M 85.31137513191541 84.99185889309783 l -5.200660317490669 -5.313788363099829 a28.43526828740815,28.43526828740815 0 0,0 0.35275542196409393,-0.3393504364417002 l 5.108421651914148 5.402521886303843" fill="#ff5e08" stroke="none" /><path d="M 85.57189188830299 84.74124197986013 l -4.080347470124308 -4.31525978338359 a26.938914250520682,26.938914250520682 0 0,0 0.33967676726972756,-0.315692535865784 l 4.005462819059724 4.384856905324022" fill="#ff4906" stroke="none" /><path d="M 86.37877921826538 84.01681056812374 l -8.644823702654477 -10.14386720975715 a34.32782873611313,34.32782873611313 0 0,0 0.4530332860367725,-0.37940234851596605 l 8.468932879658595 10.29117071566693" fill="#ffad10" stroke="none" /><path d="M 86.93701828274178 83.55741782278169 l -5.366759859396377 -6.755225715193209 a29.627582851044423,29.627582851044423 0 0,0 0.4020426943745023,-0.31380070005484534 l 5.24968460986245 6.8466048044712755" fill="#ff6e0a" stroke="none" /><path d="M 87.80319425747018 82.90503203632743 l -10.132590656001845 -14.201776785651383 a38.4459123370365,38.4459123370365 0 0,0 0.5420303549187092,-0.3797269024985765 l 9.886629161499476 14.374088530913903" fill="#ffe115" stroke="none" /><path d="M 88.09926311788651 82.69761687909137 l -35.70221064634046 -51.907149362725875 a84.0,84.0 0 0,0 1.198381222373842,-0.8091523508053382 l 34.80342472956008 52.51401362582988" fill="#4dd2ff" stroke="none" /><path d="M 89.00827224532344 82.1063720568725 l -6.48908092621414 -10.563689565284157 a33.39756865270967,33.39756865270967 0 0,0 0.4924359119513921,-0.29668712704769157 l 6.306282948045099 10.673823301790467" fill="#ffa10e" stroke="none" /><line stroke="#e1ed5e" stroke-width="0.3" x1="56.762969772571076" x2="54.21961505331055" y1="26.818313649435495" y2="22.513508569990535" /><path d="M 56.25429882871897 25.957352633546506 a86.0,86.0 0 0,1 42.265352541879196,-11.944610805530505" fill="none" id="id72" stroke="none" /><text fill="#e1ed5e" style="font-size:6.75px; font-family:Arial;" text-anchor="middle"><textPath startOffset="22.20632615414155" xlink:href="#id72">December</textPath></text><path d="M 89.63071344664047 81.73862282372117 l -4.028756014740266 -7.095052562949757 a29.15908364323628,29.15908364323628 0 0,0 0.43860248131579405,-0.2440818059874102 l 3.9060294443524266 7.163349766497352" fill="#ff6809" stroke="none" /><path d="M 90.26544431104013 81.39251694778311 l -7.464165459215568 -14.267660149996694 a37.1021704176285,37.1021704176285 0 0,0 0.5684397247412566,-0.2911769053311632 l 7.217465246885548 14.39402958064036" fill="#ffd013" stroke="none" /><path d="M 90.91171255644093 81.06846463323043 l -6.417114737508421 -13.367296683805563 a35.827811105730575,35.827811105730575 0 0,0 0.5582685921541386,-0.262114589580926 l 6.186067934054674 13.475776256026498" fill="#ffc011" stroke="none" /><path d="M 91.90106846888425 80.62456947434976 l -3.489063842002847 -8.347041064683651 a30.04691444798097,30.04691444798097 0 0,0 0.47891366356367493,-0.19536090817358093 l 3.3448663088507913 8.405862859040809" fill="#ff740a" stroke="none" /><path d="M 92.23578459929587 80.48803036053334 l -1.108421407027853 -2.7855338531309926 a23.997965453853062,23.997965453853062 0 0,0 0.3851294458906983,-0.14942424166065624 l 1.0603087961374784 2.8042007986822" fill="#ff2003" stroke="none" /><path d="M 92.91201910852362 80.23233633223022 l -7.881642740255045 -21.981106499065156 a44.35143111692,44.35143111692 0 0,0 0.7208543612263039,-0.2514919322854447 l 7.5021063749654555 22.11351928452281" fill="#d6ff1c" stroke="none" /><path d="M 94.28887869178378 79.79150937346287 l -4.093420911236122 -14.484346181927448 a36.05165702088848,36.05165702088848 0 0,0 0.5986328047698198,-0.16362895902880165 l 3.84349021724258 14.552661681782546" fill="#ffc312" stroke="none" /><path d="M 94.98787191387505 79.60689891045804 l -3.901276533137143 -15.873322738652012 a37.34571299617773,37.34571299617773 0 0,0 0.6255874869309895,-0.14805634623550465 l 3.6274653592436197 15.938124997028387" fill="#ffd313" stroke="none" /><path d="M 95.692805502759 79.44645832069477 l -2.1827319310286972 -10.415798902948506 a31.642047992252035,31.642047992252035 0 0,0 0.5340478419860513,-0.10712497304115043 l 2.0031176795755097 10.451827832066868" fill="#ff890c" stroke="none" /></svg>